han_Bold.ufo
<glyph name="uni4E00" format="2">
  <advance width="1000"/>
  <unicode hex="2F00"/>
  <unicode hex="4E00"/>
  <outline>
    <contour>
      <point x="950" y="319" type="line"/>
      <point x="950" y="451" type="line"/>
      <point x="50" y="451" type="line"/>
      <point x="50" y="319" type="line"/>
    </contour>
  </outline>
</glyph>
<glyph name="uni4E59" format="2">
  <advance width="1000"/>
  <unicode hex="2F04"/>
  <unicode hex="4E59"/>
  <outline>
    <contour>
      <point x="771" y="-59" type="line" smooth="yes"/>
      <point x="871" y="-59"/>
      <point x="915" y="-19"/>
      <point x="915" y="81" type="curve" smooth="yes"/>
      <point x="915" y="262" type="line"/>
      <point x="785" y="293" type="line"/>
      <point x="785" y="63" type="line"/>
      <point x="336" y="63" type="line" smooth="yes"/>
      <point x="260" y="63"/>
      <point x="237" y="78"/>
      <point x="237" y="126" type="curve" smooth="yes"/>
      <point x="237" y="245"/>
      <point x="429" y="398"/>
      <point x="870" y="687" type="curve"/>
      <point x="870" y="800" type="line"/>
      <point x="111" y="800" type="line"/>
      <point x="111" y="678" type="line"/>
      <point x="728" y="678" type="line"/>
      <point x="719" y="725" type="line"/>
      <point x="311" y="479"/>
      <point x="94" y="288"/>
      <point x="94" y="113" type="curve" smooth="yes"/>
      <point x="94" y="6"/>
      <point x="154" y="-59"/>
      <point x="319" y="-59" type="curve" smooth="yes"/>
    </contour>
  </outline>
</glyph>
<glyph name="uni4E8C" format="2">
  <advance width="1000"/>
  <unicode hex="2F06"/>
  <unicode hex="4E8C"/>
  <outline>
    <contour>
      <point x="889" y="752" type="line"/>
      <point x="112" y="752" type="line"/>
      <point x="112" y="622" type="line"/>
      <point x="889" y="622" type="line"/>
    </contour>
    <contour>
      <point x="952" y="139" type="line"/>
      <point x="48" y="139" type="line"/>
      <point x="48" y="7" type="line"/>
      <point x="952" y="7" type="line"/>
    </contour>
  </outline>
</glyph>
<glyph name="uni513F" format="2">
  <advance width="1000"/>
  <unicode hex="2F09"/>
  <unicode hex="513F"/>
  <outline>
    <contour>
      <point x="133" y="-75" type="line"/>
      <point x="321" y="86"/>
      <point x="365" y="262"/>
      <point x="365" y="594" type="curve" smooth="yes"/>
      <point x="365" y="819" type="line"/>
      <point x="235" y="819" type="line"/>
      <point x="235" y="585" type="line" smooth="yes"/>
      <point x="235" y="312"/>
      <point x="207" y="167"/>
      <point x="41" y="32" type="curve"/>
    </contour>
    <contour>
      <point x="848" y="-53" type="line" smooth="yes"/>
      <point x="918" y="-53"/>
      <point x="962" y="-13"/>
      <point x="962" y="57" type="curve" smooth="yes"/>
      <point x="962" y="244" type="line"/>
      <point x="840" y="275" type="line"/>
      <point x="840" y="70" type="line"/>
      <point x="755" y="70" type="line" smooth="yes"/>
      <point x="730" y="70"/>
      <point x="721" y="75"/>
      <point x="721" y="100" type="curve" smooth="yes"/>
      <point x="721" y="823" type="line"/>
      <point x="591" y="823" type="line"/>
      <point x="591" y="67" type="line" smooth="yes"/>
      <point x="591" y="-18"/>
      <point x="630" y="-53"/>
      <point x="715" y="-53" type="curve" smooth="yes"/>
    </contour>
  </outline>
</glyph>
<glyph name="uni5165" format="2">
  <advance width="1000"/>
  <unicode hex="2F0A"/>
  <unicode hex="5165"/>
  <outline>
    <contour>
      <point x="195" y="802" type="line"/>
      <point x="195" y="684" type="line"/>
      <point x="436" y="684" type="line"/>
      <point x="436" y="603" type="line" smooth="yes"/>
      <point x="436" y="372"/>
      <point x="361" y="242"/>
      <point x="28" y="44" type="curve"/>
      <point x="107" y="-74" type="line"/>
      <point x="366" y="96"/>
      <point x="478" y="190"/>
      <point x="495" y="415" type="curve"/>
      <point x="505" y="415" type="line"/>
      <point x="522" y="190"/>
      <point x="634" y="96"/>
      <point x="893" y="-74" type="curve"/>
      <point x="972" y="44" type="line"/>
      <point x="635" y="243"/>
      <point x="570" y="372"/>
      <point x="570" y="603" type="curve" smooth="yes"/>
      <point x="570" y="802" type="line"/>
    </contour>
  </outline>
</glyph>
<glyph name="uni5182" format="2">
  <advance width="1000"/>
  <unicode hex="2F0C"/>
  <unicode hex="5182"/>
  <outline>
    <contour>
      <point x="80" y="-80" type="line"/>
      <point x="202" y="-80" type="line"/>
      <point x="202" y="682" type="line"/>
      <point x="797" y="682" type="line"/>
      <point x="797" y="44" type="line"/>
      <point x="619" y="44" type="line"/>
      <point x="648" y="-72" type="line"/>
      <point x="776" y="-72" type="line" smooth="yes"/>
      <point x="876" y="-72"/>
      <point x="920" y="-31"/>
      <point x="920" y="72" type="curve" smooth="yes"/>
      <point x="920" y="796" type="line"/>
      <point x="80" y="796" type="line"/>
    </contour>
  </outline>
</glyph>
<glyph name="uni51AB" format="2">
  <advance width="1000"/>
  <unicode hex="2F0E"/>
  <unicode hex="51AB"/>
  <outline>
    <contour>
      <point x="300" y="-59" type="line"/>
      <point x="507" y="52"/>
      <point x="670" y="193"/>
      <point x="775" y="352" type="curve"/>
      <point x="675" y="452" type="line"/>
      <point x="557" y="292"/>
      <point x="419" y="168"/>
      <point x="218" y="69" type="curve"/>
    </contour>
    <contour>
      <point x="588" y="586" type="line"/>
      <point x="521" y="652"/>
      <point x="429" y="721"/>
      <point x="333" y="784" type="curve"/>
      <point x="242" y="674" type="line"/>
      <point x="341" y="608"/>
      <point x="421" y="545"/>
      <point x="491" y="476" type="curve"/>
    </contour>
  </outline>
</glyph>
<glyph name="uni51F5" format="2">
  <advance width="1000"/>
  <unicode hex="2F10"/>
  <unicode hex="51F5"/>
  <outline>
    <contour>
      <point x="798" y="809" type="line"/>
      <point x="798" y="102" type="line"/>
      <point x="202" y="102" type="line"/>
      <point x="202" y="809" type="line"/>
      <point x="68" y="809" type="line"/>
      <point x="68" y="-82" type="line"/>
      <point x="202" y="-82" type="line"/>
      <point x="202" y="-22" type="line"/>
      <point x="798" y="-22" type="line"/>
      <point x="798" y="-82" type="line"/>
      <point x="932" y="-82" type="line"/>
      <point x="932" y="809" type="line"/>
    </contour>
  </outline>
</glyph>
<glyph name="uni5200" format="2">
  <advance width="1000"/>
  <unicode hex="2F11"/>
  <unicode hex="5200"/>
  <outline>
    <contour>
      <point x="611" y="-60" type="line" smooth="yes"/>
      <point x="787" y="-60"/>
      <point x="850" y="2"/>
      <point x="875" y="165" type="curve" smooth="yes"/>
      <point x="899" y="319"/>
      <point x="903" y="457"/>
      <point x="903" y="678" type="curve" smooth="yes"/>
      <point x="903" y="795" type="line"/>
      <point x="81" y="795" type="line"/>
      <point x="81" y="671" type="line"/>
      <point x="771" y="671" type="line"/>
      <point x="771" y="598" type="line" smooth="yes"/>
      <point x="771" y="433"/>
      <point x="769" y="328"/>
      <point x="747" y="191" type="curve" smooth="yes"/>
      <point x="731" y="91"/>
      <point x="682" y="69"/>
      <point x="599" y="69" type="curve" smooth="yes"/>
      <point x="466" y="69" type="line"/>
      <point x="498" y="-60" type="line"/>
    </contour>
    <contour>
      <point x="140" y="-65" type="line"/>
      <point x="397" y="109"/>
      <point x="473" y="337"/>
      <point x="473" y="657" type="curve" smooth="yes"/>
      <point x="473" y="784" type="line"/>
      <point x="343" y="784" type="line"/>
      <point x="343" y="656" type="line" smooth="yes"/>
      <point x="343" y="343"/>
      <point x="268" y="180"/>
      <point x="51" y="38" type="curve"/>
    </contour>
  </outline>
</glyph>
<glyph name="uni5315" format="2">
  <advance width="1000"/>
  <unicode hex="2F14"/>
  <unicode hex="5315"/>
  <outline>
    <contour>
      <point x="246" y="362" type="line"/>
      <point x="503" y="428"/>
      <point x="707" y="505"/>
      <point x="885" y="608" type="curve"/>
      <point x="809" y="715" type="line"/>
      <point x="647" y="621"/>
      <point x="437" y="538"/>
      <point x="204" y="487" type="curve"/>
    </contour>
    <contour>
      <point x="744" y="-47" type="line" smooth="yes"/>
      <point x="844" y="-47"/>
      <point x="888" y="-7"/>
      <point x="888" y="93" type="curve" smooth="yes"/>
      <point x="888" y="269" type="line"/>
      <point x="761" y="295" type="line"/>
      <point x="761" y="77" type="line"/>
      <point x="373" y="77" type="line" smooth="yes"/>
      <point x="303" y="77"/>
      <point x="289" y="87"/>
      <point x="289" y="157" type="curve" smooth="yes"/>
      <point x="289" y="830" type="line"/>
      <point x="157" y="830" type="line"/>
      <point x="157" y="123" type="line" smooth="yes"/>
      <point x="157" y="3"/>
      <point x="211" y="-47"/>
      <point x="331" y="-47" type="curve" smooth="yes"/>
    </contour>
  </outline>
</glyph>
<glyph name="uni5341" format="2">
  <advance width="1000"/>
  <unicode hex="2F17"/>
  <unicode hex="5341"/>
  <outline>
    <contour>
      <point x="558" y="-70" type="line"/>
      <point x="558" y="830" type="line"/>
      <point x="424" y="830" type="line"/>
      <point x="424" y="-70" type="line"/>
    </contour>
    <contour>
      <point x="953" y="366" type="line"/>
      <point x="953" y="494" type="line"/>
      <point x="47" y="494" type="line"/>
      <point x="47" y="366" type="line"/>
    </contour>
  </outline>
</glyph>
<glyph name="uni535C" format="2">
  <advance width="1000"/>
  <unicode hex="2F18"/>
  <unicode hex="535C"/>
  <outline>
    <contour>
      <point x="901" y="319" type="line"/>
      <point x="490" y="548" type="line" smooth="yes"/>
      <point x="468" y="560"/>
      <point x="451" y="558"/>
      <point x="435" y="537" type="curve" smooth="yes"/>
      <point x="410" y="504" type="line"/>
      <point x="349" y="504" type="line"/>
      <point x="336" y="416" type="line"/>
      <point x="402" y="420" type="line"/>
      <point x="402" y="430"/>
      <point x="405" y="437"/>
      <point x="419" y="429" type="curve" smooth="yes"/>
      <point x="826" y="200" type="line"/>
    </contour>
    <contour>
      <point x="402" y="-70" type="line"/>
      <point x="402" y="830" type="line"/>
      <point x="268" y="830" type="line"/>
      <point x="268" y="-70" type="line"/>
    </contour>
  </outline>
</glyph>
<glyph name="uni5382" format="2">
  <advance width="1000"/>
  <unicode hex="2F1A"/>
  <unicode hex="5382"/>
  <outline>
    <contour>
      <point x="136" y="-73" type="line"/>
      <point x="221" y="77"/>
      <point x="254" y="293"/>
      <point x="254" y="532" type="curve" smooth="yes"/>
      <point x="254" y="736" type="line"/>
      <point x="223" y="690" type="line"/>
      <point x="948" y="690" type="line"/>
      <point x="948" y="808" type="line"/>
      <point x="120" y="808" type="line"/>
      <point x="120" y="533" type="line" smooth="yes"/>
      <point x="120" y="310"/>
      <point x="96" y="153"/>
      <point x="28" y="35" type="curve"/>
    </contour>
  </outline>
</glyph>
<glyph name="uni5915" format="2">
  <advance width="1000"/>
  <unicode hex="2F23"/>
  <unicode hex="5915"/>
  <outline>
    <contour>
      <point x="698" y="276" type="line"/>
      <point x="621" y="342"/>
      <point x="510" y="431"/>
      <point x="420" y="493" type="curve"/>
      <point x="331" y="403" type="line"/>
      <point x="420" y="335"/>
      <point x="531" y="246"/>
      <point x="605" y="180" type="curve"/>
    </contour>
    <contour>
      <point x="120" y="327" type="line"/>
      <point x="319" y="443"/>
      <point x="473" y="617"/>
      <point x="540" y="805" type="curve"/>
      <point x="413" y="836" type="line"/>
      <point x="350" y="671"/>
      <point x="226" y="536"/>
      <point x="49" y="436" type="curve"/>
    </contour>
    <contour>
      <point x="770" y="607" type="line"/>
      <point x="697" y="353"/>
      <point x="544" y="160"/>
      <point x="154" y="49" type="curve"/>
      <point x="213" y="-75" type="line"/>
      <point x="643" y="60"/>
      <point x="818" y="274"/>
      <point x="908" y="632" type="curve"/>
      <point x="908" y="724" type="line"/>
      <point x="399" y="724" type="line"/>
      <point x="399" y="607" type="line"/>
    </contour>
  </outline>
</glyph>
<glyph name="uni5927" format="2">
  <advance width="1000"/>
  <unicode hex="2F24"/>
  <unicode hex="5927"/>
  <outline>
    <contour>
      <point x="104" y="-80" type="line"/>
      <point x="350" y="69"/>
      <point x="470" y="167"/>
      <point x="490" y="384" type="curve"/>
      <point x="500" y="384" type="line"/>
      <point x="520" y="169"/>
      <point x="647" y="69"/>
      <point x="897" y="-80" type="curve"/>
      <point x="969" y="40" type="line"/>
      <point x="638" y="222"/>
      <point x="558" y="344"/>
      <point x="558" y="561" type="curve" smooth="yes"/>
      <point x="558" y="830" type="line"/>
      <point x="426" y="830" type="line"/>
      <point x="426" y="561" type="line" smooth="yes"/>
      <point x="426" y="344"/>
      <point x="358" y="223"/>
      <point x="31" y="40" type="curve"/>
    </contour>
    <contour>
      <point x="947" y="472" type="line"/>
      <point x="947" y="592" type="line"/>
      <point x="54" y="592" type="line"/>
      <point x="54" y="472" type="line"/>
    </contour>
  </outline>
</glyph>
<glyph name="uni5B50" format="2">
  <advance width="1000"/>
  <unicode hex="2F26"/>
  <unicode hex="5B50"/>
  <outline>
    <contour>
      <point x="953" y="339" type="line"/>
      <point x="953" y="459" type="line"/>
      <point x="47" y="459" type="line"/>
      <point x="47" y="339" type="line"/>
    </contour>
    <contour>
      <point x="711" y="687" type="line"/>
      <point x="661" y="648"/>
      <point x="576" y="595"/>
      <point x="449" y="555" type="curve"/>
      <point x="449" y="52" type="line"/>
      <point x="226" y="52" type="line"/>
      <point x="254" y="-70" type="line"/>
      <point x="436" y="-70" type="line" smooth="yes"/>
      <point x="536" y="-70"/>
      <point x="580" y="-30"/>
      <point x="580" y="70" type="curve" smooth="yes"/>
      <point x="580" y="487" type="line"/>
      <point x="726" y="546"/>
      <point x="836" y="629"/>
      <point x="896" y="710" type="curve"/>
      <point x="896" y="805" type="line"/>
      <point x="118" y="805" type="line"/>
      <point x="118" y="687" type="line"/>
    </contour>
  </outline>
</glyph>
<glyph name="uni5C0F" format="2">
  <advance width="1000"/>
  <unicode hex="2F29"/>
  <unicode hex="5C0F"/>
  <outline>
    <contour>
      <point x="437" y="-50" type="line" smooth="yes"/>
      <point x="537" y="-50"/>
      <point x="581" y="-10"/>
      <point x="581" y="90" type="curve" smooth="yes"/>
      <point x="581" y="840" type="line"/>
      <point x="447" y="840" type="line"/>
      <point x="447" y="80" type="line"/>
      <point x="240" y="80" type="line"/>
      <point x="272" y="-50" type="line"/>
    </contour>
    <contour>
      <point x="145" y="133" type="line"/>
      <point x="263" y="300"/>
      <point x="312" y="468"/>
      <point x="348" y="634" type="curve"/>
      <point x="217" y="664" type="line"/>
      <point x="186" y="515"/>
      <point x="141" y="366"/>
      <point x="28" y="217" type="curve"/>
    </contour>
    <contour>
      <point x="972" y="191" type="line"/>
      <point x="931" y="334"/>
      <point x="855" y="524"/>
      <point x="786" y="669" type="curve"/>
      <point x="660" y="625" type="line"/>
      <point x="733" y="464"/>
      <point x="793" y="293"/>
      <point x="842" y="138" type="curve"/>
    </contour>
  </outline>
</glyph>
<glyph name="uni5C22" format="2">
  <advance width="1000"/>
  <unicode hex="2F2A"/>
  <unicode hex="5C22"/>
  <outline>
    <contour>
      <point x="946" y="647" type="line"/>
      <point x="54" y="647" type="line"/>
      <point x="54" y="527" type="line"/>
      <point x="946" y="527" type="line"/>
    </contour>
    <contour>
      <point x="112" y="-83" type="line"/>
      <point x="460" y="106"/>
      <point x="526" y="313"/>
      <point x="526" y="708" type="curve" smooth="yes"/>
      <point x="526" y="830" type="line"/>
      <point x="401" y="830" type="line"/>
      <point x="401" y="708" type="line" smooth="yes"/>
      <point x="401" y="351"/>
      <point x="356" y="195"/>
      <point x="41" y="28" type="curve"/>
    </contour>
    <contour>
      <point x="820" y="-63" type="line" smooth="yes"/>
      <point x="910" y="-63"/>
      <point x="954" y="-23"/>
      <point x="954" y="71" type="curve" smooth="yes"/>
      <point x="954" y="231" type="line"/>
      <point x="837" y="259" type="line"/>
      <point x="837" y="55" type="line"/>
      <point x="707" y="55" type="line" smooth="yes"/>
      <point x="669" y="55"/>
      <point x="661" y="63"/>
      <point x="661" y="95" type="curve" smooth="yes"/>
      <point x="661" y="453" type="line"/>
      <point x="537" y="453" type="line"/>
      <point x="537" y="77" type="line" smooth="yes"/>
      <point x="537" y="-23"/>
      <point x="581" y="-63"/>
      <point x="681" y="-63" type="curve" smooth="yes"/>
    </contour>
  </outline>
</glyph>
<glyph name="uni5C38" format="2">
  <advance width="1000"/>
  <unicode hex="2F2B"/>
  <unicode hex="5C38"/>
  <outline>
    <contour>
      <point x="152" y="-87" type="line"/>
      <point x="234" y="54"/>
      <point x="257" y="253"/>
      <point x="257" y="424" type="curve" smooth="yes"/>
      <point x="257" y="440" type="line"/>
      <point x="787" y="440" type="line"/>
      <point x="787" y="380" type="line"/>
      <point x="917" y="380" type="line"/>
      <point x="917" y="808" type="line"/>
      <point x="127" y="808" type="line"/>
      <point x="127" y="424" type="line" smooth="yes"/>
      <point x="127" y="240"/>
      <point x="101" y="111"/>
      <point x="39" y="11" type="curve"/>
    </contour>
    <contour>
      <point x="257" y="694" type="line"/>
      <point x="787" y="694" type="line"/>
      <point x="787" y="554" type="line"/>
      <point x="257" y="554" type="line"/>
    </contour>
  </outline>
</glyph>
<glyph name="uni5C6E" format="2">
  <advance width="1000"/>
  <unicode hex="2F2C"/>
  <unicode hex="5C6E"/>
  <outline>
    <contour>
      <point x="431" y="-78" type="line"/>
      <point x="565" y="-78" type="line"/>
      <point x="565" y="840" type="line"/>
      <point x="431" y="840" type="line"/>
    </contour>
    <contour>
      <point x="779" y="729" type="line"/>
      <point x="779" y="419" type="line"/>
      <point x="221" y="419" type="line"/>
      <point x="221" y="729" type="line"/>
      <point x="87" y="729" type="line"/>
      <point x="87" y="246" type="line"/>
      <point x="221" y="246" type="line"/>
      <point x="221" y="295" type="line"/>
      <point x="779" y="295" type="line"/>
      <point x="779" y="246" type="line"/>
      <point x="913" y="246" type="line"/>
      <point x="913" y="729" type="line"/>
    </contour>
  </outline>
</glyph>
<glyph name="uni5C71" format="2">
  <advance width="1000"/>
  <unicode hex="2F2D"/>
  <unicode hex="5C71"/>
  <outline>
    <contour>
      <point x="208" y="-75" type="line"/>
      <point x="208" y="-8" type="line"/>
      <point x="792" y="-8" type="line"/>
      <point x="792" y="-75" type="line"/>
      <point x="920" y="-75" type="line"/>
      <point x="920" y="680" type="line"/>
      <point x="792" y="680" type="line"/>
      <point x="792" y="112" type="line"/>
      <point x="208" y="112" type="line"/>
      <point x="208" y="684" type="line"/>
      <point x="80" y="684" type="line"/>
      <point x="80" y="-75" type="line"/>
    </contour>
    <contour>
      <point x="557" y="40" type="line"/>
      <point x="557" y="829" type="line"/>
      <point x="427" y="829" type="line"/>
      <point x="427" y="40" type="line"/>
    </contour>
  </outline>
</glyph>
<glyph name="uni5DDB" format="2">
  <advance width="1000"/>
  <unicode hex="2F2E"/>
  <unicode hex="5DDB"/>
  <outline>
    <contour>
      <point x="395" y="-30" type="line"/>
      <point x="348" y="93"/>
      <point x="261" y="296"/>
      <point x="198" y="402" type="curve"/>
      <point x="262" y="497"/>
      <point x="339" y="677"/>
      <point x="380" y="799" type="curve"/>
      <point x="247" y="838" type="line"/>
      <point x="214" y="724"/>
      <point x="146" y="556"/>
      <point x="48" y="402" type="curve"/>
      <point x="140" y="247"/>
      <point x="214" y="58"/>
      <point x="267" y="-78" type="curve"/>
    </contour>
    <contour>
      <point x="669" y="-31" type="line"/>
      <point x="612" y="112"/>
      <point x="516" y="315"/>
      <point x="461" y="402" type="curve"/>
      <point x="529" y="501"/>
      <point x="613" y="684"/>
      <point x="659" y="797" type="curve"/>
      <point x="531" y="838" type="line"/>
      <point x="488" y="716"/>
      <point x="409" y="549"/>
      <point x="311" y="402" type="curve"/>
      <point x="398" y="255"/>
      <point x="491" y="64"/>
      <point x="543" y="-78" type="curve"/>
    </contour>
    <contour>
      <point x="954" y="-23" type="line"/>
      <point x="890" y="115"/>
      <point x="787" y="317"/>
      <point x="727" y="403" type="curve"/>
      <point x="793" y="486"/>
      <point x="886" y="674"/>
      <point x="933" y="791" type="curve"/>
      <point x="807" y="838" type="line"/>
      <point x="765" y="717"/>
      <point x="673" y="534"/>
      <point x="576" y="403" type="curve"/>
      <point x="668" y="258"/>
      <point x="767" y="61"/>
      <point x="830" y="-78" type="curve"/>
    </contour>
  </outline>
</glyph>
<glyph name="uni5DE5" format="2">
  <advance width="1000"/>
  <unicode hex="2F2F"/>
  <unicode hex="5DE5"/>
  <outline>
    <contour>
      <point x="954" y="-23" type="line"/>
      <point x="954" y="101" type="line"/>
      <point x="46" y="101" type="line"/>
      <point x="46" y="-23" type="line"/>
    </contour>
    <contour>
      <point x="558" y="36" type="line"/>
      <point x="558" y="715" type="line"/>
      <point x="426" y="715" type="line"/>
      <point x="426" y="36" type="line"/>
    </contour>
    <contour>
      <point x="922" y="658" type="line"/>
      <point x="922" y="782" type="line"/>
      <point x="78" y="782" type="line"/>
      <point x="78" y="658" type="line"/>
    </contour>
  </outline>
</glyph>
<glyph name="uni5DF1" format="2">
  <advance width="1000"/>
  <unicode hex="2F30"/>
  <unicode hex="5DF1"/>
  <outline>
    <contour>
      <point x="759" y="-46" type="line" smooth="yes"/>
      <point x="859" y="-46"/>
      <point x="903" y="-6"/>
      <point x="903" y="94" type="curve" smooth="yes"/>
      <point x="903" y="232" type="line"/>
      <point x="779" y="257" type="line"/>
      <point x="779" y="75" type="line"/>
      <point x="343" y="75" type="line" smooth="yes"/>
      <point x="243" y="75"/>
      <point x="229" y="85"/>
      <point x="229" y="185" type="curve" smooth="yes"/>
      <point x="229" y="470" type="line"/>
      <point x="101" y="470" type="line"/>
      <point x="101" y="144" type="line" smooth="yes"/>
      <point x="101" y="4"/>
      <point x="155" y="-46"/>
      <point x="295" y="-46" type="curve" smooth="yes"/>
    </contour>
    <contour>
      <point x="775" y="390" type="line"/>
      <point x="775" y="508" type="line"/>
      <point x="101" y="508" type="line"/>
      <point x="101" y="390" type="line"/>
    </contour>
    <contour>
      <point x="863" y="390" type="line"/>
      <point x="863" y="815" type="line"/>
      <point x="91" y="815" type="line"/>
      <point x="91" y="695" type="line"/>
      <point x="735" y="695" type="line"/>
      <point x="735" y="390" type="line"/>
    </contour>
  </outline>
</glyph>
<glyph name="uni5E7F" format="2">
  <advance width="1000"/>
  <unicode hex="2F34"/>
  <unicode hex="5E7F"/>
  <outline>
    <contour>
      <point x="142" y="-71" type="line"/>
      <point x="221" y="74"/>
      <point x="249" y="284"/>
      <point x="249" y="541" type="curve" smooth="yes"/>
      <point x="249" y="617" type="line"/>
      <point x="934" y="617" type="line"/>
      <point x="934" y="731" type="line"/>
      <point x="119" y="731" type="line"/>
      <point x="119" y="528" type="line" smooth="yes"/>
      <point x="119" y="281"/>
      <point x="89" y="133"/>
      <point x="27" y="24" type="curve"/>
    </contour>
    <contour>
      <point x="616" y="718" type="line"/>
      <point x="599" y="766"/>
      <point x="578" y="812"/>
      <point x="552" y="855" type="curve"/>
      <point x="415" y="823" type="line"/>
      <point x="441" y="780"/>
      <point x="461" y="738"/>
      <point x="479" y="693" type="curve"/>
    </contour>
  </outline>
</glyph>
<glyph name="uni5EF4" format="2">
  <advance width="1000"/>
  <unicode hex="2F35"/>
  <unicode hex="5EF4"/>
  <outline>
    <contour>
      <point x="943" y="-55" type="line"/>
      <point x="968" y="65" type="line"/>
      <point x="546" y="65" type="line" smooth="yes"/>
      <point x="321" y="65"/>
      <point x="226" y="174"/>
      <point x="156" y="385" type="curve"/>
      <point x="49" y="352" type="line"/>
      <point x="123" y="122"/>
      <point x="241" y="-55"/>
      <point x="516" y="-55" type="curve" smooth="yes"/>
    </contour>
    <contour>
      <point x="391" y="802" type="line"/>
      <point x="55" y="802" type="line"/>
      <point x="55" y="696" type="line"/>
      <point x="328" y="696" type="line"/>
      <point x="269" y="736" type="line"/>
      <point x="204" y="657"/>
      <point x="128" y="577"/>
      <point x="65" y="521" type="curve"/>
      <point x="175" y="474" type="line"/>
      <point x="236" y="538"/>
      <point x="316" y="618"/>
      <point x="391" y="712" type="curve"/>
    </contour>
    <contour>
      <point x="418" y="521" type="line"/>
      <point x="65" y="521" type="line"/>
      <point x="65" y="421" type="line"/>
      <point x="356" y="421" type="line"/>
      <point x="299" y="450" type="line"/>
      <point x="275" y="288"/>
      <point x="210" y="124"/>
      <point x="29" y="37" type="curve"/>
      <point x="97" y="-72" type="line"/>
      <point x="298" y="34"/>
      <point x="384" y="250"/>
      <point x="418" y="449" type="curve"/>
    </contour>
  </outline>
</glyph>
<glyph name="uni5F0B" format="2">
  <advance width="1000"/>
  <unicode hex="2F37"/>
  <unicode hex="5F0B"/>
  <outline>
    <contour>
      <point x="923" y="625" type="line"/>
      <point x="45" y="500" type="line"/>
      <point x="64" y="383" type="line"/>
      <point x="939" y="508" type="line"/>
    </contour>
    <contour>
      <point x="820" y="722" type="line"/>
      <point x="757" y="763"/>
      <point x="669" y="811"/>
      <point x="603" y="837" type="curve"/>
      <point x="531" y="742" type="line"/>
      <point x="599" y="711"/>
      <point x="688" y="662"/>
      <point x="747" y="623" type="curve"/>
    </contour>
    <contour>
      <point x="755" y="-49" type="curve" smooth="yes"/>
      <point x="853" y="-86"/>
      <point x="931" y="-55"/>
      <point x="945" y="50" type="curve" smooth="yes"/>
      <point x="966" y="211" type="line"/>
      <point x="851" y="258" type="line"/>
      <point x="826" y="64" type="line"/>
      <point x="628" y="132"/>
      <point x="464" y="407"/>
      <point x="464" y="777" type="curve" smooth="yes"/>
      <point x="464" y="835" type="line"/>
      <point x="334" y="835" type="line"/>
      <point x="334" y="776" type="line" smooth="yes"/>
      <point x="334" y="356"/>
      <point x="524" y="39"/>
    </contour>
  </outline>
</glyph>
<glyph name="uni5F50" format="2">
  <advance width="1000"/>
  <unicode hex="2F39"/>
  <unicode hex="5F50"/>
  <outline>
    <contour>
      <point x="820" y="334" type="line"/>
      <point x="820" y="452" type="line"/>
      <point x="148" y="452" type="line"/>
      <point x="148" y="334" type="line"/>
    </contour>
    <contour>
      <point x="92" y="14" type="line"/>
      <point x="848" y="14" type="line"/>
      <point x="848" y="136" type="line"/>
      <point x="92" y="136" type="line"/>
    </contour>
    <contour>
      <point x="886" y="754" type="line"/>
      <point x="114" y="754" type="line"/>
      <point x="114" y="634" type="line"/>
      <point x="746" y="634" type="line"/>
      <point x="746" y="-50" type="line"/>
      <point x="886" y="-50" type="line"/>
    </contour>
  </outline>
</glyph>
<glyph name="uni5F61" format="2">
  <advance width="1000"/>
  <unicode hex="2F3A"/>
  <unicode hex="5F61"/>
  <outline>
    <contour>
      <point x="149" y="-71" type="line"/>
      <point x="498" y="-4"/>
      <point x="758" y="126"/>
      <point x="913" y="289" type="curve"/>
      <point x="823" y="377" type="line"/>
      <point x="658" y="215"/>
      <point x="428" y="112"/>
      <point x="103" y="49" type="curve"/>
    </contour>
    <contour>
      <point x="167" y="218" type="line"/>
      <point x="449" y="279"/>
      <point x="694" y="385"/>
      <point x="850" y="536" type="curve"/>
      <point x="763" y="624" type="line"/>
      <point x="607" y="485"/>
      <point x="394" y="391"/>
      <point x="122" y="339" type="curve"/>
    </contour>
    <contour>
      <point x="171" y="486" type="line"/>
      <point x="438" y="544"/>
      <point x="648" y="639"/>
      <point x="780" y="752" type="curve"/>
      <point x="698" y="841" type="line"/>
      <point x="554" y="729"/>
      <point x="381" y="660"/>
      <point x="123" y="606" type="curve"/>
    </contour>
  </outline>
</glyph>
<glyph name="uni5F73" format="2">
  <advance width="1000"/>
  <unicode hex="2F3B"/>
  <unicode hex="5F73"/>
  <outline>
    <contour>
      <point x="580" y="-80" type="line"/>
      <point x="580" y="386" type="line"/>
      <point x="446" y="386" type="line"/>
      <point x="446" y="-80" type="line"/>
    </contour>
    <contour>
      <point x="735" y="616" type="line"/>
      <point x="588" y="487"/>
      <point x="394" y="390"/>
      <point x="146" y="327" type="curve"/>
      <point x="189" y="206" type="line"/>
      <point x="450" y="277"/>
      <point x="655" y="381"/>
      <point x="827" y="537" type="curve"/>
    </contour>
    <contour>
      <point x="216" y="470" type="line"/>
      <point x="420" y="528"/>
      <point x="612" y="627"/>
      <point x="740" y="753" type="curve"/>
      <point x="647" y="837" type="line"/>
      <point x="529" y="722"/>
      <point x="367" y="642"/>
      <point x="170" y="590" type="curve"/>
    </contour>
  </outline>
</glyph>
<glyph name="uni624B" format="2">
  <advance width="1000"/>
  <unicode hex="2F3F"/>
  <unicode hex="624B"/>
  <outline>
    <contour>
      <point x="428" y="-68" type="line" smooth="yes"/>
      <point x="528" y="-68"/>
      <point x="572" y="-28"/>
      <point x="572" y="72" type="curve" smooth="yes"/>
      <point x="572" y="740" type="line"/>
      <point x="446" y="740" type="line"/>
      <point x="446" y="52" type="line"/>
      <point x="236" y="52" type="line"/>
      <point x="267" y="-68" type="line"/>
    </contour>
    <contour>
      <point x="955" y="219" type="line"/>
      <point x="955" y="329" type="line"/>
      <point x="45" y="329" type="line"/>
      <point x="45" y="219" type="line"/>
    </contour>
    <contour>
      <point x="930" y="449" type="line"/>
      <point x="930" y="559" type="line"/>
      <point x="72" y="559" type="line"/>
      <point x="72" y="449" type="line"/>
    </contour>
    <contour>
      <point x="113" y="665" type="line"/>
      <point x="372" y="665"/>
      <point x="682" y="678"/>
      <point x="913" y="733" type="curve"/>
      <point x="855" y="840" type="line"/>
      <point x="640" y="789"/>
      <point x="361" y="777"/>
      <point x="90" y="777" type="curve"/>
    </contour>
  </outline>
</glyph>
<glyph name="uni6587" format="2">
  <advance width="1000"/>
  <unicode hex="2F42"/>
  <unicode hex="6587"/>
  <outline>
    <contour>
      <point x="965" y="50" type="line"/>
      <point x="558" y="181"/>
      <point x="355" y="315"/>
      <point x="293" y="648" type="curve"/>
      <point x="169" y="606" type="line"/>
      <point x="249" y="248"/>
      <point x="489" y="66"/>
      <point x="915" y="-71" type="curve"/>
    </contour>
    <contour>
      <point x="87" y="-71" type="line"/>
      <point x="497" y="66"/>
      <point x="730" y="248"/>
      <point x="807" y="606" type="curve"/>
      <point x="683" y="648" type="line"/>
      <point x="626" y="315"/>
      <point x="428" y="181"/>
      <point x="37" y="50" type="curve"/>
    </contour>
    <contour>
      <point x="951" y="576" type="line"/>
      <point x="951" y="694" type="line"/>
      <point x="49" y="694" type="line"/>
      <point x="49" y="576" type="line"/>
    </contour>
    <contour>
      <point x="585" y="731" type="line"/>
      <point x="554" y="773"/>
      <point x="518" y="816"/>
      <point x="481" y="856" type="curve"/>
      <point x="371" y="791" type="line"/>
      <point x="414" y="744"/>
      <point x="444" y="707"/>
      <point x="474" y="663" type="curve"/>
    </contour>
  </outline>
</glyph>
<glyph name="uni65B9" format="2">
  <advance width="1000"/>
  <unicode hex="2F45"/>
  <unicode hex="65B9"/>
  <outline>
    <contour>
      <point x="133" y="-74" type="line"/>
      <point x="348" y="106"/>
      <point x="429" y="286"/>
      <point x="429" y="562" type="curve" smooth="yes"/>
      <point x="429" y="644" type="line"/>
      <point x="301" y="644" type="line"/>
      <point x="301" y="562" type="line" smooth="yes"/>
      <point x="301" y="302"/>
      <point x="238" y="186"/>
      <point x="43" y="22" type="curve"/>
    </contour>
    <contour>
      <point x="624" y="-68" type="line" smooth="yes"/>
      <point x="754" y="-68"/>
      <point x="814" y="-11"/>
      <point x="835" y="98" type="curve" smooth="yes"/>
      <point x="853" y="189"/>
      <point x="858" y="269"/>
      <point x="858" y="451" type="curve"/>
      <point x="364" y="451" type="line"/>
      <point x="364" y="335" type="line"/>
      <point x="729" y="335" type="line"/>
      <point x="727" y="233"/>
      <point x="721" y="173"/>
      <point x="710" y="128" type="curve" smooth="yes"/>
      <point x="698" y="79"/>
      <point x="674" y="54"/>
      <point x="608" y="54" type="curve" smooth="yes"/>
      <point x="446" y="54" type="line"/>
      <point x="477" y="-68" type="line"/>
    </contour>
    <contour>
      <point x="950" y="575" type="line"/>
      <point x="950" y="691" type="line"/>
      <point x="50" y="691" type="line"/>
      <point x="50" y="575" type="line"/>
    </contour>
    <contour>
      <point x="578" y="718" type="line"/>
      <point x="549" y="766"/>
      <point x="515" y="813"/>
      <point x="481" y="849" type="curve"/>
      <point x="371" y="791" type="line"/>
      <point x="412" y="749"/>
      <point x="440" y="710"/>
      <point x="468" y="663" type="curve"/>
    </contour>
  </outline>
</glyph>
<glyph name="uni6B20" format="2">
  <advance width="1000"/>
  <unicode hex="2F4B"/>
  <unicode hex="6B20"/>
  <outline>
    <contour>
      <point x="138" y="324" type="line"/>
      <point x="281" y="469"/>
      <point x="366" y="653"/>
      <point x="406" y="824" type="curve"/>
      <point x="279" y="842" type="line"/>
      <point x="240" y="677"/>
      <point x="160" y="539"/>
      <point x="39" y="416" type="curve"/>
    </contour>
    <contour>
      <point x="96" y="-77" type="line"/>
      <point x="413" y="80"/>
      <point x="471" y="156"/>
      <point x="491" y="332" type="curve"/>
      <point x="501" y="332" type="line"/>
      <point x="521" y="156"/>
      <point x="590" y="80"/>
      <point x="907" y="-77" type="curve"/>
      <point x="967" y="41" type="line"/>
      <point x="650" y="183"/>
      <point x="558" y="282"/>
      <point x="558" y="481" type="curve" smooth="yes"/>
      <point x="558" y="524" type="line"/>
      <point x="428" y="524" type="line"/>
      <point x="428" y="481" type="line" smooth="yes"/>
      <point x="428" y="282"/>
      <point x="353" y="184"/>
      <point x="35" y="41" type="curve"/>
    </contour>
    <contour>
      <point x="785" y="581" type="line"/>
      <point x="763" y="521"/>
      <point x="722" y="452"/>
      <point x="664" y="385" type="curve"/>
      <point x="766" y="310" type="line"/>
      <point x="841" y="399"/>
      <point x="901" y="513"/>
      <point x="924" y="607" type="curve"/>
      <point x="924" y="699" type="line"/>
      <point x="313" y="699" type="line"/>
      <point x="313" y="581" type="line"/>
    </contour>
  </outline>
</glyph>
<glyph name="uni6B62" format="2">
  <advance width="1000"/>
  <unicode hex="2F4C"/>
  <unicode hex="6B62"/>
  <outline>
    <contour>
      <point x="953" y="-40" type="line"/>
      <point x="953" y="80" type="line"/>
      <point x="47" y="80" type="line"/>
      <point x="47" y="-40" type="line"/>
    </contour>
    <contour>
      <point x="317" y="39" type="line"/>
      <point x="317" y="677" type="line"/>
      <point x="187" y="677" type="line"/>
      <point x="187" y="39" type="line"/>
    </contour>
    <contour>
      <point x="605" y="39" type="line"/>
      <point x="605" y="830" type="line"/>
      <point x="475" y="830" type="line"/>
      <point x="475" y="39" type="line"/>
    </contour>
    <contour>
      <point x="918" y="409" type="line"/>
      <point x="918" y="529" type="line"/>
      <point x="558" y="529" type="line"/>
      <point x="558" y="409" type="line"/>
    </contour>
  </outline>
</glyph>
<glyph name="uni6BCB" format="2">
  <advance width="1000"/>
  <unicode hex="2F4F"/>
  <unicode hex="6BCB"/>
  <outline>
    <contour>
      <point x="667" y="-80" type="line" smooth="yes"/>
      <point x="769" y="-80"/>
      <point x="808" y="-51"/>
      <point x="828" y="43" type="curve" smooth="yes"/>
      <point x="859" y="193"/>
      <point x="873" y="428"/>
      <point x="873" y="686" type="curve" smooth="yes"/>
      <point x="873" y="816" type="line"/>
      <point x="164" y="816" type="line"/>
      <point x="158" y="578"/>
      <point x="141" y="362"/>
      <point x="98" y="126" type="curve"/>
      <point x="944" y="126" type="line"/>
      <point x="944" y="234" type="line"/>
      <point x="239" y="234" type="line"/>
      <point x="263" y="391"/>
      <point x="276" y="549"/>
      <point x="284" y="710" type="curve"/>
      <point x="745" y="710" type="line"/>
      <point x="745" y="676" type="line" smooth="yes"/>
      <point x="745" y="459"/>
      <point x="738" y="222"/>
      <point x="704" y="76" type="curve" smooth="yes"/>
      <point x="696" y="42"/>
      <point x="688" y="33"/>
      <point x="656" y="33" type="curve" smooth="yes"/>
      <point x="517" y="33" type="line"/>
      <point x="548" y="-80" type="line"/>
    </contour>
    <contour>
      <point x="960" y="418" type="line"/>
      <point x="960" y="526" type="line"/>
      <point x="40" y="526" type="line"/>
      <point x="40" y="418" type="line"/>
    </contour>
    <contour>
      <point x="140" y="-97" type="line"/>
      <point x="502" y="17"/>
      <point x="566" y="126"/>
      <point x="572" y="731" type="curve"/>
      <point x="454" y="731" type="line"/>
      <point x="448" y="155"/>
      <point x="409" y="104"/>
      <point x="95" y="17" type="curve"/>
    </contour>
  </outline>
</glyph>
<glyph name="uni6BD4" format="2">
  <advance width="1000"/>
  <unicode hex="2F50"/>
  <unicode hex="6BD4"/>
  <outline>
    <contour>
      <point x="220" y="439" type="line"/>
      <point x="456" y="439" type="line"/>
      <point x="456" y="558" type="line"/>
      <point x="220" y="558" type="line"/>
    </contour>
    <contour>
      <point x="229" y="41" type="line"/>
      <point x="229" y="840" type="line"/>
      <point x="102" y="840" type="line"/>
      <point x="102" y="113" type="line" smooth="yes"/>
      <point x="102" y="67"/>
      <point x="92" y="45"/>
      <point x="56" y="30" type="curve"/>
    </contour>
    <contour>
      <point x="91" y="-88" type="line"/>
      <point x="213" y="-46"/>
      <point x="365" y="10"/>
      <point x="475" y="57" type="curve"/>
      <point x="456" y="173" type="line"/>
      <point x="344" y="127"/>
      <point x="182" y="70"/>
      <point x="56" y="30" type="curve"/>
    </contour>
    <contour>
      <point x="836" y="-69" type="line" smooth="yes"/>
      <point x="923" y="-69"/>
      <point x="956" y="-36"/>
      <point x="956" y="51" type="curve" smooth="yes"/>
      <point x="956" y="241" type="line"/>
      <point x="839" y="275" type="line"/>
      <point x="839" y="50" type="line"/>
      <point x="687" y="50" type="line" smooth="yes"/>
      <point x="649" y="50"/>
      <point x="638" y="58"/>
      <point x="638" y="96" type="curve" smooth="yes"/>
      <point x="638" y="840" type="line"/>
      <point x="513" y="840" type="line"/>
      <point x="513" y="73" type="line" smooth="yes"/>
      <point x="513" y="-29"/>
      <point x="557" y="-69"/>
      <point x="658" y="-69" type="curve" smooth="yes"/>
    </contour>
    <contour>
      <point x="594" y="386" type="line"/>
      <point x="723" y="437"/>
      <point x="869" y="523"/>
      <point x="960" y="603" type="curve"/>
      <point x="879" y="700" type="line"/>
      <point x="798" y="625"/>
      <point x="683" y="543"/>
      <point x="559" y="503" type="curve"/>
    </contour>
  </outline>
</glyph>
<glyph name="uni6BDB" format="2">
  <advance width="1000"/>
  <unicode hex="2F51"/>
  <unicode hex="6BDB"/>
  <outline>
    <contour>
      <point x="893" y="586" type="line"/>
      <point x="81" y="544" type="line"/>
      <point x="88" y="432" type="line"/>
      <point x="900" y="475" type="line"/>
    </contour>
    <contour>
      <point x="946" y="364" type="line"/>
      <point x="41" y="317" type="line"/>
      <point x="49" y="203" type="line"/>
      <point x="954" y="253" type="line"/>
    </contour>
    <contour>
      <point x="840" y="838" type="line"/>
      <point x="633" y="781"/>
      <point x="365" y="767"/>
      <point x="105" y="767" type="curve"/>
      <point x="128" y="655" type="line"/>
      <point x="377" y="655"/>
      <point x="676" y="670"/>
      <point x="898" y="731" type="curve"/>
    </contour>
    <contour>
      <point x="812" y="-70" type="line" smooth="yes"/>
      <point x="912" y="-70"/>
      <point x="946" y="-40"/>
      <point x="946" y="60" type="curve" smooth="yes"/>
      <point x="946" y="154" type="line"/>
      <point x="828" y="181" type="line"/>
      <point x="828" y="47" type="line"/>
      <point x="571" y="47" type="line" smooth="yes"/>
      <point x="511" y="47"/>
      <point x="501" y="57"/>
      <point x="501" y="117" type="curve" smooth="yes"/>
      <point x="501" y="730" type="line"/>
      <point x="377" y="730" type="line"/>
      <point x="377" y="90" type="line" smooth="yes"/>
      <point x="377" y="-30"/>
      <point x="421" y="-70"/>
      <point x="541" y="-70" type="curve" smooth="yes"/>
    </contour>
  </outline>
</glyph>
<glyph name="uni6C0F" format="2">
  <advance width="1000"/>
  <unicode hex="2F52"/>
  <unicode hex="6C0F"/>
  <outline>
    <contour>
      <point x="211" y="382" type="line"/>
      <point x="931" y="382" type="line"/>
      <point x="931" y="496" type="line"/>
      <point x="211" y="496" type="line"/>
    </contour>
    <contour>
      <point x="779" y="-57" type="curve" smooth="yes"/>
      <point x="857" y="-95"/>
      <point x="935" y="-74"/>
      <point x="941" y="8" type="curve" smooth="yes"/>
      <point x="956" y="207" type="line"/>
      <point x="845" y="247" type="line"/>
      <point x="833" y="50" type="line"/>
      <point x="703" y="136"/>
      <point x="619" y="282"/>
      <point x="619" y="675" type="curve" smooth="yes"/>
      <point x="619" y="744" type="line"/>
      <point x="495" y="744" type="line"/>
      <point x="495" y="665" type="line" smooth="yes"/>
      <point x="495" y="253"/>
      <point x="601" y="28"/>
    </contour>
    <contour>
      <point x="115" y="-70" type="line"/>
      <point x="282" y="-41"/>
      <point x="410" y="-15"/>
      <point x="528" y="18" type="curve"/>
      <point x="508" y="130" type="line"/>
      <point x="373" y="94"/>
      <point x="247" y="70"/>
      <point x="86" y="43" type="curve"/>
    </contour>
    <contour>
      <point x="253" y="29" type="line"/>
      <point x="253" y="665" type="line"/>
      <point x="477" y="671"/>
      <point x="698" y="685"/>
      <point x="899" y="732" type="curve"/>
      <point x="839" y="841" type="line"/>
      <point x="644" y="797"/>
      <point x="422" y="781"/>
      <point x="125" y="777" type="curve"/>
      <point x="125" y="98" type="line" smooth="yes"/>
      <point x="125" y="63"/>
      <point x="116" y="52"/>
      <point x="86" y="43" type="curve"/>
    </contour>
  </outline>
</glyph>
<glyph name="uni6C14" format="2">
  <advance width="1000"/>
  <unicode hex="2F53"/>
  <unicode hex="6C14"/>
  <outline>
    <contour>
      <point x="125" y="452" type="line"/>
      <point x="233" y="543"/>
      <point x="314" y="685"/>
      <point x="358" y="812" type="curve"/>
      <point x="235" y="836" type="line"/>
      <point x="194" y="723"/>
      <point x="127" y="622"/>
      <point x="40" y="545" type="curve"/>
    </contour>
    <contour>
      <point x="873" y="477" type="line"/>
      <point x="873" y="579" type="line"/>
      <point x="225" y="579" type="line"/>
      <point x="225" y="477" type="line"/>
    </contour>
    <contour>
      <point x="920" y="639" type="line"/>
      <point x="920" y="747" type="line"/>
      <point x="258" y="747" type="line"/>
      <point x="258" y="639" type="line"/>
    </contour>
    <contour>
      <point x="841" y="46" type="line"/>
      <point x="814" y="91"/>
      <point x="784" y="182"/>
      <point x="784" y="335" type="curve" smooth="yes"/>
      <point x="784" y="413" type="line"/>
      <point x="82" y="413" type="line"/>
      <point x="82" y="303" type="line"/>
      <point x="666" y="303" type="line"/>
      <point x="666" y="277" type="line" smooth="yes"/>
      <point x="666" y="148"/>
      <point x="699" y="24"/>
      <point x="756" y="-37" type="curve" smooth="yes"/>
      <point x="828" y="-115"/>
      <point x="925" y="-92"/>
      <point x="938" y="5" type="curve" smooth="yes"/>
      <point x="959" y="165" type="line"/>
      <point x="855" y="214" type="line"/>
    </contour>
  </outline>
</glyph>
<glyph name="uni6C34" format="2">
  <advance width="1000"/>
  <unicode hex="2F54"/>
  <unicode hex="6C34"/>
  <outline>
    <contour>
      <point x="418" y="-59" type="line" smooth="yes"/>
      <point x="518" y="-59"/>
      <point x="562" y="-19"/>
      <point x="562" y="81" type="curve" smooth="yes"/>
      <point x="562" y="424" type="line"/>
      <point x="572" y="424" type="line"/>
      <point x="595" y="261"/>
      <point x="691" y="179"/>
      <point x="887" y="24" type="curve"/>
      <point x="970" y="135" type="line"/>
      <point x="645" y="354"/>
      <point x="562" y="563"/>
      <point x="562" y="752" type="curve" smooth="yes"/>
      <point x="562" y="840" type="line"/>
      <point x="434" y="840" type="line"/>
      <point x="434" y="63" type="line"/>
      <point x="259" y="63" type="line"/>
      <point x="296" y="-59" type="line"/>
    </contour>
    <contour>
      <point x="656" y="353" type="line"/>
      <point x="765" y="430"/>
      <point x="875" y="531"/>
      <point x="949" y="625" type="curve"/>
      <point x="845" y="711" type="line"/>
      <point x="770" y="615"/>
      <point x="690" y="530"/>
      <point x="584" y="458" type="curve"/>
    </contour>
    <contour>
      <point x="265" y="527" type="line"/>
      <point x="244" y="380"/>
      <point x="184" y="257"/>
      <point x="25" y="121" type="curve"/>
      <point x="117" y="24" type="line"/>
      <point x="299" y="195"/>
      <point x="369" y="352"/>
      <point x="389" y="544" type="curve"/>
      <point x="389" y="643" type="line"/>
      <point x="52" y="643" type="line"/>
      <point x="52" y="527" type="line"/>
    </contour>
  </outline>
</glyph>
<glyph name="uni706B" format="2">
  <advance width="1000"/>
  <unicode hex="2F55"/>
  <unicode hex="706B"/>
  <outline>
    <contour>
      <point x="104" y="-80" type="line"/>
      <point x="350" y="69"/>
      <point x="470" y="167"/>
      <point x="490" y="384" type="curve"/>
      <point x="500" y="384" type="line"/>
      <point x="520" y="169"/>
      <point x="647" y="69"/>
      <point x="897" y="-80" type="curve"/>
      <point x="969" y="40" type="line"/>
      <point x="638" y="222"/>
      <point x="558" y="344"/>
      <point x="558" y="561" type="curve" smooth="yes"/>
      <point x="558" y="830" type="line"/>
      <point x="426" y="830" type="line"/>
      <point x="426" y="561" type="line" smooth="yes"/>
      <point x="426" y="344"/>
      <point x="358" y="223"/>
      <point x="31" y="40" type="curve"/>
    </contour>
    <contour>
      <point x="185" y="324" type="line"/>
      <point x="247" y="430"/>
      <point x="287" y="558"/>
      <point x="307" y="667" type="curve"/>
      <point x="177" y="701" type="line"/>
      <point x="157" y="586"/>
      <point x="117" y="473"/>
      <point x="64" y="385" type="curve"/>
    </contour>
    <contour>
      <point x="786" y="344" type="line"/>
      <point x="847" y="445"/>
      <point x="893" y="554"/>
      <point x="923" y="664" type="curve"/>
      <point x="797" y="709" type="line"/>
      <point x="770" y="607"/>
      <point x="728" y="498"/>
      <point x="665" y="408" type="curve"/>
    </contour>
  </outline>
</glyph>
<glyph name="uni722A" format="2">
  <advance width="1000"/>
  <unicode hex="2F56"/>
  <unicode hex="722A"/>
  <outline>
    <contour>
      <point x="556" y="-62" type="line"/>
      <point x="556" y="698" type="line"/>
      <point x="428" y="698" type="line"/>
      <point x="428" y="-62" type="line"/>
    </contour>
    <contour>
      <point x="729" y="740" type="line"/>
      <point x="729" y="618" type="line" smooth="yes"/>
      <point x="729" y="325"/>
      <point x="768" y="99"/>
      <point x="873" y="-86" type="curve"/>
      <point x="971" y="21" type="line"/>
      <point x="884" y="183"/>
      <point x="853" y="345"/>
      <point x="853" y="620" type="curve" smooth="yes"/>
      <point x="853" y="740" type="line"/>
    </contour>
    <contour>
      <point x="131" y="-86" type="line"/>
      <point x="238" y="103"/>
      <point x="259" y="300"/>
      <point x="259" y="609" type="curve" smooth="yes"/>
      <point x="259" y="682" type="line"/>
      <point x="241" y="650" type="line"/>
      <point x="477" y="657"/>
      <point x="734" y="665"/>
      <point x="912" y="726" type="curve"/>
      <point x="849" y="840" type="line"/>
      <point x="643" y="775"/>
      <point x="394" y="768"/>
      <point x="135" y="765" type="curve"/>
      <point x="135" y="609" type="line" smooth="yes"/>
      <point x="135" y="336"/>
      <point x="120" y="176"/>
      <point x="34" y="17" type="curve"/>
    </contour>
  </outline>
</glyph>
<glyph name="uni7236" format="2">
  <advance width="1000"/>
  <unicode hex="2F57"/>
  <unicode hex="7236"/>
  <outline>
    <contour>
      <point x="328" y="831" type="line"/>
      <point x="260" y="730"/>
      <point x="160" y="623"/>
      <point x="34" y="542" type="curve"/>
      <point x="109" y="444" type="line"/>
      <point x="245" y="529"/>
      <point x="351" y="650"/>
      <point x="433" y="767" type="curve"/>
    </contour>
    <contour>
      <point x="961" y="524" type="line"/>
      <point x="862" y="637"/>
      <point x="755" y="745"/>
      <point x="654" y="830" type="curve"/>
      <point x="569" y="751" type="line"/>
      <point x="666" y="668"/>
      <point x="772" y="560"/>
      <point x="868" y="442" type="curve"/>
    </contour>
    <contour>
      <point x="971" y="38" type="line"/>
      <point x="666" y="139"/>
      <point x="486" y="285"/>
      <point x="348" y="534" type="curve"/>
      <point x="240" y="465" type="line"/>
      <point x="380" y="207"/>
      <point x="615" y="14"/>
      <point x="910" y="-81" type="curve"/>
    </contour>
    <contour>
      <point x="94" y="-78" type="line"/>
      <point x="400" y="13"/>
      <point x="622" y="191"/>
      <point x="762" y="474" type="curve"/>
      <point x="651" y="536" type="line"/>
      <point x="519" y="271"/>
      <point x="336" y="134"/>
      <point x="33" y="43" type="curve"/>
    </contour>
  </outline>
</glyph>
<glyph name="uni723B" format="2">
  <advance width="1000"/>
  <unicode hex="2F58"/>
  <unicode hex="723B"/>
  <outline>
    <contour>
      <point x="963" y="35" type="line"/>
      <point x="660" y="94"/>
      <point x="460" y="227"/>
      <point x="329" y="439" type="curve"/>
      <point x="216" y="388" type="line"/>
      <point x="352" y="163"/>
      <point x="623" y="-28"/>
      <point x="916" y="-80" type="curve"/>
    </contour>
    <contour>
      <point x="81" y="-80" type="line"/>
      <point x="386" y="-39"/>
      <point x="653" y="158"/>
      <point x="776" y="401" type="curve"/>
      <point x="667" y="453" type="line"/>
      <point x="550" y="224"/>
      <point x="335" y="85"/>
      <point x="39" y="36" type="curve"/>
    </contour>
    <contour>
      <point x="92" y="396" type="line"/>
      <point x="418" y="476"/>
      <point x="629" y="578"/>
      <point x="849" y="777" type="curve"/>
      <point x="757" y="854" type="line"/>
      <point x="562" y="677"/>
      <point x="362" y="575"/>
      <point x="47" y="509" type="curve"/>
    </contour>
    <contour>
      <point x="933" y="502" type="line"/>
      <point x="671" y="644"/>
      <point x="396" y="754"/>
      <point x="163" y="828" type="curve"/>
      <point x="107" y="731" type="line"/>
      <point x="359" y="651"/>
      <point x="611" y="538"/>
      <point x="870" y="396" type="curve"/>
    </contour>
  </outline>
</glyph>
<glyph name="uni723F" format="2">
  <advance width="1000"/>
  <unicode hex="2F59"/>
  <unicode hex="723F"/>
  <outline>
    <contour>
      <point x="784" y="260" type="line"/>
      <point x="784" y="378" type="line"/>
      <point x="98" y="378" type="line"/>
      <point x="98" y="260" type="line"/>
    </contour>
    <contour>
      <point x="725" y="838" type="line"/>
      <point x="725" y="-76" type="line"/>
      <point x="853" y="-76" type="line"/>
      <point x="853" y="838" type="line"/>
    </contour>
    <contour>
      <point x="157" y="-80" type="line"/>
      <point x="362" y="11"/>
      <point x="451" y="128"/>
      <point x="451" y="325" type="curve" smooth="yes"/>
      <point x="451" y="351" type="line"/>
      <point x="325" y="351" type="line"/>
      <point x="325" y="318" type="line" smooth="yes"/>
      <point x="325" y="176"/>
      <point x="263" y="100"/>
      <point x="87" y="27" type="curve"/>
    </contour>
    <contour>
      <point x="792" y="488" type="line"/>
      <point x="792" y="606" type="line"/>
      <point x="327" y="606" type="line"/>
      <point x="327" y="814" type="line"/>
      <point x="199" y="814" type="line"/>
      <point x="199" y="488" type="line"/>
    </contour>
  </outline>
</glyph>
<glyph name="uni7247" format="2">
  <advance width="1000"/>
  <unicode hex="2F5A"/>
  <unicode hex="7247"/>
  <outline>
    <contour>
      <point x="944" y="484" type="line"/>
      <point x="944" y="602" type="line"/>
      <point x="222" y="602" type="line"/>
      <point x="222" y="484" type="line"/>
    </contour>
    <contour>
      <point x="669" y="570" type="line"/>
      <point x="669" y="840" type="line"/>
      <point x="541" y="840" type="line"/>
      <point x="541" y="570" type="line"/>
    </contour>
    <contour>
      <point x="151" y="-86" type="line"/>
      <point x="252" y="86"/>
      <point x="274" y="267"/>
      <point x="274" y="553" type="curve" smooth="yes"/>
      <point x="274" y="824" type="line"/>
      <point x="146" y="824" type="line"/>
      <point x="146" y="554" type="line" smooth="yes"/>
      <point x="146" y="301"/>
      <point x="128" y="157"/>
      <point x="42" y="15" type="curve"/>
    </contour>
    <contour>
      <point x="649" y="230" type="line"/>
      <point x="649" y="-80" type="line"/>
      <point x="779" y="-80" type="line"/>
      <point x="779" y="348" type="line"/>
      <point x="222" y="348" type="line"/>
      <point x="222" y="230" type="line"/>
    </contour>
  </outline>
</glyph>
<glyph name="uni74E6" format="2">
  <advance width="1000"/>
  <unicode hex="2F61"/>
  <unicode hex="74E6"/>
  <outline>
    <contour>
      <point x="835" y="-69" type="line" smooth="yes"/>
      <point x="928" y="-69"/>
      <point x="960" y="-39"/>
      <point x="960" y="61" type="curve" smooth="yes"/>
      <point x="960" y="201" type="line"/>
      <point x="846" y="231" type="line"/>
      <point x="846" y="50" type="line"/>
      <point x="781" y="50" type="line" smooth="yes"/>
      <point x="761" y="50"/>
      <point x="754" y="51"/>
      <point x="755" y="73" type="curve" smooth="yes"/>
      <point x="783" y="587" type="line"/>
      <point x="318" y="587" type="line"/>
      <point x="318" y="477" type="line"/>
      <point x="658" y="477" type="line"/>
      <point x="636" y="71" type="line" smooth="yes"/>
      <point x="630" y="-31"/>
      <point x="663" y="-69"/>
      <point x="753" y="-69" type="curve" smooth="yes"/>
    </contour>
    <contour>
      <point x="130" y="-59" type="line"/>
      <point x="294" y="-42"/>
      <point x="459" y="-22"/>
      <point x="596" y="4" type="curve"/>
      <point x="593" y="115" type="line"/>
      <point x="453" y="94"/>
      <point x="279" y="74"/>
      <point x="108" y="59" type="curve"/>
    </contour>
    <contour>
      <point x="257" y="13" type="line"/>
      <point x="305" y="229"/>
      <point x="351" y="483"/>
      <point x="379" y="717" type="curve"/>
      <point x="254" y="717" type="line"/>
      <point x="232" y="515"/>
      <point x="203" y="299"/>
      <point x="153" y="100" type="curve" smooth="yes"/>
      <point x="147" y="77"/>
      <point x="134" y="64"/>
      <point x="108" y="59" type="curve"/>
    </contour>
    <contour>
      <point x="603" y="240" type="line"/>
      <point x="554" y="311"/>
      <point x="504" y="373"/>
      <point x="450" y="429" type="curve"/>
      <point x="359" y="357" type="line"/>
      <point x="418" y="291"/>
      <point x="460" y="235"/>
      <point x="508" y="163" type="curve"/>
    </contour>
    <contour>
      <point x="946" y="684" type="line"/>
      <point x="946" y="800" type="line"/>
      <point x="54" y="800" type="line"/>
      <point x="54" y="684" type="line"/>
    </contour>
  </outline>
</glyph>
<glyph name="uni7518" format="2">
  <advance width="1000"/>
  <unicode hex="2F62"/>
  <unicode hex="7518"/>
  <outline>
    <contour>
      <point x="953" y="540" type="line"/>
      <point x="953" y="656" type="line"/>
      <point x="47" y="656" type="line"/>
      <point x="47" y="540" type="line"/>
    </contour>
    <contour>
      <point x="315" y="-78" type="line"/>
      <point x="315" y="-11" type="line"/>
      <point x="683" y="-11" type="line"/>
      <point x="683" y="-78" type="line"/>
      <point x="808" y="-78" type="line"/>
      <point x="808" y="822" type="line"/>
      <point x="683" y="822" type="line"/>
      <point x="683" y="105" type="line"/>
      <point x="315" y="105" type="line"/>
      <point x="315" y="822" type="line"/>
      <point x="190" y="822" type="line"/>
      <point x="190" y="-78" type="line"/>
    </contour>
    <contour>
      <point x="724" y="271" type="line"/>
      <point x="724" y="383" type="line"/>
      <point x="273" y="383" type="line"/>
      <point x="273" y="271" type="line"/>
    </contour>
  </outline>
</glyph>
<glyph name="uni751F" format="2">
  <advance width="1000"/>
  <unicode hex="2F63"/>
  <unicode hex="751F"/>
  <outline>
    <contour>
      <point x="117" y="357" type="line"/>
      <point x="233" y="502"/>
      <point x="302" y="659"/>
      <point x="335" y="804" type="curve"/>
      <point x="209" y="829" type="line"/>
      <point x="176" y="695"/>
      <point x="124" y="572"/>
      <point x="22" y="453" type="curve"/>
    </contour>
    <contour>
      <point x="953" y="-40" type="line"/>
      <point x="953" y="78" type="line"/>
      <point x="47" y="78" type="line"/>
      <point x="47" y="-40" type="line"/>
    </contour>
    <contour>
      <point x="886" y="273" type="line"/>
      <point x="886" y="389" type="line"/>
      <point x="149" y="389" type="line"/>
      <point x="149" y="273" type="line"/>
    </contour>
    <contour>
      <point x="573" y="32" type="line"/>
      <point x="573" y="840" type="line"/>
      <point x="447" y="840" type="line"/>
      <point x="447" y="32" type="line"/>
    </contour>
    <contour>
      <point x="932" y="561" type="line"/>
      <point x="932" y="677" type="line"/>
      <point x="212" y="677" type="line"/>
      <point x="212" y="561" type="line"/>
    </contour>
  </outline>
</glyph>
<glyph name="uni7530" format="2">
  <advance width="1000"/>
  <unicode hex="2F65"/>
  <unicode hex="7530"/>
  <outline>
    <contour>
      <point x="196" y="-75" type="line"/>
      <point x="196" y="-15" type="line"/>
      <point x="804" y="-15" type="line"/>
      <point x="804" y="-75" type="line"/>
      <point x="928" y="-75" type="line"/>
      <point x="928" y="805" type="line"/>
      <point x="72" y="805" type="line"/>
      <point x="72" y="-75" type="line"/>
    </contour>
    <contour>
      <point x="844" y="343" type="line"/>
      <point x="844" y="453" type="line"/>
      <point x="134" y="453" type="line"/>
      <point x="134" y="343" type="line"/>
    </contour>
    <contour>
      <point x="552" y="54" type="line"/>
      <point x="552" y="745" type="line"/>
      <point x="432" y="745" type="line"/>
      <point x="432" y="54" type="line"/>
    </contour>
    <contour>
      <point x="196" y="693" type="line"/>
      <point x="804" y="693" type="line"/>
      <point x="804" y="97" type="line"/>
      <point x="196" y="97" type="line"/>
    </contour>
  </outline>
</glyph>
<glyph name="uni7592" format="2">
  <advance width="1000"/>
  <unicode hex="2F67"/>
  <unicode hex="7592"/>
  <outline>
    <contour>
      <point x="960" y="642" type="line"/>
      <point x="960" y="753" type="line"/>
      <point x="201" y="753" type="line"/>
      <point x="201" y="534" type="line" smooth="yes"/>
      <point x="201" y="252"/>
      <point x="173" y="152"/>
      <point x="48" y="15" type="curve"/>
      <point x="141" y="-81" type="line"/>
      <point x="285" y="68"/>
      <point x="324" y="282"/>
      <point x="324" y="555" type="curve" smooth="yes"/>
      <point x="324" y="642" type="line"/>
    </contour>
    <contour>
      <point x="60" y="187" type="line"/>
      <point x="134" y="216"/>
      <point x="180" y="246"/>
      <point x="245" y="299" type="curve"/>
      <point x="234" y="411" type="line"/>
      <point x="167" y="358"/>
      <point x="102" y="325"/>
      <point x="25" y="292" type="curve"/>
    </contour>
    <contour>
      <point x="210" y="475" type="line"/>
      <point x="188" y="545"/>
      <point x="155" y="614"/>
      <point x="125" y="666" type="curve"/>
      <point x="25" y="610" type="line"/>
      <point x="61" y="549"/>
      <point x="91" y="489"/>
      <point x="116" y="420" type="curve"/>
    </contour>
    <contour>
      <point x="656" y="719" type="line"/>
      <point x="639" y="768"/>
      <point x="612" y="823"/>
      <point x="591" y="855" type="curve"/>
      <point x="468" y="826" type="line"/>
      <point x="491" y="791"/>
      <point x="525" y="729"/>
      <point x="538" y="694" type="curve"/>
    </contour>
  </outline>
</glyph>
<glyph name="uni767D" format="2">
  <advance width="1000"/>
  <unicode hex="2F69"/>
  <unicode hex="767D"/>
  <outline>
    <contour>
      <point x="234" y="-72" type="line"/>
      <point x="234" y="-18" type="line"/>
      <point x="766" y="-18" type="line"/>
      <point x="766" y="-72" type="line"/>
      <point x="894" y="-72" type="line"/>
      <point x="894" y="696" type="line"/>
      <point x="108" y="696" type="line"/>
      <point x="108" y="-72" type="line"/>
    </contour>
    <contour>
      <point x="234" y="580" type="line"/>
      <point x="766" y="580" type="line"/>
      <point x="766" y="98" type="line"/>
      <point x="234" y="98" type="line"/>
    </contour>
    <contour>
      <point x="798" y="288" type="line"/>
      <point x="798" y="402" type="line"/>
      <point x="201" y="402" type="line"/>
      <point x="201" y="288" type="line"/>
    </contour>
    <contour>
      <point x="479" y="636" type="line"/>
      <point x="530" y="697"/>
      <point x="562" y="753"/>
      <point x="585" y="815" type="curve"/>
      <point x="438" y="840" type="line"/>
      <point x="418" y="771"/>
      <point x="386" y="702"/>
      <point x="344" y="636" type="curve"/>
    </contour>
  </outline>
</glyph>
<glyph name="uni76AE" format="2">
  <advance width="1000"/>
  <unicode hex="2F6A"/>
  <unicode hex="76AE"/>
  <outline>
    <contour>
      <point x="460" y="840" type="line"/>
      <point x="460" y="455" type="line"/>
      <point x="582" y="455" type="line"/>
      <point x="582" y="840" type="line"/>
    </contour>
    <contour>
      <point x="281" y="311" type="line"/>
      <point x="439" y="109"/>
      <point x="591" y="10"/>
      <point x="913" y="-83" type="curve"/>
      <point x="951" y="30" type="line"/>
      <point x="655" y="114"/>
      <point x="513" y="202"/>
      <point x="380" y="371" type="curve"/>
    </contour>
    <contour>
      <point x="862" y="499" type="line"/>
      <point x="191" y="499" type="line"/>
      <point x="191" y="387" type="line"/>
      <point x="765" y="387" type="line"/>
      <point x="739" y="415" type="line"/>
      <point x="685" y="236"/>
      <point x="468" y="94"/>
      <point x="193" y="29" type="curve"/>
      <point x="243" y="-83" type="line"/>
      <point x="571" y="6"/>
      <point x="780" y="166"/>
      <point x="862" y="419" type="curve"/>
    </contour>
    <contour>
      <point x="138" y="-80" type="line"/>
      <point x="215" y="74"/>
      <point x="245" y="252"/>
      <point x="245" y="492" type="curve" smooth="yes"/>
      <point x="245" y="637" type="line"/>
      <point x="845" y="637" type="line"/>
      <point x="824" y="661" type="line"/>
      <point x="812" y="622"/>
      <point x="776" y="577"/>
      <point x="749" y="544" type="curve"/>
      <point x="854" y="495" type="line"/>
      <point x="889" y="545"/>
      <point x="921" y="603"/>
      <point x="936" y="659" type="curve"/>
      <point x="936" y="749" type="line"/>
      <point x="123" y="749" type="line"/>
      <point x="123" y="513" type="line" smooth="yes"/>
      <point x="123" y="287"/>
      <point x="104" y="157"/>
      <point x="37" y="23" type="curve"/>
    </contour>
  </outline>
</glyph>
<glyph name="uni76BF" format="2">
  <advance width="1000"/>
  <unicode hex="2F6B"/>
  <unicode hex="76BF"/>
  <outline>
    <contour>
      <point x="221" y="41" type="line"/>
      <point x="221" y="673" type="line"/>
      <point x="779" y="673" type="line"/>
      <point x="779" y="41" type="line"/>
      <point x="899" y="41" type="line"/>
      <point x="899" y="783" type="line"/>
      <point x="101" y="783" type="line"/>
      <point x="101" y="41" type="line"/>
    </contour>
    <contour>
      <point x="960" y="-33" type="line"/>
      <point x="960" y="80" type="line"/>
      <point x="40" y="80" type="line"/>
      <point x="40" y="-33" type="line"/>
    </contour>
    <contour>
      <point x="444" y="34" type="line"/>
      <point x="444" y="751" type="line"/>
      <point x="328" y="751" type="line"/>
      <point x="328" y="34" type="line"/>
    </contour>
    <contour>
      <point x="663" y="34" type="line"/>
      <point x="663" y="751" type="line"/>
      <point x="547" y="751" type="line"/>
      <point x="547" y="34" type="line"/>
    </contour>
  </outline>
</glyph>
<glyph name="uni79BE" format="2">
  <advance width="1000"/>
  <unicode hex="2F72"/>
  <unicode hex="79BE"/>
  <outline>
    <contour>
      <point x="552" y="-80" type="line"/>
      <point x="552" y="347" type="line"/>
      <point x="562" y="347" type="line"/>
      <point x="582" y="227"/>
      <point x="655" y="154"/>
      <point x="902" y="-1" type="curve"/>
      <point x="972" y="105" type="line"/>
      <point x="718" y="254"/>
      <point x="616" y="334"/>
      <point x="572" y="503" type="curve"/>
      <point x="552" y="503" type="line"/>
      <point x="552" y="761" type="line"/>
      <point x="430" y="761" type="line"/>
      <point x="430" y="503" type="line"/>
      <point x="410" y="503" type="line"/>
      <point x="370" y="349"/>
      <point x="272" y="256"/>
      <point x="28" y="107" type="curve"/>
      <point x="102" y="-1" type="line"/>
      <point x="339" y="154"/>
      <point x="400" y="227"/>
      <point x="420" y="347" type="curve"/>
      <point x="430" y="347" type="line"/>
      <point x="430" y="-80" type="line"/>
    </contour>
    <contour>
      <point x="941" y="406" type="line"/>
      <point x="941" y="522" type="line"/>
      <point x="59" y="522" type="line"/>
      <point x="59" y="406" type="line"/>
    </contour>
    <contour>
      <point x="120" y="655" type="line"/>
      <point x="358" y="655"/>
      <point x="679" y="671"/>
      <point x="904" y="731" type="curve"/>
      <point x="848" y="841" type="line"/>
      <point x="638" y="790"/>
      <point x="339" y="774"/>
      <point x="96" y="775" type="curve"/>
    </contour>
  </outline>
</glyph>
<glyph name="uni7A74" format="2">
  <advance width="1000"/>
  <unicode hex="2F73"/>
  <unicode hex="7A74"/>
  <outline>
    <contour>
      <point x="973" y="24" type="line"/>
      <point x="799" y="186"/>
      <point x="727" y="306"/>
      <point x="675" y="483" type="curve"/>
      <point x="551" y="444" type="line"/>
      <point x="602" y="262"/>
      <point x="694" y="102"/>
      <point x="868" y="-73" type="curve"/>
    </contour>
    <contour>
      <point x="132" y="-73" type="line"/>
      <point x="297" y="75"/>
      <point x="398" y="262"/>
      <point x="440" y="444" type="curve"/>
      <point x="316" y="483" type="line"/>
      <point x="280" y="306"/>
      <point x="194" y="167"/>
      <point x="27" y="21" type="curve"/>
    </contour>
    <contour>
      <point x="178" y="412" type="line"/>
      <point x="178" y="562" type="line"/>
      <point x="820" y="562" type="line"/>
      <point x="820" y="412" type="line"/>
      <point x="943" y="412" type="line"/>
      <point x="943" y="674" type="line"/>
      <point x="57" y="674" type="line"/>
      <point x="57" y="412" type="line"/>
    </contour>
    <contour>
      <point x="578" y="713" type="line"/>
      <point x="544" y="759"/>
      <point x="505" y="807"/>
      <point x="467" y="841" type="curve"/>
      <point x="364" y="770" type="line"/>
      <point x="409" y="728"/>
      <point x="444" y="691"/>
      <point x="472" y="652" type="curve"/>
    </contour>
  </outline>
</glyph>
<glyph name="uni7AF9" format="2">
  <advance width="1000"/>
  <unicode hex="2F75"/>
  <unicode hex="7AF9"/>
  <outline>
    <contour>
      <point x="716" y="-75" type="line" smooth="yes"/>
      <point x="797" y="-75"/>
      <point x="833" y="-36"/>
      <point x="833" y="46" type="curve" smooth="yes"/>
      <point x="833" y="613" type="line"/>
      <point x="711" y="613" type="line"/>
      <point x="711" y="51" type="line"/>
      <point x="529" y="51" type="line"/>
      <point x="562" y="-75" type="line"/>
    </contour>
    <contour>
      <point x="353" y="-80" type="line"/>
      <point x="353" y="580" type="line"/>
      <point x="231" y="580" type="line"/>
      <point x="231" y="-80" type="line"/>
    </contour>
    <contour>
      <point x="120" y="352" type="line"/>
      <point x="234" y="471"/>
      <point x="329" y="669"/>
      <point x="359" y="818" type="curve"/>
      <point x="240" y="836" type="line"/>
      <point x="205" y="682"/>
      <point x="126" y="548"/>
      <point x="30" y="448" type="curve"/>
    </contour>
    <contour>
      <point x="502" y="547" type="line"/>
      <point x="502" y="659" type="line"/>
      <point x="222" y="659" type="line"/>
      <point x="222" y="547" type="line"/>
    </contour>
    <contour>
      <point x="496" y="351" type="line"/>
      <point x="624" y="498"/>
      <point x="687" y="664"/>
      <point x="722" y="819" type="curve"/>
      <point x="597" y="835" type="line"/>
      <point x="564" y="690"/>
      <point x="502" y="555"/>
      <point x="401" y="440" type="curve"/>
    </contour>
    <contour>
      <point x="960" y="545" type="line"/>
      <point x="960" y="659" type="line"/>
      <point x="596" y="659" type="line"/>
      <point x="596" y="545" type="line"/>
    </contour>
  </outline>
</glyph>
<glyph name="uni7C73" format="2">
  <advance width="1000"/>
  <unicode hex="2F76"/>
  <unicode hex="7C73"/>
  <outline>
    <contour>
      <point x="553" y="-80" type="line"/>
      <point x="553" y="319" type="line"/>
      <point x="563" y="319" type="line"/>
      <point x="583" y="186"/>
      <point x="701" y="103"/>
      <point x="908" y="-25" type="curve"/>
      <point x="973" y="83" type="line"/>
      <point x="776" y="195"/>
      <point x="620" y="306"/>
      <point x="573" y="461" type="curve"/>
      <point x="553" y="461" type="line"/>
      <point x="553" y="840" type="line"/>
      <point x="429" y="840" type="line"/>
      <point x="429" y="461" type="line"/>
      <point x="409" y="461" type="line"/>
      <point x="364" y="306"/>
      <point x="213" y="194"/>
      <point x="27" y="84" type="curve"/>
      <point x="96" y="-24" type="line"/>
      <point x="303" y="103"/>
      <point x="399" y="186"/>
      <point x="419" y="319" type="curve"/>
      <point x="429" y="319" type="line"/>
      <point x="429" y="-80" type="line"/>
    </contour>
    <contour>
      <point x="371" y="599" type="line"/>
      <point x="320" y="677"/>
      <point x="259" y="744"/>
      <point x="198" y="804" type="curve"/>
      <point x="94" y="728" type="line"/>
      <point x="162" y="655"/>
      <point x="216" y="589"/>
      <point x="268" y="517" type="curve"/>
    </contour>
    <contour>
      <point x="941" y="372" type="line"/>
      <point x="941" y="488" type="line"/>
      <point x="51" y="488" type="line"/>
      <point x="51" y="372" type="line"/>
    </contour>
    <contour>
      <point x="716" y="513" type="line"/>
      <point x="784" y="578"/>
      <point x="856" y="677"/>
      <point x="893" y="746" type="curve"/>
      <point x="782" y="812" type="line"/>
      <point x="745" y="739"/>
      <point x="694" y="664"/>
      <point x="622" y="594" type="curve"/>
    </contour>
  </outline>
</glyph>
<glyph name="uni7CF8" format="2">
  <advance width="1000"/>
  <unicode hex="2F77"/>
  <unicode hex="7CF8"/>
  <outline>
    <contour>
      <point x="958" y="296" type="line"/>
      <point x="896" y="375"/>
      <point x="823" y="457"/>
      <point x="740" y="528" type="curve"/>
      <point x="647" y="454" type="line"/>
      <point x="732" y="381"/>
      <point x="793" y="308"/>
      <point x="866" y="214" type="curve"/>
    </contour>
    <contour>
      <point x="238" y="280" type="line"/>
      <point x="448" y="379"/>
      <point x="632" y="508"/>
      <point x="793" y="653" type="curve"/>
      <point x="695" y="734" type="line"/>
      <point x="543" y="579"/>
      <point x="249" y="400"/>
      <point x="100" y="344" type="curve"/>
    </contour>
    <contour>
      <point x="110" y="242" type="line"/>
      <point x="348" y="253"/>
      <point x="593" y="274"/>
      <point x="825" y="301" type="curve"/>
      <point x="791" y="399" type="line"/>
      <point x="594" y="376"/>
      <point x="357" y="358"/>
      <point x="100" y="344" type="curve"/>
    </contour>
    <contour>
      <point x="145" y="500" type="line"/>
      <point x="305" y="501"/>
      <point x="461" y="518"/>
      <point x="634" y="543" type="curve"/>
      <point x="627" y="634" type="line"/>
      <point x="455" y="607"/>
      <point x="299" y="600"/>
      <point x="138" y="600" type="curve"/>
    </contour>
    <contour>
      <point x="257" y="528" type="line"/>
      <point x="370" y="590"/>
      <point x="491" y="702"/>
      <point x="569" y="789" type="curve"/>
      <point x="458" y="856" type="line"/>
      <point x="385" y="763"/>
      <point x="238" y="641"/>
      <point x="138" y="600" type="curve"/>
    </contour>
    <contour>
      <point x="343" y="-74" type="line"/>
      <point x="432" y="-74" type="line" smooth="yes"/>
      <point x="526" y="-74"/>
      <point x="566" y="-34"/>
      <point x="566" y="60" type="curve" smooth="yes"/>
      <point x="566" y="307" type="line"/>
      <point x="440" y="307" type="line"/>
      <point x="440" y="43" type="line"/>
      <point x="310" y="43" type="line"/>
    </contour>
    <contour>
      <point x="108" y="-59" type="line"/>
      <point x="222" y="11"/>
      <point x="305" y="85"/>
      <point x="370" y="177" type="curve"/>
      <point x="270" y="237" type="line"/>
      <point x="213" y="161"/>
      <point x="145" y="101"/>
      <point x="30" y="41" type="curve"/>
    </contour>
    <contour>
      <point x="970" y="30" type="line"/>
      <point x="881" y="113"/>
      <point x="793" y="183"/>
      <point x="712" y="242" type="curve"/>
      <point x="631" y="160" type="line"/>
      <point x="718" y="95"/>
      <point x="803" y="20"/>
      <point x="885" y="-62" type="curve"/>
    </contour>
  </outline>
</glyph>
<glyph name="uni7F36" format="2">
  <advance width="1000"/>
  <unicode hex="2F78"/>
  <unicode hex="7F36"/>
  <outline>
    <contour>
      <point x="953" y="452" type="line"/>
      <point x="47" y="452" type="line"/>
      <point x="47" y="332" type="line"/>
      <point x="953" y="332" type="line"/>
    </contour>
    <contour>
      <point x="554" y="46" type="line"/>
      <point x="554" y="669" type="line"/>
      <point x="430" y="669" type="line"/>
      <point x="430" y="46" type="line"/>
    </contour>
    <contour>
      <point x="909" y="724" type="line"/>
      <point x="207" y="724" type="line"/>
      <point x="207" y="606" type="line"/>
      <point x="909" y="606" type="line"/>
    </contour>
    <contour>
      <point x="777" y="92" type="line"/>
      <point x="234" y="92" type="line"/>
      <point x="234" y="266" type="line"/>
      <point x="110" y="266" type="line"/>
      <point x="110" y="-80" type="line"/>
      <point x="234" y="-80" type="line"/>
      <point x="234" y="-26" type="line"/>
      <point x="777" y="-26" type="line"/>
      <point x="777" y="-80" type="line"/>
      <point x="901" y="-80" type="line"/>
      <point x="901" y="266" type="line"/>
      <point x="777" y="266" type="line"/>
    </contour>
    <contour>
      <point x="147" y="470" type="line"/>
      <point x="242" y="562"/>
      <point x="312" y="703"/>
      <point x="345" y="823" type="curve"/>
      <point x="221" y="842" type="line"/>
      <point x="190" y="738"/>
      <point x="133" y="635"/>
      <point x="46" y="551" type="curve"/>
    </contour>
  </outline>
</glyph>
<glyph name="uni7F51" format="2">
  <advance width="1000"/>
  <unicode hex="2F79"/>
  <unicode hex="7F51"/>
  <outline>
    <contour>
      <point x="820" y="42" type="line"/>
      <point x="646" y="42" type="line"/>
      <point x="674" y="-70" type="line"/>
      <point x="804" y="-70" type="line" smooth="yes"/>
      <point x="895" y="-70"/>
      <point x="938" y="-34"/>
      <point x="938" y="54" type="curve" smooth="yes"/>
      <point x="938" y="814" type="line"/>
      <point x="63" y="814" type="line"/>
      <point x="63" y="-80" type="line"/>
      <point x="180" y="-80" type="line"/>
      <point x="180" y="706" type="line"/>
      <point x="820" y="706" type="line"/>
    </contour>
    <contour>
      <point x="512" y="236" type="line"/>
      <point x="444" y="383"/>
      <point x="356" y="533"/>
      <point x="285" y="640" type="curve"/>
      <point x="198" y="586" type="line"/>
      <point x="279" y="472"/>
      <point x="361" y="315"/>
      <point x="433" y="156" type="curve"/>
    </contour>
    <contour>
      <point x="265" y="52" type="line"/>
      <point x="392" y="243"/>
      <point x="454" y="411"/>
      <point x="497" y="654" type="curve"/>
      <point x="390" y="674" type="line"/>
      <point x="359" y="454"/>
      <point x="297" y="287"/>
      <point x="180" y="128" type="curve"/>
    </contour>
    <contour>
      <point x="808" y="157" type="line"/>
      <point x="735" y="331"/>
      <point x="645" y="508"/>
      <point x="571" y="632" type="curve"/>
      <point x="481" y="574" type="line"/>
      <point x="564" y="446"/>
      <point x="642" y="276"/>
      <point x="715" y="94" type="curve"/>
    </contour>
    <contour>
      <point x="518" y="29" type="line"/>
      <point x="666" y="232"/>
      <point x="738" y="405"/>
      <point x="784" y="651" type="curve"/>
      <point x="678" y="671" type="line"/>
      <point x="639" y="447"/>
      <point x="571" y="278"/>
      <point x="432" y="105" type="curve"/>
    </contour>
  </outline>
</glyph>
<glyph name="uni7F8A" format="2">
  <advance width="1000"/>
  <unicode hex="2F7A"/>
  <unicode hex="7F8A"/>
  <outline>
    <contour>
      <point x="954" y="142" type="line"/>
      <point x="954" y="252" type="line"/>
      <point x="46" y="252" type="line"/>
      <point x="46" y="142" type="line"/>
    </contour>
    <contour>
      <point x="555" y="-80" type="line"/>
      <point x="555" y="640" type="line"/>
      <point x="429" y="640" type="line"/>
      <point x="429" y="-80" type="line"/>
    </contour>
    <contour>
      <point x="888" y="361" type="line"/>
      <point x="888" y="471" type="line"/>
      <point x="112" y="471" type="line"/>
      <point x="112" y="361" type="line"/>
    </contour>
    <contour>
      <point x="405" y="712" type="line"/>
      <point x="377" y="769"/>
      <point x="353" y="806"/>
      <point x="319" y="855" type="curve"/>
      <point x="205" y="804" type="line"/>
      <point x="241" y="753"/>
      <point x="261" y="718"/>
      <point x="288" y="664" type="curve"/>
    </contour>
    <contour>
      <point x="927" y="571" type="line"/>
      <point x="927" y="681" type="line"/>
      <point x="73" y="681" type="line"/>
      <point x="73" y="571" type="line"/>
    </contour>
    <contour>
      <point x="684" y="637" type="line"/>
      <point x="733" y="695"/>
      <point x="761" y="746"/>
      <point x="796" y="818" type="curve"/>
      <point x="678" y="855" type="line"/>
      <point x="638" y="767"/>
      <point x="611" y="719"/>
      <point x="549" y="637" type="curve"/>
    </contour>
  </outline>
</glyph>
<glyph name="uni7FBD" format="2">
  <advance width="1000"/>
  <unicode hex="2F7B"/>
  <unicode hex="7FBD"/>
  <outline>
    <contour>
      <point x="61" y="587" type="line"/>
      <point x="114" y="537"/>
      <point x="193" y="455"/>
      <point x="234" y="403" type="curve"/>
      <point x="317" y="488" type="line"/>
      <point x="275" y="539"/>
      <point x="197" y="619"/>
      <point x="145" y="666" type="curve"/>
    </contour>
    <contour>
      <point x="114" y="85" type="line"/>
      <point x="194" y="140"/>
      <point x="301" y="230"/>
      <point x="367" y="304" type="curve"/>
      <point x="290" y="390" type="line"/>
      <point x="230" y="328"/>
      <point x="115" y="232"/>
      <point x="38" y="185" type="curve"/>
    </contour>
    <contour>
      <point x="345" y="49" type="line"/>
      <point x="169" y="49" type="line"/>
      <point x="200" y="-69" type="line"/>
      <point x="357" y="-69" type="line" smooth="yes"/>
      <point x="429" y="-69"/>
      <point x="467" y="-29"/>
      <point x="467" y="38" type="curve" smooth="yes"/>
      <point x="467" y="793" type="line"/>
      <point x="345" y="793" type="line"/>
    </contour>
    <contour>
      <point x="46" y="697" type="line"/>
      <point x="467" y="697" type="line"/>
      <point x="467" y="814" type="line"/>
      <point x="46" y="814" type="line"/>
    </contour>
    <contour>
      <point x="809" y="49" type="line"/>
      <point x="635" y="49" type="line"/>
      <point x="666" y="-69" type="line"/>
      <point x="823" y="-69" type="line" smooth="yes"/>
      <point x="895" y="-69"/>
      <point x="933" y="-29"/>
      <point x="933" y="38" type="curve" smooth="yes"/>
      <point x="933" y="793" type="line"/>
      <point x="809" y="793" type="line"/>
    </contour>
    <contour>
      <point x="499" y="697" type="line"/>
      <point x="933" y="697" type="line"/>
      <point x="933" y="814" type="line"/>
      <point x="499" y="814" type="line"/>
    </contour>
    <contour>
      <point x="514" y="587" type="line"/>
      <point x="570" y="537"/>
      <point x="654" y="455"/>
      <point x="697" y="403" type="curve"/>
      <point x="780" y="488" type="line"/>
      <point x="736" y="539"/>
      <point x="653" y="619"/>
      <point x="598" y="666" type="curve"/>
    </contour>
    <contour>
      <point x="567" y="85" type="line"/>
      <point x="650" y="140"/>
      <point x="761" y="230"/>
      <point x="830" y="304" type="curve"/>
      <point x="753" y="390" type="line"/>
      <point x="691" y="328"/>
      <point x="571" y="232"/>
      <point x="491" y="185" type="curve"/>
    </contour>
  </outline>
</glyph>
<glyph name="uni800C" format="2">
  <advance width="1000"/>
  <unicode hex="2F7D"/>
  <unicode hex="800C"/>
  <outline>
    <contour>
      <point x="200" y="-76" type="line"/>
      <point x="200" y="496" type="line"/>
      <point x="800" y="496" type="line"/>
      <point x="800" y="47" type="line"/>
      <point x="685" y="47" type="line"/>
      <point x="718" y="-69" type="line"/>
      <point x="786" y="-69" type="line" smooth="yes"/>
      <point x="876" y="-69"/>
      <point x="920" y="-29"/>
      <point x="920" y="61" type="curve" smooth="yes"/>
      <point x="920" y="604" type="line"/>
      <point x="80" y="604" type="line"/>
      <point x="80" y="-76" type="line"/>
    </contour>
    <contour>
      <point x="433" y="-66" type="line"/>
      <point x="433" y="534" type="line"/>
      <point x="315" y="534" type="line"/>
      <point x="315" y="-66" type="line"/>
    </contour>
    <contour>
      <point x="666" y="-66" type="line"/>
      <point x="666" y="534" type="line"/>
      <point x="548" y="534" type="line"/>
      <point x="548" y="-66" type="line"/>
    </contour>
    <contour>
      <point x="523" y="563" type="line"/>
      <point x="547" y="627"/>
      <point x="565" y="692"/>
      <point x="578" y="754" type="curve"/>
      <point x="440" y="754" type="line"/>
      <point x="428" y="693"/>
      <point x="406" y="626"/>
      <point x="380" y="563" type="curve"/>
    </contour>
    <contour>
      <point x="960" y="700" type="line"/>
      <point x="960" y="814" type="line"/>
      <point x="40" y="814" type="line"/>
      <point x="40" y="700" type="line"/>
    </contour>
  </outline>
</glyph>
<glyph name="uni8012" format="2">
  <advance width="1000"/>
  <unicode hex="2F7E"/>
  <unicode hex="8012"/>
  <outline>
    <contour>
      <point x="552" y="-80" type="line"/>
      <point x="551" y="214" type="line"/>
      <point x="561" y="214" type="line"/>
      <point x="583" y="100"/>
      <point x="695" y="36"/>
      <point x="919" y="-63" type="curve"/>
      <point x="974" y="47" type="line"/>
      <point x="773" y="126"/>
      <point x="622" y="200"/>
      <point x="571" y="330" type="curve"/>
      <point x="551" y="330" type="line"/>
      <point x="551" y="840" type="line"/>
      <point x="431" y="840" type="line"/>
      <point x="431" y="330" type="line"/>
      <point x="411" y="330" type="line"/>
      <point x="362" y="199"/>
      <point x="208" y="123"/>
      <point x="26" y="47" type="curve"/>
      <point x="85" y="-62" type="line"/>
      <point x="309" y="36"/>
      <point x="399" y="100"/>
      <point x="421" y="214" type="curve"/>
      <point x="431" y="214" type="line"/>
      <point x="431" y="-80" type="line"/>
    </contour>
    <contour>
      <point x="955" y="265" type="line"/>
      <point x="955" y="373" type="line"/>
      <point x="45" y="373" type="line"/>
      <point x="45" y="265" type="line"/>
    </contour>
    <contour>
      <point x="899" y="465" type="line"/>
      <point x="899" y="573" type="line"/>
      <point x="101" y="573" type="line"/>
      <point x="101" y="465" type="line"/>
    </contour>
    <contour>
      <point x="935" y="663" type="line"/>
      <point x="935" y="773" type="line"/>
      <point x="65" y="773" type="line"/>
      <point x="65" y="663" type="line"/>
    </contour>
  </outline>
</glyph>
<glyph name="uni807F" format="2">
  <advance width="1000"/>
  <unicode hex="2F80"/>
  <unicode hex="807F"/>
  <outline>
    <contour>
      <point x="433" y="840" type="line"/>
      <point x="433" y="-80" type="line"/>
      <point x="551" y="-80" type="line"/>
      <point x="551" y="840" type="line"/>
    </contour>
    <contour>
      <point x="955" y="28" type="line"/>
      <point x="955" y="130" type="line"/>
      <point x="45" y="130" type="line"/>
      <point x="45" y="28" type="line"/>
    </contour>
    <contour>
      <point x="926" y="196" type="line"/>
      <point x="926" y="294" type="line"/>
      <point x="76" y="294" type="line"/>
      <point x="76" y="196" type="line"/>
    </contour>
    <contour>
      <point x="960" y="615" type="line"/>
      <point x="40" y="615" type="line"/>
      <point x="40" y="515" type="line"/>
      <point x="960" y="515" type="line"/>
    </contour>
    <contour>
      <point x="893" y="356" type="line"/>
      <point x="893" y="774" type="line"/>
      <point x="110" y="774" type="line"/>
      <point x="110" y="676" type="line"/>
      <point x="771" y="676" type="line"/>
      <point x="771" y="454" type="line"/>
      <point x="104" y="454" type="line"/>
      <point x="104" y="356" type="line"/>
    </contour>
  </outline>
</glyph>
<glyph name="uni81E3" format="2">
  <advance width="1000"/>
  <unicode hex="2F82"/>
  <unicode hex="81E3"/>
  <outline>
    <contour>
      <point x="951" y="-50" type="line"/>
      <point x="951" y="66" type="line"/>
      <point x="211" y="66" type="line"/>
      <point x="211" y="699" type="line"/>
      <point x="939" y="699" type="line"/>
      <point x="939" y="815" type="line"/>
      <point x="85" y="815" type="line"/>
      <point x="85" y="-50" type="line"/>
    </contour>
    <contour>
      <point x="587" y="50" type="line"/>
      <point x="587" y="224" type="line"/>
      <point x="469" y="224" type="line"/>
      <point x="469" y="50" type="line"/>
    </contour>
    <contour>
      <point x="891" y="208" type="line"/>
      <point x="891" y="561" type="line"/>
      <point x="195" y="561" type="line"/>
      <point x="195" y="450" type="line"/>
      <point x="767" y="450" type="line"/>
      <point x="767" y="319" type="line"/>
      <point x="195" y="319" type="line"/>
      <point x="195" y="208" type="line"/>
    </contour>
    <contour>
      <point x="587" y="545" type="line"/>
      <point x="587" y="715" type="line"/>
      <point x="469" y="715" type="line"/>
      <point x="469" y="545" type="line"/>
    </contour>
  </outline>
</glyph>
<glyph name="uni81EA" format="2">
  <advance width="1000"/>
  <unicode hex="2F83"/>
  <unicode hex="81EA"/>
  <outline>
    <contour>
      <point x="231" y="-79" type="line"/>
      <point x="231" y="-31" type="line"/>
      <point x="769" y="-31" type="line"/>
      <point x="769" y="-79" type="line"/>
      <point x="894" y="-79" type="line"/>
      <point x="894" y="711" type="line"/>
      <point x="106" y="711" type="line"/>
      <point x="106" y="-79" type="line"/>
    </contour>
    <contour>
      <point x="797" y="185" type="line"/>
      <point x="797" y="293" type="line"/>
      <point x="203" y="293" type="line"/>
      <point x="203" y="185" type="line"/>
    </contour>
    <contour>
      <point x="231" y="601" type="line"/>
      <point x="769" y="601" type="line"/>
      <point x="769" y="79" type="line"/>
      <point x="231" y="79" type="line"/>
    </contour>
    <contour>
      <point x="797" y="393" type="line"/>
      <point x="797" y="501" type="line"/>
      <point x="203" y="501" type="line"/>
      <point x="203" y="393" type="line"/>
    </contour>
    <contour>
      <point x="480" y="636" type="line"/>
      <point x="531" y="697"/>
      <point x="563" y="753"/>
      <point x="586" y="815" type="curve"/>
      <point x="439" y="840" type="line"/>
      <point x="419" y="771"/>
      <point x="387" y="702"/>
      <point x="345" y="636" type="curve"/>
    </contour>
  </outline>
</glyph>
<glyph name="uni81FC" format="2">
  <advance width="1000"/>
  <unicode hex="2F85"/>
  <unicode hex="81FC"/>
  <outline>
    <contour>
      <point x="216" y="-71" type="line"/>
      <point x="216" y="-11" type="line"/>
      <point x="783" y="-11" type="line"/>
      <point x="783" y="-71" type="line"/>
      <point x="911" y="-71" type="line"/>
      <point x="911" y="763" type="line"/>
      <point x="533" y="763" type="line"/>
      <point x="533" y="647" type="line"/>
      <point x="783" y="647" type="line"/>
      <point x="783" y="105" type="line"/>
      <point x="216" y="105" type="line"/>
      <point x="216" y="653" type="line"/>
      <point x="326" y="669"/>
      <point x="436" y="695"/>
      <point x="511" y="727" type="curve"/>
      <point x="446" y="835" type="line"/>
      <point x="349" y="788"/>
      <point x="217" y="766"/>
      <point x="90" y="751" type="curve"/>
      <point x="90" y="-71" type="line"/>
    </contour>
    <contour>
      <point x="463" y="340" type="line"/>
      <point x="463" y="454" type="line"/>
      <point x="190" y="454" type="line"/>
      <point x="190" y="340" type="line"/>
    </contour>
    <contour>
      <point x="814" y="340" type="line"/>
      <point x="814" y="454" type="line"/>
      <point x="531" y="454" type="line"/>
      <point x="531" y="340" type="line"/>
    </contour>
  </outline>
</glyph>
<glyph name="uni821B" format="2">
  <advance width="1000"/>
  <unicode hex="2F87"/>
  <unicode hex="821B"/>
  <outline>
    <contour>
      <point x="731" y="840" type="line"/>
      <point x="731" y="-80" type="line"/>
      <point x="851" y="-80" type="line"/>
      <point x="851" y="840" type="line"/>
    </contour>
    <contour>
      <point x="960" y="284" type="line"/>
      <point x="528" y="284" type="line"/>
      <point x="528" y="170" type="line"/>
      <point x="960" y="170" type="line"/>
    </contour>
    <contour>
      <point x="950" y="681" type="line"/>
      <point x="524" y="681" type="line"/>
      <point x="524" y="567" type="line"/>
      <point x="950" y="567" type="line"/>
    </contour>
    <contour>
      <point x="571" y="170" type="line"/>
      <point x="605" y="276"/>
      <point x="630" y="386"/>
      <point x="644" y="506" type="curve"/>
      <point x="527" y="516" type="line"/>
      <point x="513" y="395"/>
      <point x="486" y="281"/>
      <point x="451" y="170" type="curve"/>
    </contour>
    <contour>
      <point x="103" y="304" type="line"/>
      <point x="210" y="456"/>
      <point x="269" y="609"/>
      <point x="297" y="823" type="curve"/>
      <point x="181" y="839" type="line"/>
      <point x="156" y="636"/>
      <point x="107" y="512"/>
      <point x="23" y="395" type="curve"/>
    </contour>
    <contour>
      <point x="382" y="309" type="line"/>
      <point x="329" y="366"/>
      <point x="285" y="405"/>
      <point x="233" y="446" type="curve"/>
      <point x="168" y="350" type="line"/>
      <point x="219" y="312"/>
      <point x="262" y="275"/>
      <point x="321" y="215" type="curve"/>
    </contour>
    <contour>
      <point x="155" y="-77" type="line"/>
      <point x="377" y="130"/>
      <point x="461" y="334"/>
      <point x="484" y="618" type="curve"/>
      <point x="484" y="713" type="line"/>
      <point x="195" y="713" type="line"/>
      <point x="196" y="602" type="line"/>
      <point x="364" y="602" type="line"/>
      <point x="345" y="372"/>
      <point x="284" y="206"/>
      <point x="73" y="15" type="curve"/>
    </contour>
  </outline>
</glyph>
<glyph name="uni821F" format="2">
  <advance width="1000"/>
  <unicode hex="2F88"/>
  <unicode hex="821F"/>
  <outline>
    <contour>
      <point x="137" y="-87" type="line"/>
      <point x="252" y="66"/>
      <point x="279" y="208"/>
      <point x="279" y="507" type="curve" smooth="yes"/>
      <point x="279" y="630" type="line"/>
      <point x="724" y="630" type="line"/>
      <point x="724" y="54" type="line"/>
      <point x="556" y="54" type="line"/>
      <point x="589" y="-66" type="line"/>
      <point x="706" y="-66" type="line" smooth="yes"/>
      <point x="806" y="-66"/>
      <point x="850" y="-26"/>
      <point x="850" y="74" type="curve" smooth="yes"/>
      <point x="850" y="738" type="line"/>
      <point x="155" y="738" type="line"/>
      <point x="155" y="490" type="line" smooth="yes"/>
      <point x="155" y="235"/>
      <point x="134" y="122"/>
      <point x="31" y="-8" type="curve"/>
    </contour>
    <contour>
      <point x="953" y="317" type="line"/>
      <point x="953" y="427" type="line"/>
      <point x="47" y="427" type="line"/>
      <point x="47" y="317" type="line"/>
    </contour>
    <contour>
      <point x="626" y="498" type="line"/>
      <point x="579" y="543"/>
      <point x="509" y="600"/>
      <point x="460" y="635" type="curve"/>
      <point x="384" y="553" type="line"/>
      <point x="434" y="516"/>
      <point x="503" y="457"/>
      <point x="542" y="416" type="curve"/>
    </contour>
    <contour>
      <point x="485" y="675" type="line"/>
      <point x="531" y="727"/>
      <point x="560" y="777"/>
      <point x="581" y="830" type="curve"/>
      <point x="444" y="849" type="line"/>
      <point x="424" y="790"/>
      <point x="392" y="731"/>
      <point x="350" y="675" type="curve"/>
    </contour>
    <contour>
      <point x="626" y="163" type="line"/>
      <point x="573" y="216"/>
      <point x="495" y="283"/>
      <point x="440" y="324" type="curve"/>
      <point x="361" y="240" type="line"/>
      <point x="419" y="196"/>
      <point x="500" y="125"/>
      <point x="546" y="76" type="curve"/>
    </contour>
  </outline>
</glyph>
<glyph name="uni864D" format="2">
  <advance width="1000"/>
  <unicode hex="2F8C"/>
  <unicode hex="864D"/>
  <outline>
    <contour>
      <point x="543" y="840" type="line"/>
      <point x="419" y="840" type="line"/>
      <point x="419" y="591" type="line"/>
      <point x="543" y="591" type="line"/>
    </contour>
    <contour>
      <point x="877" y="672" type="line"/>
      <point x="877" y="776" type="line"/>
      <point x="469" y="776" type="line"/>
      <point x="469" y="672" type="line"/>
    </contour>
    <contour>
      <point x="819" y="173" type="line"/>
      <point x="819" y="45" type="line"/>
      <point x="585" y="45" type="line" smooth="yes"/>
      <point x="559" y="45"/>
      <point x="547" y="54"/>
      <point x="547" y="79" type="curve" smooth="yes"/>
      <point x="547" y="459" type="line"/>
      <point x="425" y="459" type="line"/>
      <point x="425" y="76" type="line" smooth="yes"/>
      <point x="425" y="-29"/>
      <point x="458" y="-65"/>
      <point x="574" y="-65" type="curve" smooth="yes"/>
      <point x="811" y="-65" type="line" smooth="yes"/>
      <point x="903" y="-65"/>
      <point x="935" y="-34"/>
      <point x="935" y="48" type="curve" smooth="yes"/>
      <point x="935" y="141" type="line"/>
    </contour>
    <contour>
      <point x="901" y="340" type="line"/>
      <point x="256" y="289" type="line"/>
      <point x="265" y="182" type="line"/>
      <point x="910" y="234" type="line"/>
    </contour>
    <contour>
      <point x="135" y="-80" type="line"/>
      <point x="213" y="45"/>
      <point x="237" y="216"/>
      <point x="237" y="445" type="curve" smooth="yes"/>
      <point x="237" y="499" type="line"/>
      <point x="811" y="499" type="line"/>
      <point x="798" y="472"/>
      <point x="778" y="441"/>
      <point x="754" y="414" type="curve"/>
      <point x="852" y="361" type="line"/>
      <point x="886" y="403"/>
      <point x="925" y="465"/>
      <point x="946" y="519" type="curve"/>
      <point x="946" y="609" type="line"/>
      <point x="113" y="609" type="line"/>
      <point x="113" y="441" type="line" smooth="yes"/>
      <point x="113" y="247"/>
      <point x="95" y="114"/>
      <point x="33" y="19" type="curve"/>
    </contour>
  </outline>
</glyph>
<glyph name="uni884C" format="2">
  <advance width="1000"/>
  <unicode hex="2F8F"/>
  <unicode hex="884C"/>
  <outline>
    <contour>
      <point x="431" y="688" type="line"/>
      <point x="941" y="688" type="line"/>
      <point x="941" y="804" type="line"/>
      <point x="431" y="804" type="line"/>
    </contour>
    <contour>
      <point x="404" y="414" type="line"/>
      <point x="964" y="414" type="line"/>
      <point x="964" y="530" type="line"/>
      <point x="404" y="530" type="line"/>
    </contour>
    <contour>
      <point x="685" y="-76" type="line" smooth="yes"/>
      <point x="774" y="-76"/>
      <point x="810" y="-39"/>
      <point x="810" y="50" type="curve" smooth="yes"/>
      <point x="810" y="477" type="line"/>
      <point x="686" y="477" type="line"/>
      <point x="686" y="42" type="line"/>
      <point x="490" y="42" type="line"/>
      <point x="513" y="-76" type="line"/>
    </contour>
    <contour>
      <point x="73" y="242" type="line"/>
      <point x="150" y="282"/>
      <point x="204" y="327"/>
      <point x="242" y="366" type="curve"/>
      <point x="278" y="392" type="line"/>
      <point x="320" y="430"/>
      <point x="371" y="487"/>
      <point x="422" y="555" type="curve"/>
      <point x="325" y="616" type="line"/>
      <point x="251" y="513"/>
      <point x="134" y="412"/>
      <point x="17" y="356" type="curve"/>
    </contour>
    <contour>
      <point x="307" y="-80" type="line"/>
      <point x="307" y="451" type="line"/>
      <point x="190" y="381" type="line"/>
      <point x="190" y="-80" type="line"/>
    </contour>
    <contour>
      <point x="85" y="505" type="line"/>
      <point x="203" y="569"/>
      <point x="321" y="674"/>
      <point x="408" y="786" type="curve"/>
      <point x="307" y="850" type="line"/>
      <point x="240" y="753"/>
      <point x="138" y="673"/>
      <point x="26" y="616" type="curve"/>
    </contour>
  </outline>
</glyph>
<glyph name="uni8C37" format="2">
  <advance width="1000"/>
  <unicode hex="2F95"/>
  <unicode hex="8C37"/>
  <outline>
    <contour>
      <point x="106" y="512" type="line"/>
      <point x="240" y="588"/>
      <point x="350" y="682"/>
      <point x="426" y="769" type="curve"/>
      <point x="335" y="845" type="line"/>
      <point x="254" y="753"/>
      <point x="154" y="676"/>
      <point x="39" y="616" type="curve"/>
    </contour>
    <contour>
      <point x="951" y="608" type="line"/>
      <point x="840" y="706"/>
      <point x="754" y="778"/>
      <point x="650" y="845" type="curve"/>
      <point x="572" y="757" type="line"/>
      <point x="679" y="685"/>
      <point x="760" y="619"/>
      <point x="865" y="515" type="curve"/>
    </contour>
    <contour>
      <point x="164" y="339" type="line"/>
      <point x="164" y="-80" type="line"/>
      <point x="284" y="-80" type="line"/>
      <point x="284" y="-38" type="line"/>
      <point x="716" y="-38" type="line"/>
      <point x="716" y="-80" type="line"/>
      <point x="838" y="-80" type="line"/>
      <point x="838" y="339" type="line"/>
    </contour>
    <contour>
      <point x="284" y="231" type="line"/>
      <point x="716" y="231" type="line"/>
      <point x="716" y="71" type="line"/>
      <point x="284" y="71" type="line"/>
    </contour>
    <contour>
      <point x="82" y="230" type="line"/>
      <point x="340" y="360"/>
      <point x="459" y="459"/>
      <point x="487" y="603" type="curve"/>
      <point x="497" y="603" type="line"/>
      <point x="525" y="459"/>
      <point x="652" y="361"/>
      <point x="919" y="230" type="curve"/>
      <point x="983" y="346" type="line"/>
      <point x="738" y="462"/>
      <point x="620" y="547"/>
      <point x="563" y="663" type="curve"/>
      <point x="421" y="663" type="line"/>
      <point x="363" y="547"/>
      <point x="263" y="462"/>
      <point x="17" y="346" type="curve"/>
    </contour>
  </outline>
</glyph>
<glyph name="uni8C78" format="2">
  <advance width="1000"/>
  <unicode hex="2F98"/>
  <unicode hex="8C78"/>
  <outline>
    <contour>
      <point x="803" y="669" type="line"/>
      <point x="645" y="578"/>
      <point x="422" y="506"/>
      <point x="120" y="480" type="curve"/>
      <point x="156" y="373" type="line"/>
      <point x="451" y="403"/>
      <point x="681" y="471"/>
      <point x="867" y="581" type="curve"/>
    </contour>
    <contour>
      <point x="641" y="450" type="line"/>
      <point x="506" y="368"/>
      <point x="334" y="312"/>
      <point x="125" y="281" type="curve"/>
      <point x="158" y="176" type="line"/>
      <point x="378" y="208"/>
      <point x="548" y="274"/>
      <point x="692" y="366" type="curve"/>
    </contour>
    <contour>
      <point x="698" y="308" type="line"/>
      <point x="555" y="200"/>
      <point x="336" y="122"/>
      <point x="124" y="92" type="curve"/>
      <point x="162" y="-17" type="line"/>
      <point x="386" y="13"/>
      <point x="610" y="108"/>
      <point x="734" y="211" type="curve"/>
    </contour>
    <contour>
      <point x="717" y="851" type="line"/>
      <point x="565" y="784"/>
      <point x="360" y="747"/>
      <point x="140" y="725" type="curve"/>
      <point x="172" y="620" type="line"/>
      <point x="397" y="642"/>
      <point x="636" y="694"/>
      <point x="782" y="761" type="curve"/>
    </contour>
    <contour>
      <point x="460" y="527" type="line"/>
      <point x="429" y="571"/>
      <point x="398" y="610"/>
      <point x="354" y="649" type="curve"/>
      <point x="264" y="584" type="line"/>
      <point x="301" y="549"/>
      <point x="342" y="507"/>
      <point x="373" y="463" type="curve"/>
    </contour>
    <contour>
      <point x="665" y="599" type="line"/>
      <point x="643" y="636"/>
      <point x="616" y="669"/>
      <point x="585" y="700" type="curve"/>
      <point x="495" y="637" type="line"/>
      <point x="523" y="607"/>
      <point x="555" y="571"/>
      <point x="578" y="540" type="curve"/>
    </contour>
    <contour>
      <point x="693" y="144" type="curve" smooth="yes"/>
      <point x="693" y="81"/>
      <point x="682" y="37"/>
      <point x="599" y="37" type="curve" smooth="yes"/>
      <point x="494" y="37" type="line"/>
      <point x="527" y="-75" type="line"/>
      <point x="616" y="-75" type="line" smooth="yes"/>
      <point x="766" y="-75"/>
      <point x="811" y="1"/>
      <point x="811" y="149" type="curve" smooth="yes"/>
      <point x="811" y="281"/>
      <point x="742" y="418"/>
      <point x="617" y="525" type="curve"/>
      <point x="539" y="457" type="line"/>
      <point x="643" y="365"/>
      <point x="693" y="265"/>
    </contour>
  </outline>
</glyph>
<glyph name="uni8D64" format="2">
  <advance width="1000"/>
  <unicode hex="2F9A"/>
  <unicode hex="8D64"/>
  <outline>
    <contour>
      <point x="202" y="-80" type="line"/>
      <point x="371" y="33"/>
      <point x="445" y="155"/>
      <point x="445" y="416" type="curve" smooth="yes"/>
      <point x="445" y="481" type="line"/>
      <point x="324" y="481" type="line"/>
      <point x="324" y="417" type="line" smooth="yes"/>
      <point x="324" y="195"/>
      <point x="283" y="124"/>
      <point x="126" y="21" type="curve"/>
    </contour>
    <contour>
      <point x="126" y="79" type="line"/>
      <point x="185" y="160"/>
      <point x="232" y="260"/>
      <point x="259" y="349" type="curve"/>
      <point x="147" y="382" type="line"/>
      <point x="123" y="301"/>
      <point x="84" y="222"/>
      <point x="28" y="152" type="curve"/>
    </contour>
    <contour>
      <point x="975" y="96" type="line"/>
      <point x="937" y="201"/>
      <point x="889" y="301"/>
      <point x="843" y="380" type="curve"/>
      <point x="733" y="328" type="line"/>
      <point x="783" y="246"/>
      <point x="830" y="144"/>
      <point x="863" y="40" type="curve"/>
    </contour>
    <contour>
      <point x="960" y="428" type="line"/>
      <point x="960" y="542" type="line"/>
      <point x="40" y="542" type="line"/>
      <point x="40" y="428" type="line"/>
    </contour>
    <contour>
      <point x="557" y="487" type="line"/>
      <point x="557" y="840" type="line"/>
      <point x="431" y="840" type="line"/>
      <point x="431" y="487" type="line"/>
    </contour>
    <contour>
      <point x="560" y="-70" type="line" smooth="yes"/>
      <point x="648" y="-70"/>
      <point x="684" y="-37"/>
      <point x="684" y="54" type="curve" smooth="yes"/>
      <point x="684" y="470" type="line"/>
      <point x="561" y="470" type="line"/>
      <point x="561" y="44" type="line"/>
      <point x="415" y="44" type="line"/>
      <point x="442" y="-70" type="line"/>
    </contour>
    <contour>
      <point x="892" y="633" type="line"/>
      <point x="892" y="745" type="line"/>
      <point x="108" y="745" type="line"/>
      <point x="108" y="633" type="line"/>
    </contour>
  </outline>
</glyph>
<glyph name="uni8F9B" format="2">
  <advance width="1000"/>
  <unicode hex="2F9F"/>
  <unicode hex="8F9B"/>
  <outline>
    <contour>
      <point x="960" y="332" type="line"/>
      <point x="960" y="446" type="line"/>
      <point x="40" y="446" type="line"/>
      <point x="40" y="332" type="line"/>
    </contour>
    <contour>
      <point x="554" y="-80" type="line"/>
      <point x="554" y="403" type="line"/>
      <point x="426" y="403" type="line"/>
      <point x="426" y="-80" type="line"/>
    </contour>
    <contour>
      <point x="930" y="104" type="line"/>
      <point x="930" y="216" type="line"/>
      <point x="70" y="216" type="line"/>
      <point x="70" y="104" type="line"/>
    </contour>
    <contour>
      <point x="403" y="470" type="line"/>
      <point x="391" y="522"/>
      <point x="368" y="581"/>
      <point x="343" y="630" type="curve"/>
      <point x="219" y="596" type="line"/>
      <point x="244" y="548"/>
      <point x="270" y="485"/>
      <point x="280" y="440" type="curve"/>
    </contour>
    <contour>
      <point x="920" y="625" type="line"/>
      <point x="920" y="737" type="line"/>
      <point x="80" y="737" type="line"/>
      <point x="80" y="625" type="line"/>
    </contour>
    <contour>
      <point x="682" y="398" type="line"/>
      <point x="719" y="460"/>
      <point x="751" y="529"/>
      <point x="777" y="596" type="curve"/>
      <point x="649" y="628" type="line"/>
      <point x="630" y="564"/>
      <point x="599" y="485"/>
      <point x="550" y="398" type="curve"/>
    </contour>
    <contour>
      <point x="585" y="691" type="line"/>
      <point x="562" y="748"/>
      <point x="532" y="806"/>
      <point x="501" y="851" type="curve"/>
      <point x="383" y="809" type="line"/>
      <point x="420" y="755"/>
      <point x="445" y="707"/>
      <point x="467" y="648" type="curve"/>
    </contour>
  </outline>
</glyph>
<glyph name="uni8FB0" format="2">
  <advance width="1000"/>
  <unicode hex="2FA0"/>
  <unicode hex="8FB0"/>
  <outline>
    <contour>
      <point x="292" y="-70" type="line"/>
      <point x="410" y="-45"/>
      <point x="521" y="-18"/>
      <point x="627" y="13" type="curve"/>
      <point x="602" y="124" type="line"/>
      <point x="548" y="108"/>
      <point x="489" y="93"/>
      <point x="424" y="79" type="curve"/>
      <point x="424" y="355" type="line"/>
      <point x="306" y="355" type="line"/>
      <point x="306" y="104" type="line" smooth="yes"/>
      <point x="306" y="66"/>
      <point x="297" y="53"/>
      <point x="266" y="41" type="curve"/>
    </contour>
    <contour>
      <point x="975" y="19" type="line"/>
      <point x="805" y="93"/>
      <point x="673" y="192"/>
      <point x="634" y="384" type="curve"/>
      <point x="520" y="358" type="line"/>
      <point x="587" y="118"/>
      <point x="722" y="-2"/>
      <point x="915" y="-88" type="curve"/>
    </contour>
    <contour>
      <point x="954" y="339" type="line"/>
      <point x="954" y="447" type="line"/>
      <point x="205" y="447" type="line"/>
      <point x="205" y="339" type="line"/>
    </contour>
    <contour>
      <point x="765" y="131" type="line"/>
      <point x="822" y="156"/>
      <point x="884" y="193"/>
      <point x="936" y="233" type="curve"/>
      <point x="870" y="318" type="line"/>
      <point x="820" y="274"/>
      <point x="755" y="237"/>
      <point x="692" y="213" type="curve"/>
    </contour>
    <contour>
      <point x="894" y="521" type="line"/>
      <point x="894" y="631" type="line"/>
      <point x="274" y="631" type="line"/>
      <point x="274" y="521" type="line"/>
    </contour>
    <contour>
      <point x="128" y="-81" type="line"/>
      <point x="201" y="71"/>
      <point x="227" y="289"/>
      <point x="227" y="532" type="curve" smooth="yes"/>
      <point x="227" y="751" type="line"/>
      <point x="196" y="708" type="line"/>
      <point x="945" y="708" type="line"/>
      <point x="945" y="818" type="line"/>
      <point x="103" y="818" type="line"/>
      <point x="103" y="533" type="line" smooth="yes"/>
      <point x="103" y="294"/>
      <point x="83" y="133"/>
      <point x="24" y="20" type="curve"/>
    </contour>
  </outline>
</glyph>
<glyph name="uni9091" format="2">
  <advance width="1000"/>
  <unicode hex="2FA2"/>
  <unicode hex="9091"/>
  <outline>
    <contour>
      <point x="137" y="820" type="line"/>
      <point x="137" y="542" type="line"/>
      <point x="863" y="542" type="line"/>
      <point x="863" y="820" type="line"/>
    </contour>
    <contour>
      <point x="257" y="720" type="line"/>
      <point x="743" y="720" type="line"/>
      <point x="743" y="642" type="line"/>
      <point x="257" y="642" type="line"/>
    </contour>
    <contour>
      <point x="429" y="387" type="line"/>
      <point x="429" y="282" type="line"/>
      <point x="117" y="282" type="line"/>
      <point x="117" y="182" type="line"/>
      <point x="893" y="182" type="line"/>
      <point x="893" y="489" type="line"/>
      <point x="89" y="489" type="line"/>
      <point x="89" y="387" type="line"/>
    </contour>
    <contour>
      <point x="546" y="387" type="line"/>
      <point x="772" y="387" type="line"/>
      <point x="772" y="282" type="line"/>
      <point x="546" y="282" type="line"/>
    </contour>
    <contour>
      <point x="832" y="-70" type="line" smooth="yes"/>
      <point x="920" y="-70"/>
      <point x="952" y="-48"/>
      <point x="952" y="36" type="curve" smooth="yes"/>
      <point x="952" y="117" type="line"/>
      <point x="840" y="141" type="line"/>
      <point x="840" y="40" type="line"/>
      <point x="312" y="40" type="line" smooth="yes"/>
      <point x="223" y="40"/>
      <point x="210" y="49"/>
      <point x="210" y="112" type="curve" smooth="yes"/>
      <point x="210" y="454" type="line"/>
      <point x="89" y="454" type="line"/>
      <point x="89" y="85" type="line" smooth="yes"/>
      <point x="89" y="-27"/>
      <point x="128" y="-70"/>
      <point x="305" y="-70" type="curve" smooth="yes"/>
    </contour>
  </outline>
</glyph>
<glyph name="uni9149" format="2">
  <advance width="1000"/>
  <unicode hex="2FA3"/>
  <unicode hex="9149"/>
  <outline>
    <contour>
      <point x="196" y="-80" type="line"/>
      <point x="196" y="520" type="line"/>
      <point x="802" y="520" type="line"/>
      <point x="802" y="-80" type="line"/>
      <point x="920" y="-80" type="line"/>
      <point x="920" y="622" type="line"/>
      <point x="80" y="622" type="line"/>
      <point x="80" y="-80" type="line"/>
    </contour>
    <contour>
      <point x="844" y="-24" type="line"/>
      <point x="844" y="76" type="line"/>
      <point x="148" y="76" type="line"/>
      <point x="148" y="-24" type="line"/>
    </contour>
    <contour>
      <point x="844" y="143" type="line"/>
      <point x="844" y="237" type="line"/>
      <point x="148" y="237" type="line"/>
      <point x="148" y="143" type="line"/>
    </contour>
    <contour>
      <point x="269" y="255" type="line"/>
      <point x="404" y="364"/>
      <point x="446" y="437"/>
      <point x="446" y="605" type="curve" smooth="yes"/>
      <point x="446" y="746" type="line"/>
      <point x="340" y="746" type="line"/>
      <point x="340" y="606" type="line" smooth="yes"/>
      <point x="340" y="469"/>
      <point x="312" y="426"/>
      <point x="192" y="338" type="curve"/>
    </contour>
    <contour>
      <point x="814" y="307" type="line"/>
      <point x="826" y="407" type="line"/>
      <point x="677" y="407" type="line" smooth="yes"/>
      <point x="662" y="407"/>
      <point x="653" y="414"/>
      <point x="653" y="432" type="curve" smooth="yes"/>
      <point x="653" y="746" type="line"/>
      <point x="547" y="746" type="line"/>
      <point x="547" y="417" type="line" smooth="yes"/>
      <point x="547" y="332"/>
      <point x="576" y="307"/>
      <point x="651" y="307" type="curve" smooth="yes"/>
    </contour>
    <contour>
      <point x="960" y="704" type="line"/>
      <point x="960" y="814" type="line"/>
      <point x="40" y="814" type="line"/>
      <point x="40" y="704" type="line"/>
    </contour>
  </outline>
</glyph>
<glyph name="uni91CC" format="2">
  <advance width="1000"/>
  <unicode hex="2FA5"/>
  <unicode hex="91CC"/>
  <outline>
    <contour>
      <point x="891" y="328" type="line"/>
      <point x="891" y="820" type="line"/>
      <point x="109" y="820" type="line"/>
      <point x="109" y="328" type="line"/>
    </contour>
    <contour>
      <point x="960" y="-54" type="line"/>
      <point x="960" y="54" type="line"/>
      <point x="40" y="54" type="line"/>
      <point x="40" y="-54" type="line"/>
    </contour>
    <contour>
      <point x="924" y="139" type="line"/>
      <point x="924" y="243" type="line"/>
      <point x="76" y="243" type="line"/>
      <point x="76" y="139" type="line"/>
    </contour>
    <contour>
      <point x="552" y="6" type="line"/>
      <point x="552" y="756" type="line"/>
      <point x="432" y="756" type="line"/>
      <point x="432" y="6" type="line"/>
    </contour>
    <contour>
      <point x="225" y="718" type="line"/>
      <point x="775" y="718" type="line"/>
      <point x="775" y="430" type="line"/>
      <point x="225" y="430" type="line"/>
    </contour>
    <contour>
      <point x="812" y="526" type="line"/>
      <point x="812" y="624" type="line"/>
      <point x="191" y="624" type="line"/>
      <point x="191" y="526" type="line"/>
    </contour>
  </outline>
</glyph>
<glyph name="uni961C" format="2">
  <advance width="1000"/>
  <unicode hex="2FA9"/>
  <unicode hex="961C"/>
  <outline>
    <contour>
      <point x="911" y="234" type="line"/>
      <point x="911" y="482" type="line"/>
      <point x="239" y="482" type="line"/>
      <point x="239" y="527" type="line"/>
      <point x="876" y="527" type="line"/>
      <point x="876" y="772" type="line"/>
      <point x="116" y="772" type="line"/>
      <point x="116" y="234" type="line"/>
    </contour>
    <contour>
      <point x="552" y="-80" type="line"/>
      <point x="552" y="294" type="line"/>
      <point x="432" y="294" type="line"/>
      <point x="432" y="-80" type="line"/>
    </contour>
    <contour>
      <point x="960" y="70" type="line"/>
      <point x="960" y="178" type="line"/>
      <point x="40" y="178" type="line"/>
      <point x="40" y="70" type="line"/>
    </contour>
    <contour>
      <point x="239" y="388" type="line"/>
      <point x="788" y="388" type="line"/>
      <point x="788" y="330" type="line"/>
      <point x="239" y="330" type="line"/>
    </contour>
    <contour>
      <point x="239" y="676" type="line"/>
      <point x="755" y="676" type="line"/>
      <point x="755" y="621" type="line"/>
      <point x="239" y="621" type="line"/>
    </contour>
    <contour>
      <point x="527" y="744" type="line"/>
      <point x="546" y="773"/>
      <point x="564" y="810"/>
      <point x="572" y="835" type="curve"/>
      <point x="439" y="847" type="line"/>
      <point x="431" y="820"/>
      <point x="418" y="788"/>
      <point x="402" y="762" type="curve"/>
    </contour>
  </outline>
</glyph>
<glyph name="uni96E8" format="2">
  <advance width="1000"/>
  <unicode hex="2FAC"/>
  <unicode hex="96E8"/>
  <outline>
    <contour>
      <point x="190" y="-80" type="line"/>
      <point x="190" y="524" type="line"/>
      <point x="810" y="524" type="line"/>
      <point x="810" y="47" type="line"/>
      <point x="667" y="47" type="line"/>
      <point x="699" y="-69" type="line"/>
      <point x="783" y="-69" type="line" smooth="yes"/>
      <point x="883" y="-69"/>
      <point x="927" y="-29"/>
      <point x="927" y="71" type="curve" smooth="yes"/>
      <point x="927" y="628" type="line"/>
      <point x="73" y="628" type="line"/>
      <point x="73" y="-80" type="line"/>
    </contour>
    <contour>
      <point x="426" y="143" type="line"/>
      <point x="377" y="184"/>
      <point x="309" y="236"/>
      <point x="260" y="265" type="curve"/>
      <point x="193" y="186" type="line"/>
      <point x="241" y="154"/>
      <point x="307" y="101"/>
      <point x="357" y="59" type="curve"/>
    </contour>
    <contour>
      <point x="422" y="367" type="line"/>
      <point x="374" y="405"/>
      <point x="311" y="451"/>
      <point x="261" y="481" type="curve"/>
      <point x="201" y="405" type="line"/>
      <point x="249" y="372"/>
      <point x="314" y="327"/>
      <point x="359" y="288" type="curve"/>
    </contour>
    <contour>
      <point x="551" y="-70" type="line"/>
      <point x="551" y="760" type="line"/>
      <point x="433" y="760" type="line"/>
      <point x="433" y="-70" type="line"/>
    </contour>
    <contour>
      <point x="798" y="160" type="line"/>
      <point x="740" y="204"/>
      <point x="677" y="249"/>
      <point x="628" y="275" type="curve"/>
      <point x="566" y="195" type="line"/>
      <point x="619" y="163"/>
      <point x="680" y="118"/>
      <point x="731" y="77" type="curve"/>
    </contour>
    <contour>
      <point x="797" y="377" type="line"/>
      <point x="744" y="416"/>
      <point x="678" y="463"/>
      <point x="626" y="490" type="curve"/>
      <point x="568" y="412" type="line"/>
      <point x="621" y="381"/>
      <point x="686" y="332"/>
      <point x="735" y="294" type="curve"/>
    </contour>
    <contour>
      <point x="960" y="704" type="line"/>
      <point x="960" y="818" type="line"/>
      <point x="40" y="818" type="line"/>
      <point x="40" y="704" type="line"/>
    </contour>
  </outline>
</glyph>
<glyph name="uni9751" format="2">
  <advance width="1000"/>
  <unicode hex="2FAD"/>
  <unicode hex="9751"/>
  <outline>
    <contour>
      <point x="259" y="-81" type="line"/>
      <point x="259" y="293" type="line"/>
      <point x="740" y="293" type="line"/>
      <point x="740" y="21" type="line"/>
      <point x="562" y="21" type="line"/>
      <point x="585" y="-75" type="line"/>
      <point x="736" y="-75" type="line" smooth="yes"/>
      <point x="821" y="-75"/>
      <point x="860" y="-45"/>
      <point x="860" y="32" type="curve" smooth="yes"/>
      <point x="860" y="385" type="line"/>
      <point x="140" y="385" type="line"/>
      <point x="140" y="-81" type="line"/>
    </contour>
    <contour>
      <point x="774" y="96" type="line"/>
      <point x="774" y="188" type="line"/>
      <point x="223" y="188" type="line"/>
      <point x="223" y="96" type="line"/>
    </contour>
    <contour>
      <point x="551" y="127" type="line"/>
      <point x="551" y="320" type="line"/>
      <point x="444" y="320" type="line"/>
      <point x="444" y="127" type="line"/>
    </contour>
    <contour>
      <point x="958" y="430" type="line"/>
      <point x="958" y="524" type="line"/>
      <point x="42" y="524" type="line"/>
      <point x="42" y="430" type="line"/>
    </contour>
    <contour>
      <point x="885" y="566" type="line"/>
      <point x="885" y="650" type="line"/>
      <point x="99" y="650" type="line"/>
      <point x="99" y="566" type="line"/>
    </contour>
    <contour>
      <point x="552" y="457" type="line"/>
      <point x="552" y="840" type="line"/>
      <point x="432" y="840" type="line"/>
      <point x="432" y="457" type="line"/>
    </contour>
    <contour>
      <point x="927" y="692" type="line"/>
      <point x="927" y="784" type="line"/>
      <point x="69" y="784" type="line"/>
      <point x="69" y="692" type="line"/>
    </contour>
  </outline>
</glyph>
<glyph name="uni975E" format="2">
  <advance width="1000"/>
  <unicode hex="2FAE"/>
  <unicode hex="975E"/>
  <outline>
    <contour>
      <point x="667" y="-78" type="line"/>
      <point x="667" y="832" type="line"/>
      <point x="543" y="832" type="line"/>
      <point x="543" y="-78" type="line"/>
    </contour>
    <contour>
      <point x="346" y="92" type="line"/>
      <point x="346" y="209" type="line"/>
      <point x="40" y="209" type="line"/>
      <point x="40" y="92" type="line"/>
    </contour>
    <contour>
      <point x="346" y="344" type="line"/>
      <point x="346" y="459" type="line"/>
      <point x="69" y="459" type="line"/>
      <point x="69" y="344" type="line"/>
    </contour>
    <contour>
      <point x="438" y="-78" type="line"/>
      <point x="438" y="832" type="line"/>
      <point x="314" y="832" type="line"/>
      <point x="314" y="-78" type="line"/>
    </contour>
    <contour>
      <point x="346" y="583" type="line"/>
      <point x="346" y="700" type="line"/>
      <point x="53" y="700" type="line"/>
      <point x="53" y="583" type="line"/>
    </contour>
    <contour>
      <point x="960" y="92" type="line"/>
      <point x="960" y="209" type="line"/>
      <point x="635" y="209" type="line"/>
      <point x="635" y="92" type="line"/>
    </contour>
    <contour>
      <point x="933" y="344" type="line"/>
      <point x="933" y="459" type="line"/>
      <point x="635" y="459" type="line"/>
      <point x="635" y="344" type="line"/>
    </contour>
    <contour>
      <point x="949" y="583" type="line"/>
      <point x="949" y="700" type="line"/>
      <point x="635" y="700" type="line"/>
      <point x="635" y="583" type="line"/>
    </contour>
  </outline>
</glyph>
<glyph name="uni9762" format="2">
  <advance width="1000"/>
  <unicode hex="2FAF"/>
  <unicode hex="9762"/>
  <outline>
    <contour>
      <point x="194" y="-80" type="line"/>
      <point x="194" y="527" type="line"/>
      <point x="806" y="527" type="line"/>
      <point x="806" y="-80" type="line"/>
      <point x="922" y="-80" type="line"/>
      <point x="922" y="627" type="line"/>
      <point x="78" y="627" type="line"/>
      <point x="78" y="-80" type="line"/>
    </contour>
    <contour>
      <point x="860" y="-24" type="line"/>
      <point x="860" y="76" type="line"/>
      <point x="134" y="76" type="line"/>
      <point x="134" y="-24" type="line"/>
    </contour>
    <contour>
      <point x="402" y="36" type="line"/>
      <point x="402" y="555" type="line"/>
      <point x="292" y="555" type="line"/>
      <point x="292" y="36" type="line"/>
    </contour>
    <contour>
      <point x="632" y="169" type="line"/>
      <point x="632" y="263" type="line"/>
      <point x="367" y="263" type="line"/>
      <point x="367" y="169" type="line"/>
    </contour>
    <contour>
      <point x="632" y="350" type="line"/>
      <point x="632" y="444" type="line"/>
      <point x="367" y="444" type="line"/>
      <point x="367" y="350" type="line"/>
    </contour>
    <contour>
      <point x="694" y="36" type="line"/>
      <point x="694" y="555" type="line"/>
      <point x="584" y="555" type="line"/>
      <point x="584" y="36" type="line"/>
    </contour>
    <contour>
      <point x="518" y="567" type="line"/>
      <point x="549" y="636"/>
      <point x="567" y="691"/>
      <point x="582" y="750" type="curve"/>
      <point x="451" y="750" type="line"/>
      <point x="435" y="690"/>
      <point x="415" y="635"/>
      <point x="384" y="567" type="curve"/>
    </contour>
    <contour>
      <point x="960" y="704" type="line"/>
      <point x="960" y="814" type="line"/>
      <point x="40" y="814" type="line"/>
      <point x="40" y="704" type="line"/>
    </contour>
  </outline>
</glyph>
<glyph name="uni9769" format="2">
  <advance width="1000"/>
  <unicode hex="2FB0"/>
  <unicode hex="9769"/>
  <outline>
    <contour>
      <point x="943" y="675" type="line"/>
      <point x="943" y="775" type="line"/>
      <point x="58" y="775" type="line"/>
      <point x="58" y="675" type="line"/>
    </contour>
    <contour>
      <point x="126" y="204" type="line"/>
      <point x="879" y="204" type="line"/>
      <point x="879" y="467" type="line"/>
      <point x="126" y="467" type="line"/>
    </contour>
    <contour>
      <point x="244" y="371" type="line"/>
      <point x="761" y="371" type="line"/>
      <point x="761" y="300" type="line"/>
      <point x="244" y="300" type="line"/>
    </contour>
    <contour>
      <point x="960" y="42" type="line"/>
      <point x="960" y="148" type="line"/>
      <point x="40" y="148" type="line"/>
      <point x="40" y="42" type="line"/>
    </contour>
    <contour>
      <point x="552" y="-80" type="line"/>
      <point x="552" y="559" type="line"/>
      <point x="432" y="559" type="line"/>
      <point x="432" y="-80" type="line"/>
    </contour>
    <contour>
      <point x="757" y="521" type="line"/>
      <point x="757" y="840" type="line"/>
      <point x="639" y="840" type="line"/>
      <point x="639" y="615" type="line"/>
      <point x="355" y="615" type="line"/>
      <point x="355" y="840" type="line"/>
      <point x="237" y="840" type="line"/>
      <point x="237" y="521" type="line"/>
    </contour>
  </outline>
</glyph>
<glyph name="uni97ED" format="2">
  <advance width="1000"/>
  <unicode hex="2FB2"/>
  <unicode hex="97ED"/>
  <outline>
    <contour>
      <point x="666" y="6" type="line"/>
      <point x="666" y="840" type="line"/>
      <point x="542" y="840" type="line"/>
      <point x="542" y="6" type="line"/>
    </contour>
    <contour>
      <point x="930" y="697" type="line"/>
      <point x="601" y="697" type="line"/>
      <point x="601" y="589" type="line"/>
      <point x="930" y="589" type="line"/>
    </contour>
    <contour>
      <point x="919" y="488" type="line"/>
      <point x="601" y="488" type="line"/>
      <point x="601" y="382" type="line"/>
      <point x="919" y="382" type="line"/>
    </contour>
    <contour>
      <point x="936" y="281" type="line"/>
      <point x="601" y="281" type="line"/>
      <point x="601" y="173" type="line"/>
      <point x="936" y="173" type="line"/>
    </contour>
    <contour>
      <point x="441" y="840" type="line"/>
      <point x="317" y="840" type="line"/>
      <point x="317" y="6" type="line"/>
      <point x="441" y="6" type="line"/>
    </contour>
    <contour>
      <point x="379" y="589" type="line"/>
      <point x="379" y="697" type="line"/>
      <point x="70" y="697" type="line"/>
      <point x="70" y="589" type="line"/>
    </contour>
    <contour>
      <point x="379" y="382" type="line"/>
      <point x="379" y="488" type="line"/>
      <point x="81" y="488" type="line"/>
      <point x="81" y="382" type="line"/>
    </contour>
    <contour>
      <point x="379" y="173" type="line"/>
      <point x="379" y="281" type="line"/>
      <point x="64" y="281" type="line"/>
      <point x="64" y="173" type="line"/>
    </contour>
    <contour>
      <point x="960" y="-55" type="line"/>
      <point x="960" y="53" type="line"/>
      <point x="40" y="53" type="line"/>
      <point x="40" y="-55" type="line"/>
    </contour>
  </outline>
</glyph>
<glyph name="uni98DF" format="2">
  <advance width="1000"/>
  <unicode hex="2FB7"/>
  <unicode hex="98DF"/>
  <outline>
    <contour>
      <point x="298" y="20" type="line"/>
      <point x="298" y="202" type="line"/>
      <point x="819" y="202" type="line"/>
      <point x="819" y="585" type="line"/>
      <point x="180" y="585" type="line"/>
      <point x="180" y="80" type="line" smooth="yes"/>
      <point x="180" y="47"/>
      <point x="173" y="38"/>
      <point x="141" y="30" type="curve"/>
    </contour>
    <contour>
      <point x="298" y="494" type="line"/>
      <point x="700" y="494" type="line"/>
      <point x="700" y="298" type="line"/>
      <point x="298" y="298" type="line"/>
    </contour>
    <contour>
      <point x="527" y="101" type="line"/>
      <point x="427" y="75"/>
      <point x="288" y="47"/>
      <point x="141" y="30" type="curve"/>
      <point x="159" y="-80" type="line"/>
      <point x="312" y="-61"/>
      <point x="439" y="-34"/>
      <point x="541" y="-8" type="curve"/>
    </contour>
    <contour>
      <point x="854" y="250" type="line"/>
      <point x="802" y="201"/>
      <point x="742" y="165"/>
      <point x="665" y="128" type="curve"/>
      <point x="739" y="48" type="line"/>
      <point x="808" y="81"/>
      <point x="876" y="127"/>
      <point x="932" y="176" type="curve"/>
    </contour>
    <contour>
      <point x="732" y="353" type="line"/>
      <point x="732" y="439" type="line"/>
      <point x="260" y="439" type="line"/>
      <point x="260" y="353" type="line"/>
    </contour>
    <contour>
      <point x="591" y="537" type="line"/>
      <point x="570" y="593"/>
      <point x="545" y="651"/>
      <point x="518" y="695" type="curve"/>
      <point x="407" y="648" type="line"/>
      <point x="439" y="601"/>
      <point x="460" y="560"/>
      <point x="480" y="508" type="curve"/>
    </contour>
    <contour>
      <point x="450" y="120" type="line"/>
      <point x="574" y="70"/>
      <point x="734" y="-7"/>
      <point x="887" y="-89" type="curve"/>
      <point x="951" y="8" type="line"/>
      <point x="792" y="92"/>
      <point x="642" y="162"/>
      <point x="512" y="210" type="curve"/>
    </contour>
    <contour>
      <point x="64" y="499" type="line"/>
      <point x="323" y="590"/>
      <point x="455" y="677"/>
      <point x="487" y="778" type="curve"/>
      <point x="497" y="778" type="line"/>
      <point x="531" y="677"/>
      <point x="669" y="591"/>
      <point x="937" y="499" type="curve"/>
      <point x="985" y="607" type="line"/>
      <point x="734" y="690"/>
      <point x="624" y="752"/>
      <point x="567" y="842" type="curve"/>
      <point x="417" y="842" type="line"/>
      <point x="361" y="752"/>
      <point x="267" y="691"/>
      <point x="16" y="608" type="curve"/>
    </contour>
  </outline>
</glyph>
<glyph name="uni9999" format="2">
  <advance width="1000"/>
  <unicode hex="2FB9"/>
  <unicode hex="9999"/>
  <outline>
    <contour>
      <point x="784" y="211" type="line"/>
      <point x="235" y="211" type="line"/>
      <point x="235" y="119" type="line"/>
      <point x="784" y="119" type="line"/>
    </contour>
    <contour>
      <point x="79" y="312" type="line"/>
      <point x="274" y="384"/>
      <point x="390" y="428"/>
      <point x="423" y="538" type="curve"/>
      <point x="433" y="538" type="line"/>
      <point x="433" y="394" type="line"/>
      <point x="551" y="394" type="line"/>
      <point x="551" y="538" type="line"/>
      <point x="561" y="538" type="line"/>
      <point x="593" y="425"/>
      <point x="713" y="385"/>
      <point x="923" y="312" type="curve"/>
      <point x="974" y="413" type="line"/>
      <point x="778" y="472"/>
      <point x="649" y="521"/>
      <point x="575" y="606" type="curve"/>
      <point x="551" y="606" type="line"/>
      <point x="551" y="757" type="line"/>
      <point x="433" y="757" type="line"/>
      <point x="433" y="606" type="line"/>
      <point x="409" y="606" type="line"/>
      <point x="335" y="522"/>
      <point x="207" y="470"/>
      <point x="26" y="413" type="curve"/>
    </contour>
    <contour>
      <point x="954" y="548" type="line"/>
      <point x="954" y="649" type="line"/>
      <point x="46" y="649" type="line"/>
      <point x="46" y="548" type="line"/>
    </contour>
    <contour>
      <point x="119" y="712" type="line"/>
      <point x="374" y="712"/>
      <point x="678" y="725"/>
      <point x="896" y="749" type="curve"/>
      <point x="854" y="849" type="line"/>
      <point x="637" y="824"/>
      <point x="354" y="814"/>
      <point x="99" y="815" type="curve"/>
    </contour>
    <contour>
      <point x="164" y="363" type="line"/>
      <point x="164" y="-80" type="line"/>
      <point x="280" y="-80" type="line"/>
      <point x="280" y="-37" type="line"/>
      <point x="720" y="-37" type="line"/>
      <point x="720" y="-80" type="line"/>
      <point x="838" y="-80" type="line"/>
      <point x="838" y="363" type="line"/>
    </contour>
    <contour>
      <point x="280" y="265" type="line"/>
      <point x="720" y="265" type="line"/>
      <point x="720" y="62" type="line"/>
      <point x="280" y="62" type="line"/>
    </contour>
  </outline>
</glyph>
<glyph name="uni9ADF" format="2">
  <advance width="1000"/>
  <unicode hex="2FBD"/>
  <unicode hex="9ADF"/>
  <outline>
    <contour>
      <point x="821" y="847" type="line"/>
      <point x="743" y="746"/>
      <point x="647" y="674"/>
      <point x="526" y="611" type="curve"/>
      <point x="595" y="498" type="line"/>
      <point x="731" y="572"/>
      <point x="835" y="663"/>
      <point x="919" y="770" type="curve"/>
    </contour>
    <contour>
      <point x="846" y="590" type="line"/>
      <point x="765" y="486"/>
      <point x="656" y="398"/>
      <point x="525" y="333" type="curve"/>
      <point x="595" y="218" type="line"/>
      <point x="746" y="302"/>
      <point x="857" y="407"/>
      <point x="943" y="515" type="curve"/>
    </contour>
    <contour>
      <point x="871" y="316" type="line"/>
      <point x="777" y="200"/>
      <point x="658" y="102"/>
      <point x="504" y="27" type="curve"/>
      <point x="579" y="-88" type="line"/>
      <point x="734" y="-9"/>
      <point x="870" y="107"/>
      <point x="972" y="243" type="curve"/>
    </contour>
    <contour>
      <point x="40" y="250" type="line"/>
      <point x="520" y="250" type="line"/>
      <point x="520" y="353" type="line"/>
      <point x="40" y="353" type="line"/>
    </contour>
    <contour>
      <point x="490" y="659" type="line"/>
      <point x="180" y="659" type="line"/>
      <point x="180" y="569" type="line"/>
      <point x="490" y="569" type="line"/>
    </contour>
    <contour>
      <point x="490" y="509" type="line"/>
      <point x="180" y="509" type="line"/>
      <point x="180" y="419" type="line"/>
      <point x="490" y="419" type="line"/>
    </contour>
    <contour>
      <point x="443" y="100" type="line"/>
      <point x="324" y="76"/>
      <point x="198" y="60"/>
      <point x="53" y="48" type="curve"/>
      <point x="73" y="-60" type="line"/>
      <point x="216" y="-46"/>
      <point x="348" y="-29"/>
      <point x="464" y="-5" type="curve"/>
    </contour>
    <contour>
      <point x="542" y="-23" type="line"/>
      <point x="502" y="65"/>
      <point x="446" y="167"/>
      <point x="402" y="230" type="curve"/>
      <point x="306" y="179" type="line"/>
      <point x="349" y="112"/>
      <point x="407" y="0"/>
      <point x="442" y="-77" type="curve"/>
    </contour>
    <contour>
      <point x="175" y="35" type="line"/>
      <point x="218" y="99"/>
      <point x="258" y="183"/>
      <point x="286" y="260" type="curve"/>
      <point x="170" y="293" type="line"/>
      <point x="144" y="210"/>
      <point x="99" y="111"/>
      <point x="53" y="48" type="curve"/>
    </contour>
    <contour>
      <point x="211" y="289" type="line"/>
      <point x="211" y="718" type="line"/>
      <point x="509" y="718" type="line"/>
      <point x="509" y="819" type="line"/>
      <point x="95" y="819" type="line"/>
      <point x="95" y="289" type="line"/>
    </contour>
  </outline>
</glyph>
<glyph name="uni9E7F" format="2">
  <advance width="1000"/>
  <unicode hex="2FC5"/>
  <unicode hex="9E7F"/>
  <outline>
    <contour>
      <point x="131" y="-82" type="line"/>
      <point x="210" y="54"/>
      <point x="223" y="242"/>
      <point x="223" y="529" type="curve" smooth="yes"/>
      <point x="223" y="692" type="line"/>
      <point x="958" y="692" type="line"/>
      <point x="958" y="795" type="line"/>
      <point x="102" y="795" type="line"/>
      <point x="102" y="535" type="line" smooth="yes"/>
      <point x="102" y="275"/>
      <point x="89" y="113"/>
      <point x="24" y="7" type="curve"/>
    </contour>
    <contour>
      <point x="251" y="-83" type="line"/>
      <point x="335" y="-72"/>
      <point x="485" y="-46"/>
      <point x="569" y="-24" type="curve"/>
      <point x="559" y="82" type="line"/>
      <point x="445" y="55"/>
      <point x="292" y="33"/>
      <point x="227" y="26" type="curve"/>
    </contour>
    <contour>
      <point x="379" y="311" type="line"/>
      <point x="265" y="311" type="line"/>
      <point x="265" y="88" type="line" smooth="yes"/>
      <point x="265" y="53"/>
      <point x="255" y="33"/>
      <point x="227" y="26" type="curve"/>
      <point x="379" y="10" type="line"/>
    </contour>
    <contour>
      <point x="552" y="148" type="line"/>
      <point x="552" y="244" type="line"/>
      <point x="360" y="244" type="line"/>
      <point x="360" y="148" type="line"/>
    </contour>
    <contour>
      <point x="841" y="-68" type="line" smooth="yes"/>
      <point x="921" y="-68"/>
      <point x="955" y="-38"/>
      <point x="955" y="42" type="curve" smooth="yes"/>
      <point x="955" y="108" type="line"/>
      <point x="849" y="141" type="line"/>
      <point x="849" y="36" type="line"/>
      <point x="741" y="36" type="line" smooth="yes"/>
      <point x="717" y="36"/>
      <point x="711" y="45"/>
      <point x="711" y="66" type="curve" smooth="yes"/>
      <point x="711" y="313" type="line"/>
      <point x="597" y="313" type="line"/>
      <point x="597" y="52" type="line" smooth="yes"/>
      <point x="597" y="-38"/>
      <point x="627" y="-68"/>
      <point x="717" y="-68" type="curve" smooth="yes"/>
    </contour>
    <contour>
      <point x="473" y="378" type="line"/>
      <point x="473" y="710" type="line"/>
      <point x="363" y="710" type="line"/>
      <point x="363" y="378" type="line"/>
    </contour>
    <contour>
      <point x="695" y="126" type="line"/>
      <point x="784" y="145"/>
      <point x="880" y="175"/>
      <point x="945" y="202" type="curve"/>
      <point x="892" y="293" type="line"/>
      <point x="823" y="260"/>
      <point x="756" y="238"/>
      <point x="670" y="221" type="curve"/>
    </contour>
    <contour>
      <point x="932" y="338" type="line"/>
      <point x="932" y="620" type="line"/>
      <point x="197" y="620" type="line"/>
      <point x="197" y="524" type="line"/>
      <point x="818" y="524" type="line"/>
      <point x="818" y="434" type="line"/>
      <point x="197" y="434" type="line"/>
      <point x="197" y="338" type="line"/>
    </contour>
    <contour>
      <point x="706" y="378" type="line"/>
      <point x="706" y="710" type="line"/>
      <point x="596" y="710" type="line"/>
      <point x="596" y="378" type="line"/>
    </contour>
    <contour>
      <point x="606" y="763" type="line"/>
      <point x="593" y="801"/>
      <point x="578" y="828"/>
      <point x="556" y="864" type="curve"/>
      <point x="418" y="842" type="line"/>
      <point x="438" y="810"/>
      <point x="452" y="782"/>
      <point x="465" y="746" type="curve"/>
    </contour>
  </outline>
</glyph>
<glyph name="uni9EC3" format="2">
  <advance width="1000"/>
  <unicode hex="2FC8"/>
  <unicode hex="9EC3"/>
  <outline>
    <contour>
      <point x="880" y="84" type="line"/>
      <point x="880" y="417" type="line"/>
      <point x="120" y="417" type="line"/>
      <point x="120" y="84" type="line"/>
    </contour>
    <contour>
      <point x="238" y="336" type="line"/>
      <point x="763" y="336" type="line"/>
      <point x="763" y="169" type="line"/>
      <point x="238" y="169" type="line"/>
    </contour>
    <contour>
      <point x="805" y="218" type="line"/>
      <point x="805" y="288" type="line"/>
      <point x="195" y="288" type="line"/>
      <point x="195" y="218" type="line"/>
    </contour>
    <contour>
      <point x="550" y="120" type="line"/>
      <point x="550" y="516" type="line"/>
      <point x="434" y="516" type="line"/>
      <point x="434" y="120" type="line"/>
    </contour>
    <contour>
      <point x="960" y="459" type="line"/>
      <point x="960" y="551" type="line"/>
      <point x="40" y="551" type="line"/>
      <point x="40" y="459" type="line"/>
    </contour>
    <contour>
      <point x="380" y="628" type="line"/>
      <point x="380" y="840" type="line"/>
      <point x="262" y="840" type="line"/>
      <point x="262" y="628" type="line"/>
    </contour>
    <contour>
      <point x="728" y="585" type="line"/>
      <point x="728" y="666" type="line"/>
      <point x="262" y="666" type="line"/>
      <point x="262" y="585" type="line"/>
    </contour>
    <contour>
      <point x="919" y="701" type="line"/>
      <point x="919" y="789" type="line"/>
      <point x="81" y="789" type="line"/>
      <point x="81" y="701" type="line"/>
    </contour>
    <contour>
      <point x="728" y="628" type="line"/>
      <point x="728" y="840" type="line"/>
      <point x="608" y="840" type="line"/>
      <point x="608" y="628" type="line"/>
    </contour>
    <contour>
      <point x="356" y="91" type="line"/>
      <point x="277" y="54"/>
      <point x="173" y="22"/>
      <point x="50" y="3" type="curve"/>
      <point x="96" y="-85" type="line"/>
      <point x="228" y="-65"/>
      <point x="341" y="-26"/>
      <point x="427" y="19" type="curve"/>
    </contour>
    <contour>
      <point x="949" y="-2" type="line"/>
      <point x="835" y="38"/>
      <point x="725" y="71"/>
      <point x="622" y="92" type="curve"/>
      <point x="571" y="11" type="line"/>
      <point x="675" y="-11"/>
      <point x="783" y="-46"/>
      <point x="892" y="-88" type="curve"/>
    </contour>
  </outline>
</glyph>
<glyph name="uni9ECD" format="2">
  <advance width="1000"/>
  <unicode hex="2FC9"/>
  <unicode hex="9ECD"/>
  <outline>
    <contour>
      <point x="71" y="348" type="line"/>
      <point x="308" y="419"/>
      <point x="405" y="465"/>
      <point x="423" y="548" type="curve"/>
      <point x="433" y="548" type="line"/>
      <point x="433" y="444" type="line"/>
      <point x="551" y="444" type="line"/>
      <point x="551" y="472" type="line" smooth="yes"/>
      <point x="551" y="478"/>
      <point x="554" y="479"/>
      <point x="558" y="478" type="curve" smooth="yes"/>
      <point x="918" y="351" type="line"/>
      <point x="959" y="444" type="line"/>
      <point x="637" y="550" type="line" smooth="yes"/>
      <point x="604" y="561"/>
      <point x="586" y="553"/>
      <point x="571" y="532" type="curve" smooth="yes"/>
      <point x="559" y="516" type="line"/>
      <point x="551" y="516" type="line"/>
      <point x="551" y="768" type="line"/>
      <point x="433" y="768" type="line"/>
      <point x="433" y="613" type="line"/>
      <point x="403" y="613" type="line"/>
      <point x="363" y="550"/>
      <point x="255" y="502"/>
      <point x="30" y="447" type="curve"/>
    </contour>
    <contour>
      <point x="96" y="-51" type="line"/>
      <point x="249" y="-1"/>
      <point x="373" y="49"/>
      <point x="493" y="103" type="curve"/>
      <point x="465" y="193" type="line"/>
      <point x="334" y="133"/>
      <point x="208" y="88"/>
      <point x="57" y="48" type="curve"/>
    </contour>
    <contour>
      <point x="372" y="192" type="line"/>
      <point x="345" y="221"/>
      <point x="312" y="252"/>
      <point x="282" y="275" type="curve"/>
      <point x="205" y="211" type="line"/>
      <point x="240" y="184"/>
      <point x="268" y="159"/>
      <point x="298" y="129" type="curve"/>
    </contour>
    <contour>
      <point x="435" y="-81" type="line" smooth="yes"/>
      <point x="518" y="-81"/>
      <point x="549" y="-53"/>
      <point x="549" y="23" type="curve" smooth="yes"/>
      <point x="549" y="70" type="line" smooth="yes"/>
      <point x="549" y="82"/>
      <point x="553" y="87"/>
      <point x="564" y="82" type="curve" smooth="yes"/>
      <point x="888" y="-58" type="line"/>
      <point x="936" y="34" type="line"/>
      <point x="625" y="164" type="line" smooth="yes"/>
      <point x="600" y="175"/>
      <point x="582" y="169"/>
      <point x="569" y="150" type="curve" smooth="yes"/>
      <point x="558" y="134" type="line"/>
      <point x="549" y="134" type="line"/>
      <point x="549" y="333" type="line"/>
      <point x="437" y="333" type="line"/>
      <point x="437" y="13" type="line"/>
      <point x="318" y="13" type="line"/>
      <point x="344" y="-81" type="line"/>
    </contour>
    <contour>
      <point x="684" y="130" type="line"/>
      <point x="719" y="154"/>
      <point x="755" y="186"/>
      <point x="787" y="218" type="curve"/>
      <point x="702" y="278" type="line"/>
      <point x="675" y="248"/>
      <point x="647" y="226"/>
      <point x="608" y="201" type="curve"/>
    </contour>
    <contour>
      <point x="941" y="567" type="line"/>
      <point x="941" y="661" type="line"/>
      <point x="59" y="661" type="line"/>
      <point x="59" y="567" type="line"/>
    </contour>
    <contour>
      <point x="119" y="702" type="line"/>
      <point x="387" y="704"/>
      <point x="686" y="721"/>
      <point x="896" y="754" type="curve"/>
      <point x="846" y="844" type="line"/>
      <point x="626" y="811"/>
      <point x="368" y="798"/>
      <point x="102" y="796" type="curve"/>
    </contour>
    <contour>
      <point x="65" y="162" type="line"/>
      <point x="319" y="239"/>
      <point x="445" y="303"/>
      <point x="487" y="419" type="curve"/>
      <point x="497" y="419" type="line"/>
      <point x="540" y="302"/>
      <point x="672" y="242"/>
      <point x="937" y="162" type="curve"/>
      <point x="977" y="264" type="line"/>
      <point x="724" y="337"/>
      <point x="606" y="400"/>
      <point x="550" y="474" type="curve"/>
      <point x="434" y="474" type="line"/>
      <point x="377" y="400"/>
      <point x="280" y="337"/>
      <point x="24" y="265" type="curve"/>
    </contour>
  </outline>
</glyph>
<glyph name="uni9ED1" format="2">
  <advance width="1000"/>
  <unicode hex="2FCA"/>
  <unicode hex="9ED1"/>
  <outline>
    <contour>
      <point x="871" y="429" type="line"/>
      <point x="871" y="821" type="line"/>
      <point x="129" y="821" type="line"/>
      <point x="129" y="429" type="line"/>
    </contour>
    <contour>
      <point x="147" y="-92" type="line"/>
      <point x="199" y="-36"/>
      <point x="243" y="28"/>
      <point x="268" y="87" type="curve"/>
      <point x="168" y="124" type="line"/>
      <point x="139" y="72"/>
      <point x="96" y="18"/>
      <point x="44" y="-31" type="curve"/>
    </contour>
    <contour>
      <point x="472" y="-77" type="line"/>
      <point x="468" y="-10"/>
      <point x="459" y="45"/>
      <point x="448" y="97" type="curve"/>
      <point x="333" y="90" type="line"/>
      <point x="341" y="32"/>
      <point x="345" y="-22"/>
      <point x="348" y="-87" type="curve"/>
    </contour>
    <contour>
      <point x="707" y="-64" type="line"/>
      <point x="691" y="1"/>
      <point x="671" y="58"/>
      <point x="648" y="107" type="curve"/>
      <point x="537" y="89" type="line"/>
      <point x="556" y="34"/>
      <point x="570" y="-23"/>
      <point x="582" y="-85" type="curve"/>
    </contour>
    <contour>
      <point x="959" y="-45" type="line"/>
      <point x="923" y="22"/>
      <point x="880" y="79"/>
      <point x="841" y="125" type="curve"/>
      <point x="740" y="88" type="line"/>
      <point x="777" y="35"/>
      <point x="815" y="-26"/>
      <point x="848" y="-92" type="curve"/>
    </contour>
    <contour>
      <point x="955" y="132" type="line"/>
      <point x="955" y="230" type="line"/>
      <point x="45" y="230" type="line"/>
      <point x="45" y="132" type="line"/>
    </contour>
    <contour>
      <point x="905" y="283" type="line"/>
      <point x="905" y="377" type="line"/>
      <point x="95" y="377" type="line"/>
      <point x="95" y="283" type="line"/>
    </contour>
    <contour>
      <point x="414" y="579" type="line"/>
      <point x="394" y="624"/>
      <point x="368" y="672"/>
      <point x="339" y="711" type="curve"/>
      <point x="255" y="667" type="line"/>
      <point x="285" y="625"/>
      <point x="310" y="581"/>
      <point x="331" y="536" type="curve"/>
    </contour>
    <contour>
      <point x="548" y="194" type="line"/>
      <point x="548" y="778" type="line"/>
      <point x="435" y="778" type="line"/>
      <point x="435" y="194" type="line"/>
    </contour>
    <contour>
      <point x="241" y="725" type="line"/>
      <point x="757" y="725" type="line"/>
      <point x="757" y="525" type="line"/>
      <point x="241" y="525" type="line"/>
    </contour>
    <contour>
      <point x="649" y="536" type="line"/>
      <point x="679" y="572"/>
      <point x="711" y="622"/>
      <point x="735" y="670" type="curve"/>
      <point x="649" y="714" type="line"/>
      <point x="625" y="665"/>
      <point x="598" y="622"/>
      <point x="567" y="585" type="curve"/>
    </contour>
  </outline>
</glyph>
<glyph name="uni9EF9" format="2">
  <advance width="1000"/>
  <unicode hex="2FCB"/>
  <unicode hex="9EF9"/>
  <outline>
    <contour>
      <point x="221" y="-81" type="line"/>
      <point x="221" y="347" type="line"/>
      <point x="782" y="347" type="line"/>
      <point x="782" y="28" type="line"/>
      <point x="620" y="28" type="line"/>
      <point x="647" y="-70" type="line"/>
      <point x="775" y="-70" type="line" smooth="yes"/>
      <point x="866" y="-70"/>
      <point x="899" y="-40"/>
      <point x="899" y="44" type="curve" smooth="yes"/>
      <point x="899" y="443" type="line"/>
      <point x="105" y="443" type="line"/>
      <point x="105" y="-81" type="line"/>
    </contour>
    <contour>
      <point x="328" y="44" type="line"/>
      <point x="373" y="122"/>
      <point x="399" y="206"/>
      <point x="409" y="279" type="curve"/>
      <point x="309" y="300" type="line"/>
      <point x="301" y="234"/>
      <point x="276" y="161"/>
      <point x="229" y="97" type="curve"/>
    </contour>
    <contour>
      <point x="349" y="478" type="line"/>
      <point x="326" y="517"/>
      <point x="296" y="553"/>
      <point x="270" y="581" type="curve"/>
      <point x="167" y="532" type="line"/>
      <point x="199" y="501"/>
      <point x="225" y="468"/>
      <point x="248" y="432" type="curve"/>
    </contour>
    <contour>
      <point x="550" y="-69" type="line"/>
      <point x="550" y="623" type="line"/>
      <point x="436" y="623" type="line"/>
      <point x="436" y="-69" type="line"/>
    </contour>
    <contour>
      <point x="758" y="109" type="line"/>
      <point x="737" y="177"/>
      <point x="703" y="252"/>
      <point x="669" y="309" type="curve"/>
      <point x="575" y="268" type="line"/>
      <point x="612" y="203"/>
      <point x="639" y="130"/>
      <point x="657" y="66" type="curve"/>
    </contour>
    <contour>
      <point x="297" y="706" type="line"/>
      <point x="274" y="753"/>
      <point x="244" y="796"/>
      <point x="218" y="829" type="curve"/>
      <point x="115" y="780" type="line"/>
      <point x="147" y="743"/>
      <point x="173" y="703"/>
      <point x="196" y="660" type="curve"/>
    </contour>
    <contour>
      <point x="955" y="571" type="line"/>
      <point x="955" y="671" type="line"/>
      <point x="43" y="671" type="line"/>
      <point x="43" y="571" type="line"/>
    </contour>
    <contour>
      <point x="451" y="623" type="line"/>
      <point x="451" y="841" type="line"/>
      <point x="341" y="841" type="line"/>
      <point x="341" y="623" type="line"/>
    </contour>
    <contour>
      <point x="741" y="428" type="line"/>
      <point x="778" y="459"/>
      <point x="809" y="495"/>
      <point x="834" y="531" type="curve"/>
      <point x="729" y="581" type="line"/>
      <point x="705" y="541"/>
      <point x="679" y="508"/>
      <point x="642" y="474" type="curve"/>
    </contour>
    <contour>
      <point x="644" y="623" type="line"/>
      <point x="644" y="841" type="line"/>
      <point x="532" y="841" type="line"/>
      <point x="532" y="623" type="line"/>
    </contour>
    <contour>
      <point x="790" y="660" type="line"/>
      <point x="827" y="697"/>
      <point x="860" y="741"/>
      <point x="885" y="784" type="curve"/>
      <point x="779" y="831" type="line"/>
      <point x="755" y="784"/>
      <point x="729" y="744"/>
      <point x="692" y="704" type="curve"/>
    </contour>
  </outline>
</glyph>
<glyph name="uni9F0E" format="2">
  <advance width="1000"/>
  <unicode hex="2FCD"/>
  <unicode hex="9F0E"/>
  <outline>
    <contour>
      <point x="658" y="531" type="line"/>
      <point x="658" y="601" type="line"/>
      <point x="331" y="601" type="line"/>
      <point x="331" y="531" type="line"/>
    </contour>
    <contour>
      <point x="658" y="637" type="line"/>
      <point x="658" y="707" type="line"/>
      <point x="331" y="707" type="line"/>
      <point x="331" y="637" type="line"/>
    </contour>
    <contour>
      <point x="385" y="127" type="line"/>
      <point x="385" y="225" type="line"/>
      <point x="42" y="225" type="line"/>
      <point x="42" y="127" type="line"/>
    </contour>
    <contour>
      <point x="943" y="125" type="line"/>
      <point x="943" y="223" type="line"/>
      <point x="610" y="223" type="line"/>
      <point x="610" y="125" type="line"/>
    </contour>
    <contour>
      <point x="825" y="208" type="line"/>
      <point x="825" y="-80" type="line"/>
      <point x="943" y="-80" type="line"/>
      <point x="943" y="208" type="line"/>
    </contour>
    <contour>
      <point x="173" y="164" type="line" smooth="yes"/>
      <point x="173" y="93"/>
      <point x="136" y="50"/>
      <point x="44" y="13" type="curve"/>
      <point x="101" y="-87" type="line"/>
      <point x="243" y="-22"/>
      <point x="283" y="63"/>
      <point x="283" y="174" type="curve" smooth="yes"/>
      <point x="283" y="211" type="line"/>
      <point x="173" y="211" type="line"/>
    </contour>
    <contour>
      <point x="342" y="275" type="line"/>
      <point x="342" y="-80" type="line"/>
      <point x="458" y="-80" type="line"/>
      <point x="458" y="367" type="line"/>
      <point x="197" y="367" type="line"/>
      <point x="197" y="772" type="line"/>
      <point x="82" y="772" type="line"/>
      <point x="82" y="275" type="line"/>
    </contour>
    <contour>
      <point x="643" y="-80" type="line"/>
      <point x="643" y="275" type="line"/>
      <point x="922" y="275" type="line"/>
      <point x="922" y="772" type="line"/>
      <point x="806" y="772" type="line"/>
      <point x="806" y="367" type="line"/>
      <point x="527" y="367" type="line"/>
      <point x="527" y="-80" type="line"/>
    </contour>
    <contour>
      <point x="740" y="406" type="line"/>
      <point x="740" y="828" type="line"/>
      <point x="259" y="828" type="line"/>
      <point x="259" y="406" type="line"/>
    </contour>
    <contour>
      <point x="370" y="742" type="line"/>
      <point x="628" y="742" type="line"/>
      <point x="628" y="490" type="line"/>
      <point x="370" y="490" type="line"/>
    </contour>
  </outline>
</glyph>
<glyph name="uni9F13" format="2">
  <advance width="1000"/>
  <unicode hex="2FCE"/>
  <unicode hex="9F13"/>
  <outline>
    <contour>
      <point x="661" y="423" type="line"/>
      <point x="776" y="423" type="line"/>
      <point x="776" y="840" type="line"/>
      <point x="661" y="840" type="line"/>
    </contour>
    <contour>
      <point x="474" y="604" type="line"/>
      <point x="965" y="604" type="line"/>
      <point x="965" y="718" type="line"/>
      <point x="474" y="718" type="line"/>
    </contour>
    <contour>
      <point x="490" y="-88" type="line"/>
      <point x="738" y="10"/>
      <point x="893" y="174"/>
      <point x="946" y="405" type="curve"/>
      <point x="946" y="490" type="line"/>
      <point x="480" y="490" type="line"/>
      <point x="480" y="376" type="line"/>
      <point x="835" y="376" type="line"/>
      <point x="822" y="403" type="line"/>
      <point x="784" y="234"/>
      <point x="649" y="100"/>
      <point x="432" y="24" type="curve"/>
    </contour>
    <contour>
      <point x="978" y="23" type="line"/>
      <point x="795" y="98"/>
      <point x="696" y="202"/>
      <point x="615" y="383" type="curve"/>
      <point x="510" y="334" type="line"/>
      <point x="601" y="124"/>
      <point x="724" y="0"/>
      <point x="916" y="-88" type="curve"/>
    </contour>
    <contour>
      <point x="41" y="669" type="line"/>
      <point x="456" y="669" type="line"/>
      <point x="456" y="771" type="line"/>
      <point x="41" y="771" type="line"/>
    </contour>
    <contour>
      <point x="51" y="504" type="line"/>
      <point x="446" y="504" type="line"/>
      <point x="446" y="605" type="line"/>
      <point x="51" y="605" type="line"/>
    </contour>
    <contour>
      <point x="301" y="542" type="line"/>
      <point x="301" y="845" type="line"/>
      <point x="193" y="845" type="line"/>
      <point x="193" y="542" type="line"/>
    </contour>
    <contour>
      <point x="435" y="185" type="line"/>
      <point x="435" y="450" type="line"/>
      <point x="60" y="450" type="line"/>
      <point x="60" y="185" type="line"/>
    </contour>
    <contour>
      <point x="58" y="-93" type="line"/>
      <point x="169" y="-83"/>
      <point x="340" y="-63"/>
      <point x="452" y="-38" type="curve"/>
      <point x="446" y="66" type="line"/>
      <point x="322" y="46"/>
      <point x="156" y="28"/>
      <point x="41" y="20" type="curve"/>
    </contour>
    <contour>
      <point x="170" y="357" type="line"/>
      <point x="327" y="357" type="line"/>
      <point x="327" y="278" type="line"/>
      <point x="170" y="278" type="line"/>
    </contour>
    <contour>
      <point x="84" y="163" type="line"/>
      <point x="99" y="123"/>
      <point x="115" y="63"/>
      <point x="126" y="20" type="curve"/>
      <point x="222" y="50" type="line"/>
      <point x="213" y="92"/>
      <point x="195" y="155"/>
      <point x="181" y="193" type="curve"/>
    </contour>
    <contour>
      <point x="302" y="200" type="line"/>
      <point x="289" y="141"/>
      <point x="267" y="68"/>
      <point x="243" y="8" type="curve"/>
      <point x="339" y="11" type="line"/>
      <point x="362" y="50"/>
      <point x="390" y="119"/>
      <point x="406" y="169" type="curve"/>
    </contour>
  </outline>
</glyph>
<glyph name="uni9F20" format="2">
  <advance width="1000"/>
  <unicode hex="2FCF"/>
  <unicode hex="9F20"/>
  <outline>
    <contour>
      <point x="905" y="438" type="line"/>
      <point x="905" y="808" type="line"/>
      <point x="527" y="808" type="line"/>
      <point x="527" y="718" type="line"/>
      <point x="789" y="718" type="line"/>
      <point x="789" y="530" type="line"/>
      <point x="210" y="530" type="line"/>
      <point x="210" y="716" type="line"/>
      <point x="302" y="724"/>
      <point x="402" y="735"/>
      <point x="488" y="758" type="curve"/>
      <point x="431" y="847" type="line"/>
      <point x="340" y="821"/>
      <point x="233" y="806"/>
      <point x="96" y="796" type="curve"/>
      <point x="96" y="438" type="line"/>
    </contour>
    <contour>
      <point x="109" y="-86" type="line"/>
      <point x="200" y="-72"/>
      <point x="316" y="-47"/>
      <point x="385" y="-26" type="curve"/>
      <point x="371" y="65" type="line"/>
      <point x="296" y="46"/>
      <point x="188" y="27"/>
      <point x="83" y="8" type="curve"/>
    </contour>
    <contour>
      <point x="233" y="408" type="line"/>
      <point x="121" y="408" type="line"/>
      <point x="121" y="66" type="line" smooth="yes"/>
      <point x="121" y="29"/>
      <point x="111" y="15"/>
      <point x="83" y="8" type="curve"/>
      <point x="233" y="-1" type="line"/>
    </contour>
    <contour>
      <point x="422" y="149" type="line"/>
      <point x="387" y="182"/>
      <point x="343" y="213"/>
      <point x="298" y="240" type="curve"/>
      <point x="241" y="165" type="line"/>
      <point x="282" y="142"/>
      <point x="330" y="105"/>
      <point x="365" y="74" type="curve"/>
    </contour>
    <contour>
      <point x="425" y="-86" type="line"/>
      <point x="537" y="-72"/>
      <point x="671" y="-47"/>
      <point x="750" y="-22" type="curve"/>
      <point x="736" y="69" type="line"/>
      <point x="650" y="46"/>
      <point x="525" y="27"/>
      <point x="405" y="9" type="curve"/>
    </contour>
    <contour>
      <point x="422" y="308" type="line"/>
      <point x="390" y="336"/>
      <point x="338" y="374"/>
      <point x="302" y="394" type="curve"/>
      <point x="245" y="325" type="line"/>
      <point x="283" y="302"/>
      <point x="328" y="271"/>
      <point x="365" y="237" type="curve"/>
    </contour>
    <contour>
      <point x="543" y="408" type="line"/>
      <point x="433" y="408" type="line"/>
      <point x="433" y="57" type="line" smooth="yes"/>
      <point x="433" y="27"/>
      <point x="423" y="14"/>
      <point x="405" y="9" type="curve"/>
      <point x="543" y="-1" type="line"/>
    </contour>
    <contour>
      <point x="738" y="142" type="line"/>
      <point x="701" y="175"/>
      <point x="656" y="205"/>
      <point x="610" y="232" type="curve"/>
      <point x="553" y="159" type="line"/>
      <point x="596" y="136"/>
      <point x="643" y="101"/>
      <point x="680" y="70" type="curve"/>
    </contour>
    <contour>
      <point x="443" y="583" type="line"/>
      <point x="443" y="669" type="line"/>
      <point x="167" y="669" type="line"/>
      <point x="167" y="583" type="line"/>
    </contour>
    <contour>
      <point x="735" y="302" type="line"/>
      <point x="701" y="330"/>
      <point x="645" y="368"/>
      <point x="606" y="388" type="curve"/>
      <point x="549" y="319" type="line"/>
      <point x="590" y="297"/>
      <point x="637" y="264"/>
      <point x="678" y="231" type="curve"/>
    </contour>
    <contour>
      <point x="793" y="-18" type="curve" smooth="yes"/>
      <point x="839" y="-111"/>
      <point x="951" y="-96"/>
      <point x="965" y="8" type="curve" smooth="yes"/>
      <point x="984" y="151" type="line"/>
      <point x="899" y="192" type="line"/>
      <point x="884" y="32" type="line"/>
      <point x="855" y="130"/>
      <point x="853" y="233"/>
      <point x="853" y="319" type="curve" smooth="yes"/>
      <point x="853" y="408" type="line"/>
      <point x="741" y="408" type="line"/>
      <point x="741" y="320" type="line" smooth="yes"/>
      <point x="741" y="182"/>
      <point x="749" y="71"/>
    </contour>
    <contour>
      <point x="842" y="583" type="line"/>
      <point x="842" y="669" type="line"/>
      <point x="541" y="669" type="line"/>
      <point x="541" y="583" type="line"/>
    </contour>
  </outline>
</glyph>
<glyph name="uni9F3B" format="2">
  <advance width="1000"/>
  <unicode hex="2FD0"/>
  <unicode hex="9F3B"/>
  <outline>
    <contour>
      <point x="445" y="851" type="line"/>
      <point x="435" y="822"/>
      <point x="418" y="789"/>
      <point x="395" y="763" type="curve"/>
      <point x="518" y="763" type="line"/>
      <point x="539" y="783"/>
      <point x="560" y="814"/>
      <point x="569" y="839" type="curve"/>
    </contour>
    <contour>
      <point x="147" y="792" type="line"/>
      <point x="147" y="469" type="line"/>
      <point x="854" y="469" type="line"/>
      <point x="854" y="792" type="line"/>
    </contour>
    <contour>
      <point x="263" y="731" type="line"/>
      <point x="736" y="731" type="line"/>
      <point x="736" y="528" type="line"/>
      <point x="263" y="528" type="line"/>
    </contour>
    <contour>
      <point x="763" y="698" type="line"/>
      <point x="235" y="698" type="line"/>
      <point x="235" y="647" type="line"/>
      <point x="763" y="647" type="line"/>
    </contour>
    <contour>
      <point x="763" y="614" type="line"/>
      <point x="235" y="614" type="line"/>
      <point x="235" y="563" type="line"/>
      <point x="763" y="563" type="line"/>
    </contour>
    <contour>
      <point x="840" y="336" type="line"/>
      <point x="159" y="336" type="line"/>
      <point x="159" y="278" type="line"/>
      <point x="840" y="278" type="line"/>
    </contour>
    <contour>
      <point x="90" y="436" type="line"/>
      <point x="90" y="177" type="line"/>
      <point x="911" y="177" type="line"/>
      <point x="911" y="436" type="line"/>
    </contour>
    <contour>
      <point x="204" y="372" type="line"/>
      <point x="795" y="372" type="line"/>
      <point x="795" y="241" type="line"/>
      <point x="204" y="241" type="line"/>
    </contour>
    <contour>
      <point x="436" y="198" type="line"/>
      <point x="548" y="198" type="line"/>
      <point x="548" y="418" type="line"/>
      <point x="436" y="418" type="line"/>
    </contour>
    <contour>
      <point x="40" y="58" type="line"/>
      <point x="960" y="58" type="line"/>
      <point x="960" y="143" type="line"/>
      <point x="40" y="143" type="line"/>
    </contour>
    <contour>
      <point x="137" y="-93" type="line"/>
      <point x="327" y="-63"/>
      <point x="400" y="16"/>
      <point x="400" y="122" type="curve" smooth="yes"/>
      <point x="400" y="132" type="line"/>
      <point x="290" y="132" type="line"/>
      <point x="290" y="122" type="line" smooth="yes"/>
      <point x="290" y="47"/>
      <point x="243" y="25"/>
      <point x="95" y="-1" type="curve"/>
    </contour>
    <contour>
      <point x="731" y="-84" type="line"/>
      <point x="731" y="132" type="line"/>
      <point x="619" y="132" type="line"/>
      <point x="619" y="-84" type="line"/>
    </contour>
  </outline>
</glyph>
<glyph name="uni9FA0" format="2">
  <advance width="1000"/>
  <unicode hex="2FD5"/>
  <unicode hex="9FA0"/>
  <outline>
    <contour>
      <point x="374" y="545" type="line"/>
      <point x="374" y="357" type="line"/>
      <point x="621" y="357" type="line"/>
      <point x="621" y="545" type="line"/>
    </contour>
    <contour>
      <point x="455" y="479" type="line"/>
      <point x="538" y="479" type="line"/>
      <point x="538" y="424" type="line"/>
      <point x="455" y="424" type="line"/>
    </contour>
    <contour>
      <point x="93" y="545" type="line"/>
      <point x="93" y="357" type="line"/>
      <point x="338" y="357" type="line"/>
      <point x="338" y="545" type="line"/>
    </contour>
    <contour>
      <point x="180" y="479" type="line"/>
      <point x="257" y="479" type="line"/>
      <point x="257" y="424" type="line"/>
      <point x="180" y="424" type="line"/>
    </contour>
    <contour>
      <point x="657" y="545" type="line"/>
      <point x="657" y="357" type="line"/>
      <point x="907" y="357" type="line"/>
      <point x="907" y="545" type="line"/>
    </contour>
    <contour>
      <point x="736" y="479" type="line"/>
      <point x="818" y="479" type="line"/>
      <point x="818" y="424" type="line"/>
      <point x="736" y="424" type="line"/>
    </contour>
    <contour>
      <point x="712" y="578" type="line"/>
      <point x="712" y="666" type="line"/>
      <point x="282" y="666" type="line"/>
      <point x="282" y="578" type="line"/>
    </contour>
    <contour>
      <point x="113" y="-84" type="line"/>
      <point x="225" y="-84" type="line"/>
      <point x="225" y="234" type="line"/>
      <point x="778" y="234" type="line"/>
      <point x="778" y="17" type="line"/>
      <point x="694" y="17" type="line"/>
      <point x="715" y="-82" type="line"/>
      <point x="781" y="-82" type="line" smooth="yes"/>
      <point x="865" y="-82"/>
      <point x="892" y="-55"/>
      <point x="892" y="23" type="curve" smooth="yes"/>
      <point x="892" y="322" type="line"/>
      <point x="113" y="322" type="line"/>
    </contour>
    <contour>
      <point x="797" y="88" type="line"/>
      <point x="797" y="169" type="line"/>
      <point x="192" y="169" type="line"/>
      <point x="192" y="88" type="line"/>
    </contour>
    <contour>
      <point x="441" y="-62" type="line"/>
      <point x="441" y="284" type="line"/>
      <point x="336" y="284" type="line"/>
      <point x="336" y="-62" type="line"/>
    </contour>
    <contour>
      <point x="656" y="-62" type="line"/>
      <point x="656" y="284" type="line"/>
      <point x="549" y="284" type="line"/>
      <point x="549" y="-62" type="line"/>
    </contour>
    <contour>
      <point x="69" y="544" type="line"/>
      <point x="319" y="617"/>
      <point x="448" y="686"/>
      <point x="487" y="796" type="curve"/>
      <point x="497" y="796" type="line"/>
      <point x="537" y="685"/>
      <point x="672" y="617"/>
      <point x="932" y="544" type="curve"/>
      <point x="977" y="656" type="line"/>
      <point x="740" y="714"/>
      <point x="623" y="771"/>
      <point x="570" y="851" type="curve"/>
      <point x="414" y="851" type="line"/>
      <point x="361" y="771"/>
      <point x="254" y="715"/>
      <point x="24" y="656" type="curve"/>
    </contour>
  </outline>
</glyph>
<glyph name="uni3447" format="2">
  <advance width="1000"/>
  <unicode hex="3447"/>
  <outline>
    <contour>
      <point x="268" y="-80" type="line"/>
      <point x="268" y="725" type="line"/>
      <point x="151" y="536" type="line"/>
      <point x="151" y="-80" type="line"/>
    </contour>
    <contour>
      <point x="230" y="856" type="line"/>
      <point x="181" y="668"/>
      <point x="116" y="538"/>
      <point x="7" y="428" type="curve"/>
      <point x="66" y="311" type="line"/>
      <point x="203" y="449"/>
      <point x="293" y="627"/>
      <point x="340" y="822" type="curve"/>
    </contour>
    <contour>
      <point x="941" y="-80" type="line"/>
      <point x="941" y="500" type="line"/>
      <point x="325" y="500" type="line"/>
      <point x="325" y="393" type="line"/>
      <point x="820" y="393" type="line"/>
      <point x="820" y="84" type="line"/>
      <point x="317" y="84" type="line"/>
      <point x="317" y="-26" type="line"/>
      <point x="820" y="-26" type="line"/>
      <point x="820" y="-80" type="line"/>
    </contour>
    <contour>
      <point x="898" y="189" type="line"/>
      <point x="898" y="295" type="line"/>
      <point x="353" y="295" type="line"/>
      <point x="353" y="189" type="line"/>
    </contour>
    <contour>
      <point x="349" y="465" type="line"/>
      <point x="484" y="564"/>
      <point x="585" y="687"/>
      <point x="644" y="826" type="curve"/>
      <point x="528" y="854" type="line"/>
      <point x="481" y="740"/>
      <point x="389" y="636"/>
      <point x="282" y="569" type="curve"/>
    </contour>
    <contour>
      <point x="739" y="462" type="line"/>
      <point x="797" y="517"/>
      <point x="857" y="594"/>
      <point x="888" y="663" type="curve"/>
      <point x="888" y="758" type="line"/>
      <point x="488" y="758" type="line"/>
      <point x="488" y="652" type="line"/>
      <point x="745" y="652" type="line"/>
      <point x="713" y="592"/>
      <point x="656" y="529"/>
      <point x="591" y="475" type="curve"/>
    </contour>
  </outline>
</glyph>
<glyph name="uni344A" format="2">
  <advance width="1000"/>
  <unicode hex="344A"/>
  <outline>
    <contour>
      <point x="357" y="-94" type="line"/>
      <point x="521" y="73"/>
      <point x="565" y="240"/>
      <point x="569" y="461" type="curve" smooth="yes"/>
      <point x="572" y="632" type="line"/>
      <point x="458" y="632" type="line"/>
      <point x="456" y="461" type="line" smooth="yes"/>
      <point x="454" y="278"/>
      <point x="413" y="143"/>
      <point x="274" y="-8" type="curve"/>
    </contour>
    <contour>
      <point x="311" y="137" type="line"/>
      <point x="382" y="248"/>
      <point x="420" y="370"/>
      <point x="448" y="487" type="curve"/>
      <point x="344" y="516" type="line"/>
      <point x="317" y="404"/>
      <point x="289" y="308"/>
      <point x="218" y="210" type="curve"/>
    </contour>
    <contour>
      <point x="632" y="-74" type="line" smooth="yes"/>
      <point x="717" y="-74"/>
      <point x="758" y="-40"/>
      <point x="758" y="43" type="curve" smooth="yes"/>
      <point x="758" y="629" type="line"/>
      <point x="642" y="629" type="line"/>
      <point x="642" y="39" type="line"/>
      <point x="543" y="39" type="line"/>
      <point x="573" y="-74" type="line"/>
    </contour>
    <contour>
      <point x="968" y="155" type="line"/>
      <point x="945" y="293"/>
      <point x="904" y="421"/>
      <point x="867" y="518" type="curve"/>
      <point x="765" y="478" type="line"/>
      <point x="802" y="375"/>
      <point x="840" y="241"/>
      <point x="861" y="114" type="curve"/>
    </contour>
    <contour>
      <point x="963" y="589" type="line"/>
      <point x="963" y="701" type="line"/>
      <point x="283" y="701" type="line"/>
      <point x="283" y="589" type="line"/>
    </contour>
    <contour>
      <point x="707" y="686" type="line"/>
      <point x="682" y="745"/>
      <point x="649" y="804"/>
      <point x="616" y="851" type="curve"/>
      <point x="516" y="808" type="line"/>
      <point x="549" y="762"/>
      <point x="573" y="721"/>
      <point x="593" y="672" type="curve"/>
    </contour>
    <contour>
      <point x="234" y="-80" type="line"/>
      <point x="234" y="749" type="line"/>
      <point x="123" y="536" type="line"/>
      <point x="123" y="-80" type="line"/>
    </contour>
    <contour>
      <point x="188" y="856" type="line"/>
      <point x="151" y="673"/>
      <point x="97" y="535"/>
      <point x="7" y="423" type="curve"/>
      <point x="60" y="307" type="line"/>
      <point x="178" y="448"/>
      <point x="257" y="636"/>
      <point x="294" y="826" type="curve"/>
    </contour>
  </outline>
</glyph>
<glyph name="uni360E" format="2">
  <advance width="1000"/>
  <unicode hex="360E"/>
  <outline>
    <contour>
      <point x="834" y="-67" type="line" smooth="yes"/>
      <point x="914" y="-67"/>
      <point x="938" y="-37"/>
      <point x="938" y="47" type="curve" smooth="yes"/>
      <point x="938" y="820" type="line"/>
      <point x="537" y="820" type="line"/>
      <point x="537" y="720" type="line"/>
      <point x="841" y="720" type="line"/>
      <point x="841" y="29" type="line"/>
      <point x="758" y="29" type="line"/>
      <point x="785" y="-67" type="line"/>
    </contour>
    <contour>
      <point x="254" y="58" type="line"/>
      <point x="254" y="157" type="line"/>
      <point x="82" y="157" type="line"/>
      <point x="82" y="58" type="line"/>
    </contour>
    <contour>
      <point x="155" y="-19" type="line"/>
      <point x="155" y="690" type="line"/>
      <point x="198" y="690" type="line"/>
      <point x="198" y="58" type="line"/>
      <point x="289" y="58" type="line"/>
      <point x="289" y="789" type="line"/>
      <point x="60" y="789" type="line"/>
      <point x="60" y="-19" type="line"/>
    </contour>
    <contour>
      <point x="414" y="-75" type="line"/>
      <point x="414" y="620" type="line"/>
      <point x="319" y="620" type="line"/>
      <point x="319" y="-75" type="line"/>
    </contour>
    <contour>
      <point x="436" y="63" type="line"/>
      <point x="512" y="79"/>
      <point x="582" y="96"/>
      <point x="653" y="120" type="curve"/>
      <point x="648" y="192" type="line"/>
      <point x="570" y="166"/>
      <point x="501" y="151"/>
      <point x="428" y="138" type="curve"/>
    </contour>
    <contour>
      <point x="522" y="107" type="line"/>
      <point x="522" y="502" type="line"/>
      <point x="451" y="502" type="line"/>
      <point x="451" y="107" type="line"/>
    </contour>
    <contour>
      <point x="592" y="225" type="line"/>
      <point x="592" y="288" type="line"/>
      <point x="488" y="288" type="line"/>
      <point x="488" y="225" type="line"/>
    </contour>
    <contour>
      <point x="621" y="1" type="line"/>
      <point x="621" y="502" type="line"/>
      <point x="551" y="502" type="line"/>
      <point x="551" y="1" type="line"/>
    </contour>
    <contour>
      <point x="592" y="345" type="line"/>
      <point x="592" y="409" type="line"/>
      <point x="488" y="409" type="line"/>
      <point x="488" y="345" type="line"/>
    </contour>
    <contour>
      <point x="832" y="110" type="line"/>
      <point x="794" y="196"/>
      <point x="746" y="286"/>
      <point x="692" y="376" type="curve"/>
      <point x="642" y="320" type="line"/>
      <point x="695" y="241"/>
      <point x="742" y="138"/>
      <point x="782" y="39" type="curve"/>
    </contour>
    <contour>
      <point x="676" y="-7" type="line"/>
      <point x="781" y="146"/>
      <point x="804" y="308"/>
      <point x="807" y="549" type="curve"/>
      <point x="737" y="553" type="line"/>
      <point x="735" y="315"/>
      <point x="721" y="193"/>
      <point x="628" y="66" type="curve"/>
    </contour>
    <contour>
      <point x="643" y="466" type="line"/>
      <point x="643" y="537" type="line"/>
      <point x="433" y="537" type="line"/>
      <point x="433" y="466" type="line"/>
    </contour>
    <contour>
      <point x="602" y="513" type="line"/>
      <point x="613" y="652" type="line"/>
      <point x="457" y="652" type="line"/>
      <point x="457" y="578" type="line"/>
      <point x="533" y="578" type="line"/>
      <point x="529" y="513" type="line"/>
    </contour>
    <contour>
      <point x="515" y="708" type="line"/>
      <point x="468" y="771"/>
      <point x="447" y="800"/>
      <point x="397" y="851" type="curve"/>
      <point x="316" y="784" type="line"/>
      <point x="357" y="740"/>
      <point x="391" y="701"/>
      <point x="434" y="634" type="curve"/>
    </contour>
    <contour>
      <point x="677" y="328" type="line"/>
      <point x="708" y="439"/>
      <point x="726" y="540"/>
      <point x="735" y="658" type="curve"/>
      <point x="668" y="674" type="line"/>
      <point x="661" y="563"/>
      <point x="648" y="470"/>
      <point x="625" y="398" type="curve"/>
    </contour>
    <contour>
      <point x="821" y="496" type="line"/>
      <point x="821" y="576" type="line"/>
      <point x="683" y="576" type="line"/>
      <point x="683" y="496" type="line"/>
    </contour>
  </outline>
</glyph>
<glyph name="uni364D" format="2">
  <advance width="1000"/>
  <unicode hex="364D"/>
  <outline>
    <contour>
      <point x="414" y="398" type="line"/>
      <point x="539" y="491"/>
      <point x="619" y="601"/>
      <point x="642" y="739" type="curve"/>
      <point x="642" y="819" type="line"/>
      <point x="368" y="819" type="line"/>
      <point x="368" y="720" type="line"/>
      <point x="581" y="720" type="line"/>
      <point x="541" y="742" type="line"/>
      <point x="523" y="647"/>
      <point x="468" y="559"/>
      <point x="353" y="485" type="curve"/>
    </contour>
    <contour>
      <point x="655" y="505" type="line"/>
      <point x="590" y="576"/>
      <point x="522" y="644"/>
      <point x="437" y="701" type="curve"/>
      <point x="373" y="637" type="line"/>
      <point x="463" y="568"/>
      <point x="520" y="505"/>
      <point x="588" y="427" type="curve"/>
    </contour>
    <contour>
      <point x="679" y="398" type="line"/>
      <point x="826" y="489"/>
      <point x="913" y="601"/>
      <point x="945" y="739" type="curve"/>
      <point x="945" y="819" type="line"/>
      <point x="671" y="819" type="line"/>
      <point x="671" y="720" type="line"/>
      <point x="884" y="720" type="line"/>
      <point x="842" y="743" type="line"/>
      <point x="818" y="655"/>
      <point x="764" y="560"/>
      <point x="618" y="486" type="curve"/>
    </contour>
    <contour>
      <point x="381" y="-85" type="line"/>
      <point x="532" y="15"/>
      <point x="615" y="150"/>
      <point x="642" y="310" type="curve"/>
      <point x="642" y="390" type="line"/>
      <point x="368" y="390" type="line"/>
      <point x="368" y="291" type="line"/>
      <point x="581" y="291" type="line"/>
      <point x="536" y="313" type="line"/>
      <point x="514" y="199"/>
      <point x="464" y="99"/>
      <point x="320" y="5" type="curve"/>
    </contour>
    <contour>
      <point x="655" y="62" type="line"/>
      <point x="586" y="135"/>
      <point x="513" y="205"/>
      <point x="422" y="264" type="curve"/>
      <point x="360" y="193" type="line"/>
      <point x="455" y="126"/>
      <point x="520" y="62"/>
      <point x="588" y="-19" type="curve"/>
    </contour>
    <contour>
      <point x="666" y="-85" type="line"/>
      <point x="831" y="14"/>
      <point x="916" y="149"/>
      <point x="950" y="309" type="curve"/>
      <point x="950" y="389" type="line"/>
      <point x="671" y="389" type="line"/>
      <point x="671" y="290" type="line"/>
      <point x="889" y="290" type="line"/>
      <point x="844" y="312" type="line"/>
      <point x="817" y="197"/>
      <point x="762" y="97"/>
      <point x="604" y="5" type="curve"/>
    </contour>
    <contour>
      <point x="977" y="494" type="line"/>
      <point x="900" y="570"/>
      <point x="820" y="643"/>
      <point x="720" y="704" type="curve"/>
      <point x="655" y="637" type="line"/>
      <point x="762" y="565"/>
      <point x="834" y="491"/>
      <point x="909" y="414" type="curve"/>
    </contour>
    <contour>
      <point x="980" y="17" type="line"/>
      <point x="862" y="103"/>
      <point x="803" y="179"/>
      <point x="726" y="294" type="curve"/>
      <point x="642" y="240" type="line"/>
      <point x="711" y="131"/>
      <point x="788" y="19"/>
      <point x="913" y="-79" type="curve"/>
    </contour>
    <contour>
      <point x="141" y="840" type="line"/>
      <point x="141" y="115" type="line"/>
      <point x="259" y="115" type="line"/>
      <point x="259" y="840" type="line"/>
    </contour>
    <contour>
      <point x="356" y="581" type="line"/>
      <point x="32" y="581" type="line"/>
      <point x="32" y="463" type="line"/>
      <point x="356" y="463" type="line"/>
    </contour>
    <contour>
      <point x="350" y="243" type="line"/>
      <point x="250" y="200"/>
      <point x="138" y="163"/>
      <point x="20" y="134" type="curve"/>
      <point x="51" y="18" type="line"/>
      <point x="174" y="52"/>
      <point x="271" y="83"/>
      <point x="365" y="130" type="curve"/>
    </contour>
  </outline>
</glyph>
<glyph name="uni3658" format="2">
  <advance width="1000"/>
  <unicode hex="3658"/>
  <outline>
    <contour>
      <point x="542" y="414" type="line"/>
      <point x="635" y="414" type="line"/>
      <point x="635" y="759" type="line"/>
      <point x="542" y="759" type="line"/>
    </contour>
    <contour>
      <point x="683" y="414" type="line"/>
      <point x="775" y="414" type="line"/>
      <point x="775" y="759" type="line"/>
      <point x="683" y="759" type="line"/>
    </contour>
    <contour>
      <point x="956" y="820" type="line"/>
      <point x="374" y="820" type="line"/>
      <point x="374" y="722" type="line"/>
      <point x="956" y="722" type="line"/>
    </contour>
    <contour>
      <point x="393" y="358" type="line"/>
      <point x="933" y="358" type="line"/>
      <point x="933" y="663" type="line"/>
      <point x="393" y="663" type="line"/>
    </contour>
    <contour>
      <point x="496" y="570" type="line"/>
      <point x="828" y="570" type="line"/>
      <point x="828" y="451" type="line"/>
      <point x="496" y="451" type="line"/>
    </contour>
    <contour>
      <point x="400" y="-86" type="line"/>
      <point x="720" y="-33"/>
      <point x="850" y="89"/>
      <point x="894" y="270" type="curve"/>
      <point x="777" y="280" type="line"/>
      <point x="738" y="127"/>
      <point x="640" y="52"/>
      <point x="362" y="15" type="curve"/>
    </contour>
    <contour>
      <point x="966" y="207" type="line"/>
      <point x="966" y="303" type="line"/>
      <point x="365" y="303" type="line"/>
      <point x="365" y="207" type="line"/>
    </contour>
    <contour>
      <point x="426" y="116" type="curve"/>
      <point x="627" y="43"/>
      <point x="764" y="-20"/>
      <point x="901" y="-86" type="curve"/>
      <point x="959" y="6" type="line"/>
      <point x="822" y="67"/>
      <point x="702" y="116"/>
      <point x="584" y="159" type="curve"/>
      <point x="629" y="225"/>
      <point x="677" y="313"/>
      <point x="704" y="384" type="curve"/>
      <point x="598" y="409" type="line"/>
      <point x="564" y="320"/>
      <point x="503" y="211"/>
    </contour>
    <contour>
      <point x="143" y="840" type="line"/>
      <point x="143" y="110" type="line"/>
      <point x="261" y="110" type="line"/>
      <point x="261" y="840" type="line"/>
    </contour>
    <contour>
      <point x="360" y="578" type="line"/>
      <point x="32" y="578" type="line"/>
      <point x="32" y="459" type="line"/>
      <point x="360" y="459" type="line"/>
    </contour>
    <contour>
      <point x="354" y="237" type="line"/>
      <point x="252" y="194"/>
      <point x="139" y="156"/>
      <point x="20" y="127" type="curve"/>
      <point x="51" y="11" type="line"/>
      <point x="175" y="45"/>
      <point x="274" y="76"/>
      <point x="368" y="123" type="curve"/>
    </contour>
  </outline>
</glyph>
<glyph name="uni3666" format="2">
  <advance width="1000.0"/>
  <unicode hex="3666"/>
  <outline>
    <contour>
      <point x="246.0" y="230.0" type="line" smooth="yes"/>
      <point x="329.0" y="230.0"/>
      <point x="356.0" y="249.0"/>
      <point x="356.0" y="305.0" type="curve" smooth="yes"/>
      <point x="356.0" y="623.0" type="line"/>
      <point x="253.0" y="623.0" type="line"/>
      <point x="253.0" y="317.0" type="line"/>
      <point x="164.0" y="317.0" type="line"/>
      <point x="196.0" y="230.0" type="line"/>
    </contour>
    <contour>
      <point x="125.0" y="265.0" type="line"/>
      <point x="172.0" y="315.0"/>
      <point x="199.0" y="376.0"/>
      <point x="215.0" y="436.0" type="curve"/>
      <point x="123.0" y="451.0" type="line"/>
      <point x="107.0" y="396.0"/>
      <point x="84.0" y="356.0"/>
      <point x="42.0" y="315.0" type="curve"/>
    </contour>
    <contour>
      <point x="524.0" y="466.0" type="line"/>
      <point x="524.0" y="546.0" type="line"/>
      <point x="65.0" y="546.0" type="line"/>
      <point x="65.0" y="466.0" type="line"/>
    </contour>
    <contour>
      <point x="524.0" y="307.0" type="line"/>
      <point x="512.0" y="344.0"/>
      <point x="484.0" y="412.0"/>
      <point x="459.0" y="455.0" type="curve"/>
      <point x="371.0" y="431.0" type="line"/>
      <point x="396.0" y="385.0"/>
      <point x="419.0" y="321.0"/>
      <point x="434.0" y="276.0" type="curve"/>
    </contour>
    <contour>
      <point x="462.0" y="581.0" type="line"/>
      <point x="462.0" y="659.0" type="line"/>
      <point x="147.0" y="659.0" type="line"/>
      <point x="147.0" y="581.0" type="line"/>
    </contour>
    <contour>
      <point x="962.0" y="392.0" type="line"/>
      <point x="950.0" y="485.0" type="line"/>
      <point x="527.0" y="437.0" type="line"/>
      <point x="545.0" y="340.0" type="line"/>
    </contour>
    <contour>
      <point x="752.0" y="533.0" type="line"/>
      <point x="707.0" y="574.0"/>
      <point x="651.0" y="620.0"/>
      <point x="594.0" y="659.0" type="curve"/>
      <point x="525.0" y="597.0" type="line"/>
      <point x="582.0" y="556.0"/>
      <point x="637.0" y="512.0"/>
      <point x="682.0" y="472.0" type="curve"/>
    </contour>
    <contour>
      <point x="884.0" y="236.0" type="line"/>
      <point x="884.0" y="839.0" type="line"/>
      <point x="779.0" y="839.0" type="line"/>
      <point x="779.0" y="236.0" type="line"/>
    </contour>
    <contour>
      <point x="786.0" y="698.0" type="line"/>
      <point x="738.0" y="743.0"/>
      <point x="679.0" y="788.0"/>
      <point x="621.0" y="822.0" type="curve"/>
      <point x="556.0" y="758.0" type="line"/>
      <point x="614.0" y="720.0"/>
      <point x="670.0" y="678.0"/>
      <point x="718.0" y="637.0" type="curve"/>
    </contour>
    <contour>
      <point x="896.0" y="209.0" type="line"/>
      <point x="104.0" y="209.0" type="line"/>
      <point x="104.0" y="106.0" type="line"/>
      <point x="896.0" y="106.0" type="line"/>
    </contour>
    <contour>
      <point x="960.0" y="42.0" type="line"/>
      <point x="40.0" y="42.0" type="line"/>
      <point x="40.0" y="-63.0" type="line"/>
      <point x="960.0" y="-63.0" type="line"/>
    </contour>
    <contour>
      <point x="552.0" y="-11.0" type="line"/>
      <point x="552.0" y="253.0" type="line"/>
      <point x="432.0" y="253.0" type="line"/>
      <point x="432.0" y="-11.0" type="line"/>
    </contour>
    <contour>
      <point x="75.77339872953604" y="601.663561458796" type="line"/>
      <point x="194.8273686629093" y="656.6811629381781"/>
      <point x="262.1467349348301" y="697.5056806052868"/>
      <point x="285.7805019504442" y="790.2627825781626" type="curve"/>
      <point x="293.82040765465393" y="790.2627825781626" type="line"/>
      <point x="317.2554973652499" y="702.5530066460443"/>
      <point x="380.45273096932976" y="665.0297548707833"/>
      <point x="504.9736688872533" y="609.442137284776" type="curve"/>
      <point x="545.2312122956969" y="691.1339712674852" type="line"/>
      <point x="411.1640934823524" y="746.1987229581714"/>
      <point x="367.072898113204" y="787.8859486950485"/>
      <point x="339.4787929434731" y="839.2631137900413" type="curve"/>
      <point x="241.69195998219334" y="839.2631137900413" type="line"/>
      <point x="214.2456077367388" y="785.4555238034798"/>
      <point x="176.06705396066866" y="740.3702337336749"/>
      <point x="38.495587007044264" y="681.9215287257977" type="curve"/>
    </contour>
  </outline>
</glyph>
